<svg width="1006mm" height="243mm" viewBox="0 0 1006 243" xmlns="http://www.w3.org/2000/svg" version="1.1" preserveAspectRatio="xMidYMid meet"><g id="svgGroup" stroke-linecap="round" fill-rule="evenodd" font-size="9pt" stroke="#000" stroke-width="0.25mm" fill="none" style="stroke:#000;stroke-width:0.25mm;fill:none"><path d="M 0 199 L 0 206 L 3 206 L 3 212 L 0 212 L 0 218 L 3 218 L 3 224 L 0 224 L 0 230 L 3 230 L 3 236 L 0 236 L 0 242 L 0 243 L 7 243 L 7 240 L 13 240 L 13 243 L 19 243 L 19 240 L 25 240 L 25 243 L 31 243 L 31 240 L 37 240 L 37 243 L 43 243 L 43 240 L 49 240 L 49 243 L 55 243 L 55 240 L 61 240 L 61 243 L 67 243 L 67 240 L 73 240 L 73 243 L 79 243 L 79 240 L 85 240 L 85 243 L 91 243 L 91 240 L 97 240 L 97 243 L 103 243 L 103 240 L 109 240 L 109 243 L 115 243 L 115 240 L 121 240 L 121 243 L 127 243 L 127 240 L 133 240 L 133 243 L 139 243 L 139 240 L 145 240 L 145 243 L 151 243 L 151 240 L 157 240 L 157 243 L 163 243 L 163 240 L 169 240 L 169 243 L 175 243 L 175 240 L 181 240 L 181 243 L 187 243 L 187 240 L 193 240 L 193 243 L 199 243 L 199 240 L 205 240 L 205 243 L 211 243 L 211 240 L 217 240 L 217 243 L 223 243 L 223 240 L 229 240 L 229 243 L 235 243 L 235 240 L 241 240 L 241 243 L 247 243 L 247 240 L 253 240 L 253 243 L 259 243 L 259 240 L 265 240 L 265 243 L 271 243 L 271 240 L 277 240 L 277 243 L 283 243 L 283 240 L 289 240 L 289 243 L 295 243 L 295 240 L 301 240 L 301 243 L 307 243 L 307 240 L 313 240 L 313 243 L 319 243 L 319 240 L 325 240 L 325 243 L 331 243 L 331 240 L 337 240 L 337 243 L 343 243 L 343 240 L 349 240 L 349 243 L 355 243 L 355 240 L 361 240 L 361 243 L 367 243 L 367 240 L 373 240 L 373 243 L 379 243 L 379 240 L 385 240 L 385 243 L 391 243 L 391 240 L 397 240 L 397 243 L 403 243 L 403 240 L 409 240 L 409 243 L 415 243 L 415 240 L 421 240 L 421 243 L 427 243 L 427 240 L 433 240 L 433 243 L 439 243 L 440 243 L 440 236 L 437 236 L 437 230 L 440 230 L 440 224 L 437 224 L 437 218 L 440 218 L 440 212 L 437 212 L 437 206 L 440 206 L 440 200 L 440 199 L 433 199 L 433 202 L 427 202 L 427 199 L 421 199 L 421 202 L 415 202 L 415 199 L 409 199 L 409 202 L 403 202 L 403 199 L 397 199 L 397 202 L 391 202 L 391 199 L 385 199 L 385 202 L 379 202 L 379 199 L 373 199 L 373 202 L 367 202 L 367 199 L 361 199 L 361 202 L 355 202 L 355 199 L 349 199 L 349 202 L 343 202 L 343 199 L 337 199 L 337 202 L 331 202 L 331 199 L 325 199 L 325 202 L 319 202 L 319 199 L 313 199 L 313 202 L 307 202 L 307 199 L 301 199 L 301 202 L 295 202 L 295 199 L 289 199 L 289 202 L 283 202 L 283 199 L 277 199 L 277 202 L 271 202 L 271 199 L 265 199 L 265 202 L 259 202 L 259 199 L 253 199 L 253 202 L 247 202 L 247 199 L 241 199 L 241 202 L 235 202 L 235 199 L 229 199 L 229 202 L 223 202 L 223 199 L 217 199 L 217 202 L 211 202 L 211 199 L 205 199 L 205 202 L 199 202 L 199 199 L 193 199 L 193 202 L 187 202 L 187 199 L 181 199 L 181 202 L 175 202 L 175 199 L 169 199 L 169 202 L 163 202 L 163 199 L 157 199 L 157 202 L 151 202 L 151 199 L 145 199 L 145 202 L 139 202 L 139 199 L 133 199 L 133 202 L 127 202 L 127 199 L 121 199 L 121 202 L 115 202 L 115 199 L 109 199 L 109 202 L 103 202 L 103 199 L 97 199 L 97 202 L 91 202 L 91 199 L 85 199 L 85 202 L 79 202 L 79 199 L 73 199 L 73 202 L 67 202 L 67 199 L 61 199 L 61 202 L 55 202 L 55 199 L 49 199 L 49 202 L 43 202 L 43 199 L 37 199 L 37 202 L 31 202 L 31 199 L 25 199 L 25 202 L 19 202 L 19 199 L 13 199 L 13 202 L 7 202 L 7 199 L 1 199 L 0 199 Z" id="front_outsideCutPath" stroke="#FF0000" stroke-width="0.1" style="stroke:#FF0000;stroke-width:0.1" vector-effect="non-scaling-stroke"/><path d="M 226.413 224.324 L 225.7 224.324 L 225.7 221.277 A 2.016 2.016 0 0 0 225.677 220.961 Q 225.622 220.617 225.438 220.418 A 0.804 0.804 0 0 0 225.108 220.207 Q 224.978 220.162 224.819 220.144 A 1.891 1.891 0 0 0 224.617 220.134 A 2.159 2.159 0 0 0 224.213 220.169 Q 223.776 220.253 223.534 220.534 A 1.166 1.166 0 0 0 223.332 220.888 Q 223.19 221.264 223.19 221.853 L 223.19 224.324 L 222.477 224.324 L 222.477 219.614 L 223.057 219.614 L 223.173 220.259 L 223.208 220.259 A 1.444 1.444 0 0 1 223.773 219.744 A 1.737 1.737 0 0 1 223.822 219.719 A 1.931 1.931 0 0 1 224.509 219.536 A 2.336 2.336 0 0 1 224.703 219.528 A 2.816 2.816 0 0 1 225.182 219.566 Q 225.685 219.653 225.983 219.939 A 1.236 1.236 0 0 1 226.285 220.411 Q 226.357 220.606 226.388 220.848 A 3.113 3.113 0 0 1 226.413 221.251 L 226.413 224.324 Z M 212.71 219.614 L 212.71 220.168 L 211.512 220.168 L 211.512 224.324 L 210.798 224.324 L 210.798 220.168 L 209.956 220.168 L 209.956 219.846 L 210.798 219.588 L 210.798 219.326 Q 210.798 217.828 211.929 217.623 A 2.168 2.168 0 0 1 212.315 217.59 A 2.297 2.297 0 0 1 212.64 217.615 Q 212.798 217.638 212.974 217.681 A 4.617 4.617 0 0 1 213.192 217.741 L 213.007 218.312 Q 212.714 218.218 212.482 218.19 A 1.534 1.534 0 0 0 212.302 218.179 A 0.962 0.962 0 0 0 212.07 218.205 A 0.618 0.618 0 0 0 211.705 218.448 Q 211.512 218.716 211.512 219.309 L 211.512 219.614 L 212.71 219.614 Z M 230.044 223.735 L 230.044 224.281 A 0.702 0.702 0 0 1 229.961 224.314 Q 229.872 224.343 229.745 224.366 A 2.667 2.667 0 0 1 229.702 224.373 A 3.092 3.092 0 0 1 229.501 224.399 Q 229.392 224.409 229.296 224.409 Q 227.93 224.409 227.93 222.97 L 227.93 220.168 L 227.255 220.168 L 227.255 219.825 L 227.93 219.528 L 228.231 218.523 L 228.643 218.523 L 228.643 219.614 L 230.01 219.614 L 230.01 220.168 L 228.643 220.168 L 228.643 222.94 A 1.436 1.436 0 0 0 228.664 223.192 Q 228.708 223.438 228.845 223.593 A 0.663 0.663 0 0 0 229.252 223.81 A 0.953 0.953 0 0 0 229.399 223.821 A 2.343 2.343 0 0 0 229.743 223.796 A 2.157 2.157 0 0 0 229.765 223.793 Q 229.933 223.766 230.034 223.738 A 1.074 1.074 0 0 0 230.044 223.735 Z M 216.281 219.58 L 216.182 220.242 A 3.144 3.144 0 0 0 215.956 220.2 Q 215.799 220.177 215.667 220.177 A 1.236 1.236 0 0 0 214.754 220.571 A 1.691 1.691 0 0 0 214.689 220.641 A 1.629 1.629 0 0 0 214.296 221.556 A 2.165 2.165 0 0 0 214.283 221.797 L 214.283 224.324 L 213.57 224.324 L 213.57 219.614 L 214.158 219.614 L 214.24 220.486 L 214.274 220.486 A 2.409 2.409 0 0 1 214.544 220.102 A 1.84 1.84 0 0 1 214.906 219.777 A 1.422 1.422 0 0 1 215.718 219.528 A 3.275 3.275 0 0 1 216.011 219.541 A 2.39 2.39 0 0 1 216.281 219.58 Z M 221.161 222.681 A 3.684 3.684 0 0 0 221.227 221.965 A 4.186 4.186 0 0 0 221.225 221.851 Q 221.215 221.459 221.13 221.126 A 2.221 2.221 0 0 0 220.645 220.186 Q 220.062 219.528 219.074 219.528 A 2.77 2.77 0 0 0 218.576 219.571 A 1.887 1.887 0 0 0 217.476 220.171 A 1.971 1.971 0 0 0 217.234 220.506 Q 216.9 221.088 216.9 221.965 Q 216.9 222.708 217.166 223.262 A 2.345 2.345 0 0 0 217.218 223.364 A 1.931 1.931 0 0 0 217.922 224.113 A 1.986 1.986 0 0 0 218.378 224.316 A 2.291 2.291 0 0 0 219.044 224.409 A 2.77 2.77 0 0 0 219.528 224.369 A 1.902 1.902 0 0 0 220.647 223.763 Q 221.032 223.333 221.161 222.681 Z M 217.639 221.965 A 3.612 3.612 0 0 0 217.673 222.481 Q 217.711 222.742 217.791 222.955 A 1.496 1.496 0 0 0 218 223.34 A 1.169 1.169 0 0 0 218.761 223.788 A 1.772 1.772 0 0 0 219.061 223.812 A 1.657 1.657 0 0 0 219.498 223.758 A 1.153 1.153 0 0 0 220.125 223.342 A 1.531 1.531 0 0 0 220.363 222.877 Q 220.433 222.663 220.464 222.401 A 3.757 3.757 0 0 0 220.488 221.965 A 3.559 3.559 0 0 0 220.454 221.457 Q 220.417 221.199 220.338 220.99 A 1.469 1.469 0 0 0 220.125 220.6 A 1.173 1.173 0 0 0 219.395 220.165 A 1.799 1.799 0 0 0 219.053 220.134 A 1.698 1.698 0 0 0 218.63 220.184 A 1.136 1.136 0 0 0 217.996 220.594 A 1.475 1.475 0 0 0 217.766 221.037 Q 217.699 221.24 217.667 221.49 A 3.769 3.769 0 0 0 217.639 221.965 Z" id="front_labelLayer" stroke="#777777" fill="#777777" style="stroke:#777777;fill:#777777" vector-effect="non-scaling-stroke"/><path d="M 446 199 L 446 206 L 443 206 L 443 212 L 446 212 L 446 218 L 443 218 L 443 224 L 446 224 L 446 230 L 443 230 L 443 236 L 446 236 L 446 242 L 446 243 L 446 240 L 452 240 L 452 243 L 458 243 L 458 240 L 464 240 L 464 243 L 470 243 L 470 240 L 476 240 L 476 243 L 482 243 L 482 240 L 488 240 L 488 243 L 494 243 L 494 240 L 500 240 L 500 243 L 506 243 L 506 240 L 512 240 L 512 243 L 518 243 L 518 240 L 524 240 L 524 243 L 530 243 L 530 240 L 536 240 L 536 243 L 542 243 L 542 240 L 548 240 L 548 243 L 554 243 L 554 240 L 560 240 L 560 243 L 560 236 L 563 236 L 563 230 L 560 230 L 560 224 L 563 224 L 563 218 L 560 218 L 560 212 L 563 212 L 563 206 L 560 206 L 560 200 L 560 199 L 560 202 L 554 202 L 554 199 L 548 199 L 548 202 L 542 202 L 542 199 L 536 199 L 536 202 L 530 202 L 530 199 L 524 199 L 524 202 L 518 202 L 518 199 L 512 199 L 512 202 L 506 202 L 506 199 L 500 199 L 500 202 L 494 202 L 494 199 L 488 199 L 488 202 L 482 202 L 482 199 L 476 199 L 476 202 L 470 202 L 470 199 L 464 199 L 464 202 L 458 202 L 458 199 L 452 199 L 452 202 L 446 202 L 446 199 Z" id="left_outsideCutPath" stroke="#FF0000" stroke-width="0.1" style="stroke:#FF0000;stroke-width:0.1" vector-effect="non-scaling-stroke"/><path d="M 506.13 219.614 L 506.13 220.168 L 504.931 220.168 L 504.931 224.324 L 504.218 224.324 L 504.218 220.168 L 503.376 220.168 L 503.376 219.846 L 504.218 219.588 L 504.218 219.326 Q 504.218 217.828 505.349 217.623 A 2.168 2.168 0 0 1 505.735 217.59 A 2.297 2.297 0 0 1 506.06 217.615 Q 506.218 217.638 506.394 217.681 A 4.617 4.617 0 0 1 506.612 217.741 L 506.427 218.312 Q 506.134 218.218 505.901 218.19 A 1.534 1.534 0 0 0 505.722 218.179 A 0.962 0.962 0 0 0 505.49 218.205 A 0.618 0.618 0 0 0 505.125 218.448 Q 504.931 218.716 504.931 219.309 L 504.931 219.614 L 506.13 219.614 Z M 502.792 221.647 L 502.792 222.098 L 499.547 222.098 Q 499.562 222.664 499.752 223.044 A 1.339 1.339 0 0 0 499.966 223.357 A 1.296 1.296 0 0 0 500.647 223.74 A 1.964 1.964 0 0 0 501.086 223.786 A 3.767 3.767 0 0 0 502.497 223.507 A 4.316 4.316 0 0 0 502.59 223.468 L 502.59 224.104 A 4.282 4.282 0 0 1 502.199 224.252 A 3.275 3.275 0 0 1 501.874 224.339 A 2.994 2.994 0 0 1 501.577 224.384 Q 501.431 224.4 501.265 224.406 A 5.811 5.811 0 0 1 501.06 224.409 A 2.772 2.772 0 0 1 500.366 224.327 A 1.963 1.963 0 0 1 499.412 223.774 A 2.099 2.099 0 0 1 498.91 222.851 Q 498.823 222.525 498.81 222.136 A 4.074 4.074 0 0 1 498.808 222.008 Q 498.808 221.079 499.181 220.462 A 2.112 2.112 0 0 1 499.369 220.199 A 1.828 1.828 0 0 1 500.701 219.534 A 2.521 2.521 0 0 1 500.875 219.528 A 2.173 2.173 0 0 1 501.487 219.61 A 1.654 1.654 0 0 1 502.276 220.11 A 1.994 1.994 0 0 1 502.728 221.022 A 2.903 2.903 0 0 1 502.792 221.647 Z M 509.155 223.735 L 509.155 224.281 A 0.702 0.702 0 0 1 509.072 224.314 Q 508.983 224.343 508.856 224.366 A 2.667 2.667 0 0 1 508.814 224.373 A 3.092 3.092 0 0 1 508.612 224.399 Q 508.503 224.409 508.408 224.409 Q 507.041 224.409 507.041 222.97 L 507.041 220.168 L 506.367 220.168 L 506.367 219.825 L 507.041 219.528 L 507.342 218.523 L 507.754 218.523 L 507.754 219.614 L 509.121 219.614 L 509.121 220.168 L 507.754 220.168 L 507.754 222.94 A 1.436 1.436 0 0 0 507.775 223.192 Q 507.819 223.438 507.956 223.593 A 0.663 0.663 0 0 0 508.364 223.81 A 0.953 0.953 0 0 0 508.511 223.821 A 2.343 2.343 0 0 0 508.854 223.796 A 2.157 2.157 0 0 0 508.876 223.793 Q 509.044 223.766 509.146 223.738 A 1.074 1.074 0 0 0 509.155 223.735 Z M 497.558 217.638 L 497.558 224.324 L 496.845 224.324 L 496.845 217.638 L 497.558 217.638 Z M 499.565 221.518 L 502.027 221.518 A 2.431 2.431 0 0 0 501.997 221.127 Q 501.933 220.731 501.726 220.484 A 0.977 0.977 0 0 0 501.137 220.149 A 1.466 1.466 0 0 0 500.867 220.125 A 1.406 1.406 0 0 0 500.46 220.181 A 1.086 1.086 0 0 0 499.962 220.495 Q 499.657 220.829 499.579 221.396 A 2.695 2.695 0 0 0 499.565 221.518 Z" id="left_labelLayer" stroke="#777777" fill="#777777" style="stroke:#777777;fill:#777777" vector-effect="non-scaling-stroke"/><path d="M 569 126 L 566 126 L 566 132 L 569 132 L 569 138 L 566 138 L 566 144 L 569 144 L 569 150 L 566 150 L 566 156 L 569 156 L 569 162 L 566 162 L 566 168 L 569 168 L 569 174 L 566 174 L 566 180 L 569 180 L 569 186 L 566 186 L 566 192 L 569 192 L 569 198 L 566 198 L 566 204 L 569 204 L 569 210 L 566 210 L 566 216 L 569 216 L 569 222 L 566 222 L 566 228 L 569 228 L 569 234 L 566 234 L 566 240 L 569 240 L 573 240 L 573 243 L 579 243 L 579 240 L 585 240 L 585 243 L 591 243 L 591 240 L 597 240 L 597 243 L 603 243 L 603 240 L 609 240 L 609 243 L 615 243 L 615 240 L 621 240 L 621 243 L 627 243 L 627 240 L 633 240 L 633 243 L 639 243 L 639 240 L 645 240 L 645 243 L 651 243 L 651 240 L 657 240 L 657 243 L 663 243 L 663 240 L 669 240 L 669 243 L 675 243 L 675 240 L 681 240 L 681 243 L 687 243 L 687 240 L 693 240 L 693 243 L 699 243 L 699 240 L 705 240 L 705 243 L 711 243 L 711 240 L 717 240 L 717 243 L 723 243 L 723 240 L 729 240 L 729 243 L 735 243 L 735 240 L 741 240 L 741 243 L 747 243 L 747 240 L 753 240 L 753 243 L 759 243 L 759 240 L 765 240 L 765 243 L 771 243 L 771 240 L 777 240 L 777 243 L 783 243 L 783 240 L 789 240 L 789 243 L 795 243 L 795 240 L 801 240 L 801 243 L 807 243 L 807 240 L 813 240 L 813 243 L 819 243 L 819 240 L 825 240 L 825 243 L 831 243 L 831 240 L 837 240 L 837 243 L 843 243 L 843 240 L 849 240 L 849 243 L 855 243 L 855 240 L 861 240 L 861 243 L 867 243 L 867 240 L 873 240 L 873 243 L 879 243 L 879 240 L 885 240 L 885 243 L 891 243 L 891 240 L 897 240 L 897 243 L 903 243 L 903 240 L 909 240 L 909 243 L 915 243 L 915 240 L 921 240 L 921 243 L 927 243 L 927 240 L 933 240 L 933 243 L 939 243 L 939 240 L 945 240 L 945 243 L 951 243 L 951 240 L 957 240 L 957 243 L 963 243 L 963 240 L 969 240 L 969 243 L 975 243 L 975 240 L 981 240 L 981 243 L 987 243 L 987 240 L 993 240 L 993 243 L 999 243 L 999 240 L 1005 240 L 1003 240 L 1006 240 L 1006 234 L 1003 234 L 1003 228 L 1006 228 L 1006 222 L 1003 222 L 1003 216 L 1006 216 L 1006 210 L 1003 210 L 1003 204 L 1006 204 L 1006 198 L 1003 198 L 1003 192 L 1006 192 L 1006 186 L 1003 186 L 1003 180 L 1006 180 L 1006 174 L 1003 174 L 1003 168 L 1006 168 L 1006 162 L 1003 162 L 1003 156 L 1006 156 L 1006 150 L 1003 150 L 1003 144 L 1006 144 L 1006 138 L 1003 138 L 1003 132 L 1006 132 L 1006 126 L 1003 126 L 999 126 L 999 123 L 993 123 L 993 126 L 987 126 L 987 123 L 981 123 L 981 126 L 975 126 L 975 123 L 969 123 L 969 126 L 963 126 L 963 123 L 957 123 L 957 126 L 951 126 L 951 123 L 945 123 L 945 126 L 939 126 L 939 123 L 933 123 L 933 126 L 927 126 L 927 123 L 921 123 L 921 126 L 915 126 L 915 123 L 909 123 L 909 126 L 903 126 L 903 123 L 897 123 L 897 126 L 891 126 L 891 123 L 885 123 L 885 126 L 879 126 L 879 123 L 873 123 L 873 126 L 867 126 L 867 123 L 861 123 L 861 126 L 855 126 L 855 123 L 849 123 L 849 126 L 843 126 L 843 123 L 837 123 L 837 126 L 831 126 L 831 123 L 825 123 L 825 126 L 819 126 L 819 123 L 813 123 L 813 126 L 807 126 L 807 123 L 801 123 L 801 126 L 795 126 L 795 123 L 789 123 L 789 126 L 783 126 L 783 123 L 777 123 L 777 126 L 771 126 L 771 123 L 765 123 L 765 126 L 759 126 L 759 123 L 753 123 L 753 126 L 747 126 L 747 123 L 741 123 L 741 126 L 735 126 L 735 123 L 729 123 L 729 126 L 723 126 L 723 123 L 717 123 L 717 126 L 711 126 L 711 123 L 705 123 L 705 126 L 699 126 L 699 123 L 693 123 L 693 126 L 687 126 L 687 123 L 681 123 L 681 126 L 675 126 L 675 123 L 669 123 L 669 126 L 663 126 L 663 123 L 657 123 L 657 126 L 651 126 L 651 123 L 645 123 L 645 126 L 639 126 L 639 123 L 633 123 L 633 126 L 627 126 L 627 123 L 621 123 L 621 126 L 615 126 L 615 123 L 609 123 L 609 126 L 603 126 L 603 123 L 597 123 L 597 126 L 591 126 L 591 123 L 585 123 L 585 126 L 579 126 L 579 123 L 573 123 L 573 126 L 567 126 L 569 126 Z" id="top_outsideCutPath" stroke="#FF0000" stroke-width="0.1" style="stroke:#FF0000;stroke-width:0.1" vector-effect="non-scaling-stroke"/><path d="M 794.625 186.375 L 794.484 186.375 Q 794.625 187.5 794.625 188.508 L 794.625 193.793 L 792.68 193.793 L 792.68 175.184 L 794.262 175.184 L 794.531 176.941 L 794.625 176.941 A 5.236 5.236 0 0 1 795.382 176.081 A 4.049 4.049 0 0 1 796.371 175.418 A 4.872 4.872 0 0 1 797.767 175.01 A 6.305 6.305 0 0 1 798.656 174.949 A 5.963 5.963 0 0 1 800.341 175.174 A 4.407 4.407 0 0 1 802.6 176.695 Q 803.735 178.123 803.942 180.489 A 12.667 12.667 0 0 1 803.988 181.594 A 11.406 11.406 0 0 1 803.837 183.513 Q 803.526 185.331 802.576 186.51 A 4.605 4.605 0 0 1 799.303 188.231 A 6.598 6.598 0 0 1 798.656 188.262 A 5.901 5.901 0 0 1 797.173 188.081 A 5.134 5.134 0 0 1 796.365 187.799 A 4.309 4.309 0 0 1 794.625 186.375 Z M 775.617 186.422 L 775.617 187.91 Q 775.331 188.048 774.802 188.142 A 7.276 7.276 0 0 1 774.685 188.162 Q 774.111 188.255 773.644 188.261 A 4.987 4.987 0 0 1 773.578 188.262 A 5.081 5.081 0 0 1 772.081 188.06 Q 770.435 187.552 770.004 185.764 A 6.115 6.115 0 0 1 769.851 184.336 L 769.851 176.695 L 768.012 176.695 L 768.012 175.758 L 769.851 174.949 L 770.672 172.207 L 771.797 172.207 L 771.797 175.184 L 775.523 175.184 L 775.523 176.695 L 771.797 176.695 L 771.797 184.254 Q 771.797 185.069 772.069 185.618 A 1.887 1.887 0 0 0 772.348 186.035 A 1.807 1.807 0 0 0 773.458 186.627 A 2.6 2.6 0 0 0 773.859 186.656 A 6.389 6.389 0 0 0 774.795 186.589 A 5.888 5.888 0 0 0 774.855 186.58 Q 775.314 186.507 775.591 186.429 A 2.926 2.926 0 0 0 775.617 186.422 Z M 787.687 186.498 A 5.427 5.427 0 0 0 788.334 185.61 Q 789.269 184.009 789.269 181.594 Q 789.269 178.535 787.682 176.742 Q 786.094 174.949 783.398 174.949 A 7.555 7.555 0 0 0 782.041 175.066 A 5.145 5.145 0 0 0 779.039 176.701 Q 777.996 177.865 777.646 179.64 A 10.101 10.101 0 0 0 777.469 181.594 A 9.732 9.732 0 0 0 777.591 183.17 A 7.196 7.196 0 0 0 778.195 185.133 A 6.394 6.394 0 0 0 778.337 185.41 A 5.266 5.266 0 0 0 780.258 187.453 A 5.417 5.417 0 0 0 781.501 188.006 A 6.247 6.247 0 0 0 783.316 188.262 A 7.554 7.554 0 0 0 784.635 188.151 A 5.186 5.186 0 0 0 787.687 186.498 Z M 779.484 181.594 A 9.851 9.851 0 0 0 779.578 183.001 Q 779.681 183.715 779.899 184.294 A 4.081 4.081 0 0 0 780.469 185.344 A 3.188 3.188 0 0 0 782.545 186.567 A 4.831 4.831 0 0 0 783.363 186.633 A 4.518 4.518 0 0 0 784.555 186.485 A 3.145 3.145 0 0 0 786.264 185.35 Q 787 184.395 787.189 182.783 A 10.247 10.247 0 0 0 787.254 181.594 A 9.706 9.706 0 0 0 787.162 180.211 Q 787.06 179.507 786.846 178.936 A 4.005 4.005 0 0 0 786.264 177.873 A 3.2 3.2 0 0 0 784.274 176.686 A 4.906 4.906 0 0 0 783.34 176.602 A 4.63 4.63 0 0 0 782.187 176.737 A 3.098 3.098 0 0 0 780.457 177.855 Q 779.757 178.758 779.561 180.298 A 10.28 10.28 0 0 0 779.484 181.594 Z M 794.625 181.16 L 794.625 181.594 A 12.862 12.862 0 0 0 794.689 182.923 Q 794.828 184.264 795.276 185.081 A 2.934 2.934 0 0 0 795.527 185.467 A 2.822 2.822 0 0 0 796.959 186.433 Q 797.597 186.633 798.422 186.633 Q 800.086 186.633 801.029 185.285 Q 801.774 184.222 801.931 182.524 A 10.364 10.364 0 0 0 801.973 181.57 A 9.817 9.817 0 0 0 801.88 180.178 Q 801.678 178.767 801.029 177.885 A 3.026 3.026 0 0 0 798.816 176.624 A 4.185 4.185 0 0 0 798.375 176.602 Q 797.111 176.602 796.297 177.05 A 2.571 2.571 0 0 0 795.527 177.691 Q 794.704 178.712 794.631 180.862 A 12.38 12.38 0 0 0 794.625 181.16 Z" id="top_labelLayer" stroke="#777777" fill="#777777" style="stroke:#777777;fill:#777777" vector-effect="non-scaling-stroke"/><path d="M 0 152 L 0 159 L 3 159 L 3 165 L 0 165 L 0 171 L 3 171 L 3 177 L 0 177 L 0 183 L 3 183 L 3 189 L 0 189 L 0 195 L 0 196 L 7 196 L 7 193 L 13 193 L 13 196 L 19 196 L 19 193 L 25 193 L 25 196 L 31 196 L 31 193 L 37 193 L 37 196 L 43 196 L 43 193 L 49 193 L 49 196 L 55 196 L 55 193 L 61 193 L 61 196 L 67 196 L 67 193 L 73 193 L 73 196 L 79 196 L 79 193 L 85 193 L 85 196 L 91 196 L 91 193 L 97 193 L 97 196 L 103 196 L 103 193 L 109 193 L 109 196 L 115 196 L 115 193 L 121 193 L 121 196 L 127 196 L 127 193 L 133 193 L 133 196 L 139 196 L 139 193 L 145 193 L 145 196 L 151 196 L 151 193 L 157 193 L 157 196 L 163 196 L 163 193 L 169 193 L 169 196 L 175 196 L 175 193 L 181 193 L 181 196 L 187 196 L 187 193 L 193 193 L 193 196 L 199 196 L 199 193 L 205 193 L 205 196 L 211 196 L 211 193 L 217 193 L 217 196 L 223 196 L 223 193 L 229 193 L 229 196 L 235 196 L 235 193 L 241 193 L 241 196 L 247 196 L 247 193 L 253 193 L 253 196 L 259 196 L 259 193 L 265 193 L 265 196 L 271 196 L 271 193 L 277 193 L 277 196 L 283 196 L 283 193 L 289 193 L 289 196 L 295 196 L 295 193 L 301 193 L 301 196 L 307 196 L 307 193 L 313 193 L 313 196 L 319 196 L 319 193 L 325 193 L 325 196 L 331 196 L 331 193 L 337 193 L 337 196 L 343 196 L 343 193 L 349 193 L 349 196 L 355 196 L 355 193 L 361 193 L 361 196 L 367 196 L 367 193 L 373 193 L 373 196 L 379 196 L 379 193 L 385 193 L 385 196 L 391 196 L 391 193 L 397 193 L 397 196 L 403 196 L 403 193 L 409 193 L 409 196 L 415 196 L 415 193 L 421 193 L 421 196 L 427 196 L 427 193 L 433 193 L 433 196 L 439 196 L 440 196 L 440 189 L 437 189 L 437 183 L 440 183 L 440 177 L 437 177 L 437 171 L 440 171 L 440 165 L 437 165 L 437 159 L 440 159 L 440 153 L 440 152 L 433 152 L 433 155 L 427 155 L 427 152 L 421 152 L 421 155 L 415 155 L 415 152 L 409 152 L 409 155 L 403 155 L 403 152 L 397 152 L 397 155 L 391 155 L 391 152 L 385 152 L 385 155 L 379 155 L 379 152 L 373 152 L 373 155 L 367 155 L 367 152 L 361 152 L 361 155 L 355 155 L 355 152 L 349 152 L 349 155 L 343 155 L 343 152 L 337 152 L 337 155 L 331 155 L 331 152 L 325 152 L 325 155 L 319 155 L 319 152 L 313 152 L 313 155 L 307 155 L 307 152 L 301 152 L 301 155 L 295 155 L 295 152 L 289 152 L 289 155 L 283 155 L 283 152 L 277 152 L 277 155 L 271 155 L 271 152 L 265 152 L 265 155 L 259 155 L 259 152 L 253 152 L 253 155 L 247 155 L 247 152 L 241 152 L 241 155 L 235 155 L 235 152 L 229 152 L 229 155 L 223 155 L 223 152 L 217 152 L 217 155 L 211 155 L 211 152 L 205 152 L 205 155 L 199 155 L 199 152 L 193 152 L 193 155 L 187 155 L 187 152 L 181 152 L 181 155 L 175 155 L 175 152 L 169 152 L 169 155 L 163 155 L 163 152 L 157 152 L 157 155 L 151 155 L 151 152 L 145 152 L 145 155 L 139 155 L 139 152 L 133 152 L 133 155 L 127 155 L 127 152 L 121 152 L 121 155 L 115 155 L 115 152 L 109 152 L 109 155 L 103 155 L 103 152 L 97 152 L 97 155 L 91 155 L 91 152 L 85 152 L 85 155 L 79 155 L 79 152 L 73 152 L 73 155 L 67 155 L 67 152 L 61 152 L 61 155 L 55 155 L 55 152 L 49 152 L 49 155 L 43 155 L 43 152 L 37 152 L 37 155 L 31 155 L 31 152 L 25 152 L 25 155 L 19 155 L 19 152 L 13 152 L 13 155 L 7 155 L 7 152 L 1 152 L 0 152 Z" id="back_outsideCutPath" stroke="#FF0000" stroke-width="0.1" style="stroke:#FF0000;stroke-width:0.1" vector-effect="non-scaling-stroke"/><path d="M 226.024 174.889 L 226.059 174.889 Q 226.2 174.689 226.455 174.392 A 15.325 15.325 0 0 1 226.621 174.202 L 228.143 172.591 L 228.989 172.591 L 227.081 174.597 L 229.122 177.3 L 228.259 177.3 L 226.596 175.074 L 226.059 175.538 L 226.059 177.3 L 225.354 177.3 L 225.354 170.614 L 226.059 170.614 L 226.059 174.159 A 4.753 4.753 0 0 1 226.056 174.293 Q 226.05 174.519 226.024 174.889 Z M 211.591 176.694 L 211.539 176.694 L 211.389 177.3 L 210.878 177.3 L 210.878 170.614 L 211.591 170.614 L 211.591 172.238 Q 211.591 172.784 211.557 173.218 L 211.591 173.218 A 1.622 1.622 0 0 1 212.775 172.53 A 2.436 2.436 0 0 1 213.069 172.513 Q 213.997 172.513 214.511 173.147 Q 214.922 173.655 215.004 174.5 A 4.578 4.578 0 0 1 215.024 174.941 A 4.182 4.182 0 0 1 214.969 175.645 Q 214.855 176.311 214.506 176.744 A 1.689 1.689 0 0 1 213.306 177.375 A 2.419 2.419 0 0 1 213.069 177.386 A 2.164 2.164 0 0 1 212.525 177.32 A 1.882 1.882 0 0 1 212.229 177.216 A 1.58 1.58 0 0 1 211.591 176.694 Z M 219.695 177.3 L 219.166 177.3 L 219.025 176.63 L 218.99 176.63 Q 218.741 176.942 218.494 177.112 A 1.314 1.314 0 0 1 218.288 177.229 A 1.645 1.645 0 0 1 217.948 177.336 Q 217.783 177.37 217.592 177.381 A 3.21 3.21 0 0 1 217.413 177.386 A 2.189 2.189 0 0 1 216.968 177.343 Q 216.576 177.262 216.315 177.025 A 1.172 1.172 0 0 1 215.962 176.407 A 1.795 1.795 0 0 1 215.918 175.998 A 1.234 1.234 0 0 1 216.62 174.833 Q 217.143 174.555 218.055 174.509 A 6.968 6.968 0 0 1 218.2 174.503 L 218.999 174.477 L 218.999 174.185 Q 218.999 173.63 218.76 173.366 Q 218.57 173.155 218.198 173.113 A 1.762 1.762 0 0 0 217.998 173.102 A 2.322 2.322 0 0 0 217.463 173.169 Q 217.218 173.227 216.951 173.335 A 4.777 4.777 0 0 0 216.666 173.463 L 216.446 172.917 Q 216.795 172.728 217.209 172.621 A 3.303 3.303 0 0 1 218.041 172.513 Q 218.567 172.513 218.923 172.659 A 1.214 1.214 0 0 1 219.289 172.887 A 1.13 1.13 0 0 1 219.58 173.337 Q 219.695 173.648 219.695 174.086 L 219.695 177.3 Z M 224.305 172.75 L 224.086 173.355 A 3.173 3.173 0 0 0 223.742 173.241 A 3.79 3.79 0 0 0 223.571 173.199 A 2.946 2.946 0 0 0 223.347 173.157 Q 223.237 173.141 223.14 173.138 A 1.581 1.581 0 0 0 223.077 173.136 A 1.582 1.582 0 0 0 222.434 173.257 Q 221.761 173.554 221.659 174.58 A 3.941 3.941 0 0 0 221.641 174.967 A 3.454 3.454 0 0 0 221.676 175.47 Q 221.713 175.725 221.792 175.932 A 1.479 1.479 0 0 0 221.992 176.299 A 1.133 1.133 0 0 0 222.726 176.737 A 1.726 1.726 0 0 0 223.029 176.763 A 2.986 2.986 0 0 0 223.853 176.643 A 3.687 3.687 0 0 0 224.237 176.509 L 224.237 177.141 A 2.029 2.029 0 0 1 223.74 177.317 Q 223.511 177.367 223.244 177.381 A 3.912 3.912 0 0 1 223.046 177.386 A 2.666 2.666 0 0 1 222.398 177.312 A 1.808 1.808 0 0 1 221.463 176.756 A 2.063 2.063 0 0 1 221.034 175.968 Q 220.939 175.656 220.913 175.279 A 4.313 4.313 0 0 1 220.902 174.975 Q 220.902 173.794 221.472 173.149 A 1.847 1.847 0 0 1 222.483 172.568 A 2.8 2.8 0 0 1 223.094 172.505 A 3.219 3.219 0 0 1 223.773 172.578 Q 224.108 172.65 224.301 172.747 A 1.058 1.058 0 0 1 224.305 172.75 Z M 212.966 173.11 A 2.004 2.004 0 0 0 212.578 173.146 Q 212.142 173.232 211.913 173.529 A 1.221 1.221 0 0 0 211.736 173.866 Q 211.617 174.2 211.596 174.708 A 5.495 5.495 0 0 0 211.591 174.941 A 4.716 4.716 0 0 0 211.614 175.428 Q 211.666 175.92 211.83 176.219 A 1.076 1.076 0 0 0 211.922 176.361 Q 212.218 176.744 212.836 176.784 A 2.294 2.294 0 0 0 212.983 176.789 A 1.422 1.422 0 0 0 213.387 176.735 A 1.026 1.026 0 0 0 213.963 176.31 A 1.637 1.637 0 0 0 214.165 175.871 Q 214.229 175.663 214.259 175.411 A 4.087 4.087 0 0 0 214.285 174.932 A 4.214 4.214 0 0 0 214.26 174.452 Q 214.199 173.927 213.996 173.61 A 1.183 1.183 0 0 0 213.963 173.562 A 1.04 1.04 0 0 0 213.301 173.143 A 1.65 1.65 0 0 0 212.966 173.11 Z M 218.982 175.409 L 218.982 174.984 L 218.268 175.014 A 5.237 5.237 0 0 0 217.85 175.044 Q 217.318 175.106 217.042 175.278 A 0.761 0.761 0 0 0 216.679 175.83 A 1.127 1.127 0 0 0 216.666 176.007 A 1.019 1.019 0 0 0 216.691 176.24 Q 216.733 176.42 216.847 176.544 A 0.635 0.635 0 0 0 216.9 176.595 A 0.776 0.776 0 0 0 217.191 176.75 Q 217.306 176.784 217.444 176.793 A 1.604 1.604 0 0 0 217.555 176.797 Q 218.131 176.797 218.493 176.524 A 1.191 1.191 0 0 0 218.601 176.432 A 1.195 1.195 0 0 0 218.935 175.835 Q 218.981 175.643 218.982 175.417 A 2.24 2.24 0 0 0 218.982 175.409 Z" id="back_labelLayer" stroke="#777777" fill="#777777" style="stroke:#777777;fill:#777777" vector-effect="non-scaling-stroke"/><path d="M 446 152 L 446 159 L 443 159 L 443 165 L 446 165 L 446 171 L 443 171 L 443 177 L 446 177 L 446 183 L 443 183 L 443 189 L 446 189 L 446 195 L 446 196 L 446 193 L 452 193 L 452 196 L 458 196 L 458 193 L 464 193 L 464 196 L 470 196 L 470 193 L 476 193 L 476 196 L 482 196 L 482 193 L 488 193 L 488 196 L 494 196 L 494 193 L 500 193 L 500 196 L 506 196 L 506 193 L 512 193 L 512 196 L 518 196 L 518 193 L 524 193 L 524 196 L 530 196 L 530 193 L 536 193 L 536 196 L 542 196 L 542 193 L 548 193 L 548 196 L 554 196 L 554 193 L 560 193 L 560 196 L 560 189 L 563 189 L 563 183 L 560 183 L 560 177 L 563 177 L 563 171 L 560 171 L 560 165 L 563 165 L 563 159 L 560 159 L 560 153 L 560 152 L 560 155 L 554 155 L 554 152 L 548 152 L 548 155 L 542 155 L 542 152 L 536 152 L 536 155 L 530 155 L 530 152 L 524 152 L 524 155 L 518 155 L 518 152 L 512 152 L 512 155 L 506 155 L 506 152 L 500 152 L 500 155 L 494 155 L 494 152 L 488 152 L 488 155 L 482 155 L 482 152 L 476 152 L 476 155 L 470 155 L 470 152 L 464 152 L 464 155 L 458 155 L 458 152 L 452 152 L 452 155 L 446 155 L 446 152 Z" id="right_outsideCutPath" stroke="#FF0000" stroke-width="0.1" style="stroke:#FF0000;stroke-width:0.1" vector-effect="non-scaling-stroke"/><path d="M 508.472 176.286 L 507.759 176.286 L 507.759 173.239 A 2.016 2.016 0 0 0 507.736 172.923 Q 507.681 172.579 507.497 172.38 A 0.804 0.804 0 0 0 507.167 172.17 Q 507.037 172.124 506.878 172.107 A 1.891 1.891 0 0 0 506.676 172.096 A 2.159 2.159 0 0 0 506.272 172.132 Q 506.049 172.174 505.876 172.269 A 0.999 0.999 0 0 0 505.591 172.5 A 1.187 1.187 0 0 0 505.39 172.857 Q 505.268 173.184 505.252 173.67 A 4.604 4.604 0 0 0 505.249 173.824 L 505.249 176.286 L 504.536 176.286 L 504.536 169.6 L 505.249 169.6 L 505.249 171.624 A 6.416 6.416 0 0 1 505.245 171.87 Q 505.237 172.076 505.215 172.23 L 505.258 172.23 Q 505.469 171.89 505.857 171.695 Q 506.246 171.499 506.745 171.499 A 2.894 2.894 0 0 1 507.231 171.537 Q 507.74 171.624 508.04 171.91 A 1.242 1.242 0 0 1 508.347 172.391 Q 508.472 172.732 508.472 173.214 L 508.472 176.286 Z M 501.941 171.577 L 503.569 171.577 L 503.569 172.028 L 502.697 172.131 A 1.159 1.159 0 0 1 502.797 172.28 Q 502.841 172.357 502.881 172.449 A 2.199 2.199 0 0 1 502.912 172.524 A 1.372 1.372 0 0 1 502.993 172.852 A 1.762 1.762 0 0 1 503.006 173.072 A 1.635 1.635 0 0 1 502.931 173.579 A 1.323 1.323 0 0 1 502.534 174.176 Q 502.061 174.589 501.236 174.589 A 2.292 2.292 0 0 1 500.971 174.574 A 1.936 1.936 0 0 1 500.841 174.554 A 1.269 1.269 0 0 0 500.636 174.687 Q 500.53 174.772 500.469 174.87 A 0.537 0.537 0 0 0 500.385 175.16 Q 500.385 175.348 500.535 175.44 A 0.396 0.396 0 0 0 500.544 175.446 A 0.5 0.5 0 0 0 500.655 175.492 Q 500.771 175.525 500.948 175.535 A 2.713 2.713 0 0 0 501.09 175.538 L 501.924 175.538 Q 502.434 175.538 502.786 175.682 A 1.289 1.289 0 0 1 503.099 175.861 A 1.044 1.044 0 0 1 503.487 176.525 A 1.567 1.567 0 0 1 503.509 176.797 A 1.544 1.544 0 0 1 503.421 177.331 Q 503.274 177.733 502.882 177.99 Q 502.254 178.4 501.051 178.4 A 3.996 3.996 0 0 1 500.515 178.366 Q 499.971 178.293 499.627 178.056 Q 499.159 177.735 499.128 177.165 A 1.506 1.506 0 0 1 499.126 177.085 Q 499.126 176.655 499.401 176.342 A 1.245 1.245 0 0 1 499.829 176.03 A 1.765 1.765 0 0 1 500.175 175.916 A 0.74 0.74 0 0 1 499.887 175.684 A 0.879 0.879 0 0 1 499.872 175.663 A 0.661 0.661 0 0 1 499.75 175.305 A 0.819 0.819 0 0 1 499.749 175.263 Q 499.749 175.005 499.887 174.812 A 1.021 1.021 0 0 1 500.022 174.66 Q 500.143 174.547 500.321 174.438 A 1.25 1.25 0 0 1 499.778 174.003 A 1.55 1.55 0 0 1 499.726 173.927 A 1.475 1.475 0 0 1 499.499 173.216 A 1.8 1.8 0 0 1 499.496 173.102 A 2.061 2.061 0 0 1 499.55 172.615 A 1.356 1.356 0 0 1 499.96 171.91 A 1.515 1.515 0 0 1 500.541 171.589 Q 500.772 171.518 501.05 171.498 A 3.15 3.15 0 0 1 501.275 171.491 A 2.734 2.734 0 0 1 501.636 171.513 A 2.082 2.082 0 0 1 501.941 171.577 Z M 512.103 175.697 L 512.103 176.243 A 0.702 0.702 0 0 1 512.02 176.276 Q 511.931 176.305 511.804 176.328 A 2.667 2.667 0 0 1 511.761 176.335 A 3.092 3.092 0 0 1 511.56 176.362 Q 511.451 176.372 511.355 176.372 Q 509.989 176.372 509.989 174.932 L 509.989 172.131 L 509.314 172.131 L 509.314 171.787 L 509.989 171.491 L 510.29 170.485 L 510.702 170.485 L 510.702 171.577 L 512.069 171.577 L 512.069 172.131 L 510.702 172.131 L 510.702 174.902 A 1.436 1.436 0 0 0 510.723 175.155 Q 510.767 175.401 510.904 175.555 A 0.663 0.663 0 0 0 511.311 175.772 A 0.953 0.953 0 0 0 511.458 175.783 A 2.343 2.343 0 0 0 511.802 175.759 A 2.157 2.157 0 0 0 511.824 175.755 Q 511.992 175.729 512.093 175.7 A 1.074 1.074 0 0 0 512.103 175.697 Z M 496.608 171.542 L 496.51 172.204 A 3.144 3.144 0 0 0 496.284 172.162 Q 496.127 172.139 495.994 172.139 A 1.236 1.236 0 0 0 495.081 172.534 A 1.691 1.691 0 0 0 495.016 172.603 A 1.629 1.629 0 0 0 494.623 173.518 A 2.165 2.165 0 0 0 494.61 173.759 L 494.61 176.286 L 493.897 176.286 L 493.897 171.577 L 494.486 171.577 L 494.567 172.449 L 494.602 172.449 A 2.409 2.409 0 0 1 494.871 172.064 A 1.84 1.84 0 0 1 495.233 171.74 A 1.422 1.422 0 0 1 496.046 171.491 A 3.275 3.275 0 0 1 496.339 171.503 A 2.39 2.39 0 0 1 496.608 171.542 Z M 498.203 171.577 L 498.203 176.286 L 497.489 176.286 L 497.489 171.577 L 498.203 171.577 Z M 501.696 176.178 L 500.841 176.178 A 1.64 1.64 0 0 0 500.545 176.203 Q 500.378 176.234 500.245 176.303 A 0.835 0.835 0 0 0 500.085 176.411 Q 499.814 176.643 499.814 177.077 A 0.716 0.716 0 0 0 499.861 177.342 Q 499.929 177.514 500.094 177.629 A 0.837 0.837 0 0 0 500.136 177.657 Q 500.458 177.854 501.06 177.854 A 4.795 4.795 0 0 0 501.528 177.833 Q 501.998 177.787 502.292 177.64 A 1.185 1.185 0 0 0 502.39 177.586 A 1.04 1.04 0 0 0 502.631 177.384 A 0.78 0.78 0 0 0 502.822 176.857 Q 502.822 176.475 502.585 176.327 A 0.677 0.677 0 0 0 502.425 176.257 Q 502.254 176.204 501.984 176.187 A 4.539 4.539 0 0 0 501.696 176.178 Z M 500.201 173.085 A 1.392 1.392 0 0 0 500.229 173.377 Q 500.268 173.558 500.36 173.693 A 0.763 0.763 0 0 0 500.48 173.832 Q 500.731 174.061 501.161 174.083 A 1.837 1.837 0 0 0 501.258 174.086 A 1.554 1.554 0 0 0 501.664 174.037 Q 502.13 173.911 502.255 173.454 A 1.445 1.445 0 0 0 502.302 173.072 Q 502.302 172.23 501.636 172.056 A 1.551 1.551 0 0 0 501.245 172.011 Q 500.859 172.011 500.61 172.17 A 0.821 0.821 0 0 0 500.471 172.281 Q 500.242 172.511 500.207 172.929 A 1.876 1.876 0 0 0 500.201 173.085 Z M 497.549 169.942 A 0.334 0.334 0 0 0 497.476 170.046 Q 497.429 170.148 497.429 170.3 A 0.842 0.842 0 0 0 497.433 170.381 Q 497.45 170.562 497.549 170.659 A 0.4 0.4 0 0 0 497.694 170.751 A 0.453 0.453 0 0 0 497.85 170.777 A 0.416 0.416 0 0 0 498.147 170.659 Q 498.271 170.541 498.271 170.3 Q 498.271 170.06 498.147 169.944 A 0.42 0.42 0 0 0 497.85 169.828 A 0.544 0.544 0 0 0 497.814 169.829 A 0.412 0.412 0 0 0 497.549 169.942 Z" id="right_labelLayer" stroke="#777777" fill="#777777" style="stroke:#777777;fill:#777777" vector-effect="non-scaling-stroke"/><path d="M 569 3 L 566 3 L 566 9 L 569 9 L 569 15 L 566 15 L 566 21 L 569 21 L 569 27 L 566 27 L 566 33 L 569 33 L 569 39 L 566 39 L 566 45 L 569 45 L 569 51 L 566 51 L 566 57 L 569 57 L 569 63 L 566 63 L 566 69 L 569 69 L 569 75 L 566 75 L 566 81 L 569 81 L 569 87 L 566 87 L 566 93 L 569 93 L 569 99 L 566 99 L 566 105 L 569 105 L 569 111 L 566 111 L 566 117 L 569 117 L 573 117 L 573 120 L 579 120 L 579 117 L 585 117 L 585 120 L 591 120 L 591 117 L 597 117 L 597 120 L 603 120 L 603 117 L 609 117 L 609 120 L 615 120 L 615 117 L 621 117 L 621 120 L 627 120 L 627 117 L 633 117 L 633 120 L 639 120 L 639 117 L 645 117 L 645 120 L 651 120 L 651 117 L 657 117 L 657 120 L 663 120 L 663 117 L 669 117 L 669 120 L 675 120 L 675 117 L 681 117 L 681 120 L 687 120 L 687 117 L 693 117 L 693 120 L 699 120 L 699 117 L 705 117 L 705 120 L 711 120 L 711 117 L 717 117 L 717 120 L 723 120 L 723 117 L 729 117 L 729 120 L 735 120 L 735 117 L 741 117 L 741 120 L 747 120 L 747 117 L 753 117 L 753 120 L 759 120 L 759 117 L 765 117 L 765 120 L 771 120 L 771 117 L 777 117 L 777 120 L 783 120 L 783 117 L 789 117 L 789 120 L 795 120 L 795 117 L 801 117 L 801 120 L 807 120 L 807 117 L 813 117 L 813 120 L 819 120 L 819 117 L 825 117 L 825 120 L 831 120 L 831 117 L 837 117 L 837 120 L 843 120 L 843 117 L 849 117 L 849 120 L 855 120 L 855 117 L 861 117 L 861 120 L 867 120 L 867 117 L 873 117 L 873 120 L 879 120 L 879 117 L 885 117 L 885 120 L 891 120 L 891 117 L 897 117 L 897 120 L 903 120 L 903 117 L 909 117 L 909 120 L 915 120 L 915 117 L 921 117 L 921 120 L 927 120 L 927 117 L 933 117 L 933 120 L 939 120 L 939 117 L 945 117 L 945 120 L 951 120 L 951 117 L 957 117 L 957 120 L 963 120 L 963 117 L 969 117 L 969 120 L 975 120 L 975 117 L 981 117 L 981 120 L 987 120 L 987 117 L 993 117 L 993 120 L 999 120 L 999 117 L 1005 117 L 1003 117 L 1006 117 L 1006 111 L 1003 111 L 1003 105 L 1006 105 L 1006 99 L 1003 99 L 1003 93 L 1006 93 L 1006 87 L 1003 87 L 1003 81 L 1006 81 L 1006 75 L 1003 75 L 1003 69 L 1006 69 L 1006 63 L 1003 63 L 1003 57 L 1006 57 L 1006 51 L 1003 51 L 1003 45 L 1006 45 L 1006 39 L 1003 39 L 1003 33 L 1006 33 L 1006 27 L 1003 27 L 1003 21 L 1006 21 L 1006 15 L 1003 15 L 1003 9 L 1006 9 L 1006 3 L 1003 3 L 999 3 L 999 0 L 993 0 L 993 3 L 987 3 L 987 0 L 981 0 L 981 3 L 975 3 L 975 0 L 969 0 L 969 3 L 963 3 L 963 0 L 957 0 L 957 3 L 951 3 L 951 0 L 945 0 L 945 3 L 939 3 L 939 0 L 933 0 L 933 3 L 927 3 L 927 0 L 921 0 L 921 3 L 915 3 L 915 0 L 909 0 L 909 3 L 903 3 L 903 0 L 897 0 L 897 3 L 891 3 L 891 0 L 885 0 L 885 3 L 879 3 L 879 0 L 873 0 L 873 3 L 867 3 L 867 0 L 861 0 L 861 3 L 855 3 L 855 0 L 849 0 L 849 3 L 843 3 L 843 0 L 837 0 L 837 3 L 831 3 L 831 0 L 825 0 L 825 3 L 819 3 L 819 0 L 813 0 L 813 3 L 807 3 L 807 0 L 801 0 L 801 3 L 795 3 L 795 0 L 789 0 L 789 3 L 783 3 L 783 0 L 777 0 L 777 3 L 771 3 L 771 0 L 765 0 L 765 3 L 759 3 L 759 0 L 753 0 L 753 3 L 747 3 L 747 0 L 741 0 L 741 3 L 735 3 L 735 0 L 729 0 L 729 3 L 723 3 L 723 0 L 717 0 L 717 3 L 711 3 L 711 0 L 705 0 L 705 3 L 699 3 L 699 0 L 693 0 L 693 3 L 687 3 L 687 0 L 681 0 L 681 3 L 675 3 L 675 0 L 669 0 L 669 3 L 663 3 L 663 0 L 657 0 L 657 3 L 651 3 L 651 0 L 645 0 L 645 3 L 639 3 L 639 0 L 633 0 L 633 3 L 627 3 L 627 0 L 621 0 L 621 3 L 615 3 L 615 0 L 609 0 L 609 3 L 603 3 L 603 0 L 597 0 L 597 3 L 591 3 L 591 0 L 585 0 L 585 3 L 579 3 L 579 0 L 573 0 L 573 3 L 567 3 L 569 3 Z" id="bottom_outsideCutPath" stroke="#FF0000" stroke-width="0.1" style="stroke:#FF0000;stroke-width:0.1" vector-effect="non-scaling-stroke"/><path d="M 825.48 69 L 823.535 69 L 823.535 60.644 Q 823.535 59.109 822.879 58.341 A 2.047 2.047 0 0 0 821.927 57.726 Q 821.588 57.617 821.175 57.586 A 4.516 4.516 0 0 0 820.84 57.574 Q 819.566 57.574 818.759 58.087 A 2.576 2.576 0 0 0 818.156 58.617 Q 817.293 59.655 817.289 61.808 A 10.827 10.827 0 0 0 817.289 61.828 L 817.289 69 L 815.344 69 L 815.344 60.644 Q 815.344 59.109 814.687 58.341 A 2.041 2.041 0 0 0 813.749 57.732 Q 813.269 57.574 812.637 57.574 A 4.832 4.832 0 0 0 811.637 57.67 Q 810.556 57.899 809.959 58.67 A 3.262 3.262 0 0 0 809.475 59.588 Q 809.162 60.476 809.117 61.806 A 13.544 13.544 0 0 0 809.109 62.261 L 809.109 69 L 807.164 69 L 807.164 56.156 L 808.746 56.156 L 809.062 57.914 L 809.156 57.914 Q 809.707 56.976 810.709 56.449 A 4.618 4.618 0 0 1 812.533 55.937 A 5.578 5.578 0 0 1 812.953 55.922 A 6.369 6.369 0 0 1 814.387 56.071 Q 815.268 56.275 815.883 56.758 A 3.321 3.321 0 0 1 816.891 58.101 L 816.984 58.101 A 4.062 4.062 0 0 1 818.514 56.582 A 4.88 4.88 0 0 1 818.648 56.508 A 4.924 4.924 0 0 1 820.455 55.958 A 6.139 6.139 0 0 1 821.133 55.922 A 6.762 6.762 0 0 1 822.359 56.025 Q 823.041 56.151 823.573 56.43 A 3.206 3.206 0 0 1 824.396 57.041 Q 825.48 58.16 825.48 60.621 L 825.48 69 Z M 748.465 67.347 L 748.324 67.347 L 747.914 69 L 746.519 69 L 746.519 50.765 L 748.465 50.765 L 748.465 55.195 A 40.558 40.558 0 0 1 748.443 56.565 Q 748.421 57.213 748.377 57.79 A 24.315 24.315 0 0 1 748.371 57.867 L 748.465 57.867 A 4.423 4.423 0 0 1 751.693 55.992 A 6.644 6.644 0 0 1 752.496 55.945 A 5.946 5.946 0 0 1 754.169 56.168 A 4.451 4.451 0 0 1 756.428 57.674 Q 757.549 59.058 757.772 61.362 A 12.486 12.486 0 0 1 757.828 62.566 A 11.406 11.406 0 0 1 757.677 64.485 Q 757.366 66.303 756.416 67.482 A 4.605 4.605 0 0 1 753.143 69.203 A 6.598 6.598 0 0 1 752.496 69.234 A 5.901 5.901 0 0 1 751.013 69.053 A 5.134 5.134 0 0 1 750.205 68.771 A 4.309 4.309 0 0 1 748.465 67.347 Z M 781.629 67.394 L 781.629 68.883 Q 781.343 69.02 780.813 69.115 A 7.276 7.276 0 0 1 780.697 69.134 Q 780.123 69.227 779.656 69.234 A 4.987 4.987 0 0 1 779.59 69.234 A 5.081 5.081 0 0 1 778.092 69.033 Q 776.447 68.525 776.016 66.737 A 6.115 6.115 0 0 1 775.863 65.308 L 775.863 57.668 L 774.023 57.668 L 774.023 56.73 L 775.863 55.922 L 776.684 53.179 L 777.809 53.179 L 777.809 56.156 L 781.535 56.156 L 781.535 57.668 L 777.809 57.668 L 777.809 65.226 Q 777.809 66.041 778.08 66.59 A 1.887 1.887 0 0 0 778.359 67.008 A 1.807 1.807 0 0 0 779.47 67.599 A 2.6 2.6 0 0 0 779.871 67.629 A 6.389 6.389 0 0 0 780.807 67.562 A 5.888 5.888 0 0 0 780.867 67.552 Q 781.326 67.48 781.603 67.402 A 2.926 2.926 0 0 0 781.629 67.394 Z M 790.102 67.394 L 790.102 68.883 Q 789.816 69.02 789.286 69.115 A 7.276 7.276 0 0 1 789.17 69.134 Q 788.595 69.227 788.128 69.234 A 4.987 4.987 0 0 1 788.062 69.234 A 5.081 5.081 0 0 1 786.565 69.033 Q 784.919 68.525 784.489 66.737 A 6.115 6.115 0 0 1 784.336 65.308 L 784.336 57.668 L 782.496 57.668 L 782.496 56.73 L 784.336 55.922 L 785.156 53.179 L 786.281 53.179 L 786.281 56.156 L 790.008 56.156 L 790.008 57.668 L 786.281 57.668 L 786.281 65.226 Q 786.281 66.041 786.553 66.59 A 1.887 1.887 0 0 0 786.832 67.008 A 1.807 1.807 0 0 0 787.943 67.599 A 2.6 2.6 0 0 0 788.344 67.629 A 6.389 6.389 0 0 0 789.28 67.562 A 5.888 5.888 0 0 0 789.34 67.552 Q 789.798 67.48 790.075 67.402 A 2.926 2.926 0 0 0 790.102 67.394 Z M 770.73 67.47 A 5.427 5.427 0 0 0 771.377 66.583 Q 772.312 64.982 772.312 62.566 Q 772.312 59.508 770.725 57.715 Q 769.137 55.922 766.441 55.922 A 7.555 7.555 0 0 0 765.084 56.038 A 5.145 5.145 0 0 0 762.082 57.674 Q 761.039 58.837 760.689 60.613 A 10.101 10.101 0 0 0 760.512 62.566 A 9.732 9.732 0 0 0 760.634 64.142 A 7.196 7.196 0 0 0 761.238 66.105 A 6.394 6.394 0 0 0 761.38 66.382 A 5.266 5.266 0 0 0 763.301 68.425 A 5.417 5.417 0 0 0 764.544 68.978 A 6.247 6.247 0 0 0 766.359 69.234 A 7.554 7.554 0 0 0 767.678 69.124 A 5.186 5.186 0 0 0 770.73 67.47 Z M 802.172 67.47 A 5.427 5.427 0 0 0 802.818 66.583 Q 803.754 64.982 803.754 62.566 Q 803.754 59.508 802.166 57.715 Q 800.578 55.922 797.883 55.922 A 7.555 7.555 0 0 0 796.526 56.038 A 5.145 5.145 0 0 0 793.523 57.674 Q 792.481 58.837 792.13 60.613 A 10.101 10.101 0 0 0 791.953 62.566 A 9.732 9.732 0 0 0 792.075 64.142 A 7.196 7.196 0 0 0 792.68 66.105 A 6.394 6.394 0 0 0 792.821 66.382 A 5.266 5.266 0 0 0 794.742 68.425 A 5.417 5.417 0 0 0 795.985 68.978 A 6.247 6.247 0 0 0 797.801 69.234 A 7.554 7.554 0 0 0 799.12 69.124 A 5.186 5.186 0 0 0 802.172 67.47 Z M 762.527 62.566 A 9.851 9.851 0 0 0 762.621 63.973 Q 762.724 64.688 762.942 65.266 A 4.081 4.081 0 0 0 763.512 66.316 A 3.188 3.188 0 0 0 765.588 67.539 A 4.831 4.831 0 0 0 766.406 67.605 A 4.518 4.518 0 0 0 767.598 67.457 A 3.145 3.145 0 0 0 769.307 66.322 Q 770.043 65.368 770.232 63.756 A 10.247 10.247 0 0 0 770.297 62.566 A 9.706 9.706 0 0 0 770.205 61.183 Q 770.103 60.479 769.889 59.908 A 4.005 4.005 0 0 0 769.307 58.845 A 3.2 3.2 0 0 0 767.317 57.658 A 4.906 4.906 0 0 0 766.383 57.574 A 4.63 4.63 0 0 0 765.23 57.709 A 3.098 3.098 0 0 0 763.5 58.828 Q 762.8 59.73 762.604 61.271 A 10.28 10.28 0 0 0 762.527 62.566 Z M 793.969 62.566 A 9.851 9.851 0 0 0 794.062 63.973 Q 794.166 64.688 794.383 65.266 A 4.081 4.081 0 0 0 794.953 66.316 A 3.188 3.188 0 0 0 797.03 67.539 A 4.831 4.831 0 0 0 797.848 67.605 A 4.518 4.518 0 0 0 799.04 67.457 A 3.145 3.145 0 0 0 800.748 66.322 Q 801.484 65.368 801.673 63.756 A 10.247 10.247 0 0 0 801.738 62.566 A 9.706 9.706 0 0 0 801.646 61.183 Q 801.545 60.479 801.331 59.908 A 4.005 4.005 0 0 0 800.748 58.845 A 3.2 3.2 0 0 0 798.758 57.658 A 4.906 4.906 0 0 0 797.824 57.574 A 4.63 4.63 0 0 0 796.672 57.709 A 3.098 3.098 0 0 0 794.941 58.828 Q 794.241 59.73 794.045 61.271 A 10.28 10.28 0 0 0 793.969 62.566 Z M 750.095 58.057 A 2.587 2.587 0 0 0 749.344 58.716 Q 748.465 59.859 748.465 62.566 A 12.862 12.862 0 0 0 748.528 63.895 Q 748.668 65.237 749.116 66.053 A 2.934 2.934 0 0 0 749.367 66.439 A 2.822 2.822 0 0 0 750.799 67.405 Q 751.437 67.605 752.262 67.605 A 3.878 3.878 0 0 0 753.363 67.458 A 2.798 2.798 0 0 0 754.934 66.299 A 4.466 4.466 0 0 0 755.486 65.103 Q 755.659 64.536 755.741 63.849 A 11.147 11.147 0 0 0 755.812 62.543 A 11.493 11.493 0 0 0 755.743 61.233 Q 755.565 59.689 754.934 58.804 A 2.837 2.837 0 0 0 753.127 57.661 A 4.499 4.499 0 0 0 752.215 57.574 Q 750.92 57.574 750.095 58.057 Z" id="bottom_labelLayer" stroke="#777777" fill="#777777" style="stroke:#777777;fill:#777777" vector-effect="non-scaling-stroke"/></g></svg>