<?xml version="1.0" encoding="UTF-8"?>
<!DOCTYPE svg PUBLIC "-//W3C//DTD SVG 1.1//EN" "http://www.w3.org/Graphics/SVG/1.1/DTD/svg11.dtd">
<!-- Creator: CorelDRAW Home & Student 2018 -->
<svg xmlns="http://www.w3.org/2000/svg" xml:space="preserve" width="610mm" height="305mm" version="1.1" style="shape-rendering:geometricPrecision; text-rendering:geometricPrecision; image-rendering:optimizeQuality; fill-rule:evenodd; clip-rule:evenodd"
viewBox="0 0 61000 30500"
 xmlns:xlink="http://www.w3.org/1999/xlink"
 xmlns:fpd="http://www.schaeffer-ag.de"
 xmlns:dc="http://purl.org/dc/elements/1.1/"
 xmlns:cc="http://creativecommons.org/ns#"
 xmlns:rdf="http://www.w3.org/1999/02/22-rdf-syntax-ns#"
 xmlns:svg="http://www.w3.org/2000/svg"
 xmlns:sodipodi="http://sodipodi.sourceforge.net/DTD/sodipodi-0.dtd"
 xmlns:inkscape="http://www.inkscape.org/namespaces/inkscape"
 sodipodi:docname="box-raw.svg"
 inkscape:version="0.92.3 (2405546, 2018-03-11)">
 <defs>
  <style type="text/css">
   <![CDATA[
    .str2 {stroke:red;stroke-width:7.62;stroke-miterlimit:22.9256}
    .str1 {stroke:#777777;stroke-width:7.62;stroke-linecap:round;stroke-miterlimit:22.9256}
    .str0 {stroke:red;stroke-width:7.62;stroke-linecap:round;stroke-miterlimit:22.9256}
    .str3 {stroke:red;stroke-width:7.62;stroke-linecap:round;stroke-linejoin:round;stroke-miterlimit:22.9256}
    .fil0 {fill:none}
    .fil1 {fill:#777777}
   ]]>
  </style>
 </defs>
 <g id="Layer_x0020_1">
  <metadata id="CorelCorpID_0Corel-Layer"/>
  <sodipodi:namedview pagecolor="#ffffff" bordercolor="#666666" borderopacity="1" objecttolerance="10" gridtolerance="10" guidetolerance="10" inkscape:pageopacity="0" inkscape:pageshadow="2" inkscape:window-width="1364" inkscape:window-height="694" id="namedview5550" showgrid="false" showguides="true" inkscape:guide-bbox="true" inkscape:zoom="1.0267727" inkscape:cx="236.33842" inkscape:cy="170.37696" inkscape:window-x="-5" inkscape:window-y="35" inkscape:window-maximized="0" inkscape:current-layer="svg5548">
   <sodipodi:guide position="0.569,21.898" orientation="0,1" id="guide6231" inkscape:locked="false" inkscape:label="" inkscape:color="rgb(0,0,255)"/>
   <sodipodi:guide position="6.92,69.012" orientation="0,1" id="guide6233" inkscape:locked="false" inkscape:label="" inkscape:color="rgb(0,0,255)"/>
   <sodipodi:guide position="33.718,24.861" orientation="1,0" id="guide6235" inkscape:locked="false" inkscape:label="" inkscape:color="rgb(0,0,255)"/>
   <sodipodi:guide position="19.907,82.567" orientation="1,0" id="guide6237" inkscape:locked="false" inkscape:label="" inkscape:color="rgb(0,0,255)"/>
  </sodipodi:namedview>
  <polygon id="front_outsideCutPath" class="fil0 str0" points="1146.24,5397.55 1146.24,6097.55 1446.24,6097.55 1446.24,6697.55 1146.24,6697.55 1146.24,7297.55 1446.24,7297.55 1446.24,7897.55 1146.24,7897.55 1146.24,8497.55 1446.24,8497.55 1446.24,9097.55 1146.24,9097.55 1146.24,9697.55 1146.24,9797.55 1846.24,9797.55 1846.24,9497.55 2446.24,9497.55 2446.24,9797.55 3046.24,9797.55 3046.24,9497.55 3646.24,9497.55 3646.24,9797.55 4246.24,9797.55 4246.24,9497.55 4846.24,9497.55 4846.24,9797.55 5446.24,9797.55 5446.24,9497.55 6046.24,9497.55 6046.24,9797.55 6646.24,9797.55 6646.24,9497.55 7246.24,9497.55 7246.24,9797.55 7846.24,9797.55 7846.24,9497.55 8446.24,9497.55 8446.24,9797.55 9046.24,9797.55 9046.24,9497.55 9646.24,9497.55 9646.24,9797.55 10246.24,9797.55 10246.24,9497.55 10846.24,9497.55 10846.24,9797.55 11446.24,9797.55 11446.24,9497.55 12046.24,9497.55 12046.24,9797.55 12646.24,9797.55 12646.24,9497.55 13246.24,9497.55 13246.24,9797.55 13846.24,9797.55 13846.24,9497.55 14446.24,9497.55 14446.24,9797.55 15046.24,9797.55 15046.24,9497.55 15646.24,9497.55 15646.24,9797.55 16246.24,9797.55 16246.24,9497.55 16846.24,9497.55 16846.24,9797.55 17446.24,9797.55 17446.24,9497.55 18046.24,9497.55 18046.24,9797.55 18646.24,9797.55 18646.24,9497.55 19246.24,9497.55 19246.24,9797.55 19846.24,9797.55 19846.24,9497.55 20446.24,9497.55 20446.24,9797.55 21046.24,9797.55 21046.24,9497.55 21646.24,9497.55 21646.24,9797.55 22246.24,9797.55 22246.24,9497.55 22846.24,9497.55 22846.24,9797.55 23446.24,9797.55 23446.24,9497.55 24046.24,9497.55 24046.24,9797.55 24646.24,9797.55 24646.24,9497.55 25246.24,9497.55 25246.24,9797.55 25846.24,9797.55 25846.24,9497.55 26446.24,9497.55 26446.24,9797.55 27046.24,9797.55 27046.24,9497.55 27646.24,9497.55 27646.24,9797.55 28246.24,9797.55 28246.24,9497.55 28846.24,9497.55 28846.24,9797.55 29446.24,9797.55 29446.24,9497.55 30046.24,9497.55 30046.24,9797.55 30646.24,9797.55 30646.24,9497.55 31246.24,9497.55 31246.24,9797.55 31846.24,9797.55 31846.24,9497.55 32446.24,9497.55 32446.24,9797.55 33046.24,9797.55 33046.24,9497.55 33646.24,9497.55 33646.24,9797.55 34246.24,9797.55 34246.24,9497.55 34846.24,9497.55 34846.24,9797.55 35446.24,9797.55 35446.24,9497.55 36046.24,9497.55 36046.24,9797.55 36646.24,9797.55 36646.24,9497.55 37246.24,9497.55 37246.24,9797.55 37846.24,9797.55 37846.24,9497.55 38446.24,9497.55 38446.24,9797.55 39046.24,9797.55 39046.24,9497.55 39646.24,9497.55 39646.24,9797.55 40246.24,9797.55 40246.24,9497.55 40846.24,9497.55 40846.24,9797.55 41446.24,9797.55 41446.24,9497.55 42046.24,9497.55 42046.24,9797.55 42646.24,9797.55 42646.24,9497.55 43246.24,9497.55 43246.24,9797.55 43846.24,9797.55 43846.24,9497.55 44446.24,9497.55 44446.24,9797.55 45046.24,9797.55 45146.24,9797.55 45146.24,9097.55 44846.24,9097.55 44846.24,8497.55 45146.24,8497.55 45146.24,7897.55 44846.24,7897.55 44846.24,7297.55 45146.24,7297.55 45146.24,6697.55 44846.24,6697.55 44846.24,6097.55 45146.24,6097.55 45146.24,5497.55 45146.24,5397.55 44446.24,5397.55 44446.24,5697.55 43846.24,5697.55 43846.24,5397.55 43246.24,5397.55 43246.24,5697.55 42646.24,5697.55 42646.24,5397.55 42046.24,5397.55 42046.24,5697.55 41446.24,5697.55 41446.24,5397.55 40846.24,5397.55 40846.24,5697.55 40246.24,5697.55 40246.24,5397.55 39646.24,5397.55 39646.24,5697.55 39046.24,5697.55 39046.24,5397.55 38446.24,5397.55 38446.24,5697.55 37846.24,5697.55 37846.24,5397.55 37246.24,5397.55 37246.24,5697.55 36646.24,5697.55 36646.24,5397.55 36046.24,5397.55 36046.24,5697.55 35446.24,5697.55 35446.24,5397.55 34846.24,5397.55 34846.24,5697.55 34246.24,5697.55 34246.24,5397.55 33646.24,5397.55 33646.24,5697.55 33046.24,5697.55 33046.24,5397.55 32446.24,5397.55 32446.24,5697.55 31846.24,5697.55 31846.24,5397.55 31246.24,5397.55 31246.24,5697.55 30646.24,5697.55 30646.24,5397.55 30046.24,5397.55 30046.24,5697.55 29446.24,5697.55 29446.24,5397.55 28846.24,5397.55 28846.24,5697.55 28246.24,5697.55 28246.24,5397.55 27646.24,5397.55 27646.24,5697.55 27046.24,5697.55 27046.24,5397.55 26446.24,5397.55 26446.24,5697.55 25846.24,5697.55 25846.24,5397.55 25246.24,5397.55 25246.24,5697.55 24646.24,5697.55 24646.24,5397.55 24046.24,5397.55 24046.24,5697.55 23446.24,5697.55 23446.24,5397.55 22846.24,5397.55 22846.24,5697.55 22246.24,5697.55 22246.24,5397.55 21646.24,5397.55 21646.24,5697.55 21046.24,5697.55 21046.24,5397.55 20446.24,5397.55 20446.24,5697.55 19846.24,5697.55 19846.24,5397.55 19246.24,5397.55 19246.24,5697.55 18646.24,5697.55 18646.24,5397.55 18046.24,5397.55 18046.24,5697.55 17446.24,5697.55 17446.24,5397.55 16846.24,5397.55 16846.24,5697.55 16246.24,5697.55 16246.24,5397.55 15646.24,5397.55 15646.24,5697.55 15046.24,5697.55 15046.24,5397.55 14446.24,5397.55 14446.24,5697.55 13846.24,5697.55 13846.24,5397.55 13246.24,5397.55 13246.24,5697.55 12646.24,5697.55 12646.24,5397.55 12046.24,5397.55 12046.24,5697.55 11446.24,5697.55 11446.24,5397.55 10846.24,5397.55 10846.24,5697.55 10246.24,5697.55 10246.24,5397.55 9646.24,5397.55 9646.24,5697.55 9046.24,5697.55 9046.24,5397.55 8446.24,5397.55 8446.24,5697.55 7846.24,5697.55 7846.24,5397.55 7246.24,5397.55 7246.24,5697.55 6646.24,5697.55 6646.24,5397.55 6046.24,5397.55 6046.24,5697.55 5446.24,5697.55 5446.24,5397.55 4846.24,5397.55 4846.24,5697.55 4246.24,5697.55 4246.24,5397.55 3646.24,5397.55 3646.24,5697.55 3046.24,5697.55 3046.24,5397.55 2446.24,5397.55 2446.24,5697.55 1846.24,5697.55 1846.24,5397.55 1246.24,5397.55 " vector-effect="non-scaling-stroke"/>
  <path id="front_labelLayer" class="fil1 str1" d="M23787.54 7929.95l-71.3 0 0 -304.7c0.01,-0.41 0.01,-0.83 0.01,-1.22 0,-10.16 -0.79,-20.35 -2.31,-30.4 -3.67,-22.92 -11.63,-41.01 -23.9,-54.28 -9.07,-9.64 -20.43,-16.91 -32.99,-21.11 -8.67,-2.99 -18.31,-5.09 -28.91,-6.29 -6.43,-0.66 -12.94,-1.01 -19.43,-1.01 -0.26,0 -0.51,0 -0.76,0 -0.52,-0.01 -1.12,-0.01 -1.65,-0.01 -13,0 -25.99,1.19 -38.75,3.51 -29.14,5.61 -51.78,17.78 -67.91,36.51 -8.73,10.5 -15.59,22.5 -20.19,35.39 -9.47,25.07 -14.21,57.24 -14.21,96.51l0 247.1 -71.3 0 0 -471 58 0 11.6 64.5 3.5 0c13.87,-21.93 33.4,-39.75 56.5,-51.51 1.59,-0.84 3.27,-1.71 4.9,-2.49 21.56,-10.3 44.9,-16.53 68.71,-18.32 6.43,-0.5 12.87,-0.79 19.32,-0.79 0,0 0.08,0 0.08,0 0.59,-0.01 1.17,-0.01 1.76,-0.01 15.44,0 30.94,1.31 46.14,3.82 33.53,5.8 60.22,18.23 80.09,37.3 13.54,13.19 23.91,29.35 30.22,47.18 4.79,13.01 8.21,27.59 10.28,43.72 1.63,13.03 2.51,26.22 2.51,39.37 0,0.3 0,0.61 0,0.91l-0.01 307.32zm-1370.3 -471l0 55.4 -119.8 0 0 415.6 -71.4 0 0 -415.6 -84.2 0 0 -32.2 84.2 -25.8 0 -26.2c0,-99.87 37.7,-156.63 113.1,-170.3 12.42,-2.17 25.07,-3.31 37.7,-3.31 0.29,0 0.61,0 0.9,0 10.86,0.06 21.8,0.93 32.51,2.5 10.53,1.54 21.66,3.74 33.39,6.61 7.31,1.8 14.63,3.83 21.79,5.97l-18.49 57.13c-19.53,-6.27 -37.03,-10.33 -52.5,-12.2 -5.95,-0.72 -11.98,-1.11 -17.99,-1.11 -0.33,0 -0.65,0 -0.97,0 -7.48,0 -14.96,0.88 -22.23,2.61 -14.72,3.36 -27.72,12.01 -36.5,24.3 -12.87,17.87 -19.31,46.57 -19.31,86.1l0 30.5 119.8 0zm1733.4 412.1l0 54.6c-2.67,1.26 -5.47,2.38 -8.29,3.3 -5.94,1.93 -13.14,3.67 -21.61,5.2 -1.39,0.23 -2.89,0.49 -4.29,0.68 -6.66,1.09 -13.38,1.95 -20.1,2.6 -7.27,0.68 -14.11,1.02 -20.51,1.02 -91.07,0 -136.6,-47.97 -136.6,-143.9l0 -280.2 -67.5 0 0 -34.3 67.5 -29.7 30.1 -100.5 41.2 0 0 109.1 136.7 0 0 55.4 -136.7 0 0 277.2c0.01,0.22 0.01,0.48 0.01,0.71 0,8.21 0.72,16.39 2.1,24.47 2.93,16.41 8.96,29.79 18.09,40.12 10.53,11.86 24.98,19.57 40.7,21.69 4.78,0.72 9.62,1.1 14.45,1.1 0.08,0 0.17,0 0.25,0 0.1,0 0.18,0 0.27,0 11.41,0 22.85,-0.83 34.12,-2.49 0.74,-0.1 1.5,-0.23 2.21,-0.31 11.2,-1.79 20.17,-3.62 26.9,-5.49 0.33,-0.1 0.7,-0.22 1.01,-0.31l-0.01 0.01zm-1376.3 -415.5l-9.9 66.2c-7.44,-1.66 -15.08,-3.08 -22.6,-4.19 -10.47,-1.54 -20.1,-2.31 -28.9,-2.31 -0.24,-0.01 -0.54,-0.01 -0.8,-0.01 -34.32,0 -67.12,14.29 -90.49,39.4 -2.2,2.25 -4.41,4.62 -6.49,7 -22.33,25.64 -36.09,57.66 -39.32,91.51 -0.84,7.85 -1.29,15.78 -1.29,23.68 0,0.13 0,0.26 0,0.4l-0.01 252.72 -71.3 0 0 -471 58.8 0 8.2 87.2 3.4 0c7.71,-13.63 16.8,-26.54 27,-38.42 10.56,-12.37 22.78,-23.33 36.21,-32.5 23.65,-16.19 51.71,-24.89 80.39,-24.89 0.26,0 0.55,0 0.81,0 0.03,0 0.11,0 0.15,0 9.71,0 19.47,0.48 29.15,1.32 9,0.75 18.14,2.1 27.01,3.88l-0.02 0.01zm488 310.1c4.37,-22.86 6.62,-46.16 6.62,-69.46 0,-0.67 0,-1.48 0,-2.16 -0.01,-3.77 -0.11,-7.65 -0.22,-11.38 -0.67,-26.13 -3.83,-50.3 -9.5,-72.5 -8.35,-34.76 -25.02,-67.05 -48.51,-94.01 -38.86,-43.86 -91.22,-65.79 -157.09,-65.79 -0.35,-0.01 -0.79,-0.01 -1.16,-0.01 -16.3,0 -32.6,1.45 -48.63,4.3 -42.39,6.87 -81.27,28.08 -110,59.99 -9.21,10.29 -17.34,21.55 -24.2,33.51 -22.27,38.81 -33.41,87.44 -33.41,145.91 0,49.53 8.87,92.77 26.6,129.7 1.65,3.39 3.42,6.86 5.23,10.18 16.25,30.87 40.58,56.78 70.38,74.91 14.26,8.63 29.66,15.49 45.61,20.29 20.97,6.16 42.76,9.32 64.63,9.32 0.64,0 1.31,0 1.96,0 0.45,-0.01 1,-0.01 1.47,-0.01 15.72,0 31.45,-1.35 46.94,-3.99 43.1,-6.73 82.66,-28.19 111.88,-60.6 25.67,-28.67 42.8,-64.73 51.4,-108.2zm-352.2 -71.6c0,0.65 0,1.44 0,2.1 0,16.54 1.15,33.12 3.39,49.48 2.54,17.41 6.48,33.22 11.81,47.42 5.04,13.77 12.1,26.77 20.91,38.5 18.52,24.27 45.86,40.39 76.09,44.78 9.6,1.59 19.35,2.41 29.09,2.41 0.3,0 0.63,0 0.93,0 0.57,0.01 1.13,0.01 1.7,0.01 14.16,0 28.3,-1.82 42,-5.4 24.92,-6.46 47.05,-21.15 62.69,-41.61 10.52,-14 18.6,-29.78 23.79,-46.5 4.67,-14.26 8.03,-30.12 10.1,-47.59 1.58,-14.03 2.41,-28.29 2.41,-42.42 0,-0.37 0,-0.83 0,-1.19 0,-0.52 0,-1.17 0,-1.69 0,-16.42 -1.13,-32.85 -3.39,-49.1 -2.48,-17.2 -6.35,-32.77 -11.62,-46.7 -5.06,-14.01 -12.27,-27.19 -21.29,-39.01 -18.03,-23.1 -44.11,-38.64 -73.01,-43.5 -10.95,-2.05 -22.1,-3.1 -33.26,-3.1 -0.31,0 -0.64,0 -0.95,0 -0.45,-0.01 -0.91,-0.01 -1.36,-0.01 -13.79,0 -27.55,1.68 -40.92,5 -25.17,6.05 -47.58,20.53 -63.41,41.01 -10.11,13.33 -17.91,28.36 -22.98,44.3 -4.48,13.54 -7.79,28.64 -9.92,45.31 -1.82,15.18 -2.79,30.55 -2.79,45.87 0,0.51 0,1.1 0,1.61l-0.01 0.02z" vector-effect="non-scaling-stroke"/>
  <polygon id="left_outsideCutPath" class="fil0 str0" points="45746.24,5397.55 45746.24,6097.55 45446.24,6097.55 45446.24,6697.55 45746.24,6697.55 45746.24,7297.55 45446.24,7297.55 45446.24,7897.55 45746.24,7897.55 45746.24,8497.55 45446.24,8497.55 45446.24,9097.55 45746.24,9097.55 45746.24,9697.55 45746.24,9797.55 45746.24,9497.55 46346.24,9497.55 46346.24,9797.55 46946.24,9797.55 46946.24,9497.55 47546.24,9497.55 47546.24,9797.55 48146.24,9797.55 48146.24,9497.55 48746.24,9497.55 48746.24,9797.55 49346.24,9797.55 49346.24,9497.55 49946.24,9497.55 49946.24,9797.55 50546.24,9797.55 50546.24,9497.55 51146.24,9497.55 51146.24,9797.55 51746.24,9797.55 51746.24,9497.55 52346.24,9497.55 52346.24,9797.55 52946.24,9797.55 52946.24,9497.55 53546.24,9497.55 53546.24,9797.55 54146.24,9797.55 54146.24,9497.55 54746.24,9497.55 54746.24,9797.55 55346.24,9797.55 55346.24,9497.55 55946.24,9497.55 55946.24,9797.55 56546.24,9797.55 56546.24,9497.55 57146.24,9497.55 57146.24,9797.55 57146.24,9097.55 57446.24,9097.55 57446.24,8497.55 57146.24,8497.55 57146.24,7897.55 57446.24,7897.55 57446.24,7297.55 57146.24,7297.55 57146.24,6697.55 57446.24,6697.55 57446.24,6097.55 57146.24,6097.55 57146.24,5497.55 57146.24,5397.55 57146.24,5697.55 56546.24,5697.55 56546.24,5397.55 55946.24,5397.55 55946.24,5697.55 55346.24,5697.55 55346.24,5397.55 54746.24,5397.55 54746.24,5697.55 54146.24,5697.55 54146.24,5397.55 53546.24,5397.55 53546.24,5697.55 52946.24,5697.55 52946.24,5397.55 52346.24,5397.55 52346.24,5697.55 51746.24,5697.55 51746.24,5397.55 51146.24,5397.55 51146.24,5697.55 50546.24,5697.55 50546.24,5397.55 49946.24,5397.55 49946.24,5697.55 49346.24,5697.55 49346.24,5397.55 48746.24,5397.55 48746.24,5697.55 48146.24,5697.55 48146.24,5397.55 47546.24,5397.55 47546.24,5697.55 46946.24,5697.55 46946.24,5397.55 46346.24,5397.55 46346.24,5697.55 45746.24,5697.55 " vector-effect="non-scaling-stroke"/>
  <path id="left_labelLayer" class="fil1 str1" d="M51759.24 7458.95l0 55.4 -119.9 0 0 415.6 -71.3 0 0 -415.6 -84.2 0 0 -32.2 84.2 -25.8 0 -26.2c0,-99.87 37.7,-156.63 113.1,-170.3 12.41,-2.17 25.06,-3.31 37.69,-3.31 0.29,0 0.61,0 0.9,0 10.86,0.06 21.8,0.93 32.51,2.5 10.53,1.54 21.67,3.74 33.4,6.61 7.3,1.8 14.63,3.83 21.78,5.97l-18.48 57.13c-19.53,-6.27 -37.07,-10.33 -52.6,-12.2 -5.92,-0.72 -11.92,-1.11 -17.89,-1.11 -0.33,0 -0.66,0 -0.98,0 -7.48,0 -14.96,0.88 -22.23,2.61 -14.72,3.36 -27.72,12.01 -36.5,24.3 -12.93,17.87 -19.4,46.57 -19.4,86.1l0 30.5 119.9 0zm-333.8 203.3l0 45.1 -324.5 0c1,37.73 7.83,69.27 20.5,94.6 5.62,11.38 12.84,21.95 21.41,31.3 18.21,19.45 42.02,32.85 68.11,38.29 13.87,3.05 28.06,4.61 42.28,4.61 0.53,0 1.08,0 1.61,0 48.4,-0.15 96.32,-9.67 141.11,-27.93 3.03,-1.2 6.3,-2.57 9.31,-3.89l-0.03 63.62c-12.7,5.54 -25.87,10.56 -39.1,14.79 -10.62,3.44 -21.57,6.39 -32.49,8.71 -9.79,1.97 -19.77,3.5 -29.71,4.49 -9.73,1.07 -20.13,1.81 -31.2,2.21 -6.18,0.15 -12.5,0.29 -18.74,0.29 -0.57,0 -1.21,0 -1.77,0 -0.75,0.01 -1.63,0.01 -2.41,0.01 -22.57,0 -45.08,-2.77 -66.97,-8.22 -36.4,-8.9 -69.57,-28.14 -95.41,-55.3 -24.26,-25.98 -41.58,-57.8 -50.19,-92.3 -5.81,-21.72 -9.14,-45.55 -10.01,-71.48 -0.09,-4.17 -0.19,-8.54 -0.19,-12.77 0,0 0,-0.05 0,-0.05 -0.01,-61.92 12.42,-113.45 37.29,-154.58 5.57,-9.2 11.91,-18.05 18.82,-26.3 32.93,-40.03 81.4,-64.25 133.2,-66.5 5.74,-0.39 11.58,-0.61 17.37,-0.61 0,0 0.03,0 0.03,0 0.65,-0.01 1.37,-0.01 2.03,-0.01 20,0 39.93,2.76 59.16,8.2 30.53,8.73 57.99,26.14 78.91,50.01 22.69,25.97 38.27,57.4 45.18,91.19 4.26,19.94 6.42,40.28 6.42,60.66 0,0.6 0,1.24 0,1.84l-0.02 0.02zm636.3 208.8l0 54.6c-2.68,1.26 -5.48,2.38 -8.3,3.3 -5.93,1.93 -13.13,3.67 -21.6,5.2 -1.37,0.24 -2.83,0.5 -4.2,0.69 -6.63,1.06 -13.46,1.96 -20.18,2.6 -7.28,0.67 -14.09,1.01 -20.42,1.01 -91.13,0 -136.7,-47.97 -136.7,-143.9l0 -280.2 -67.4 0 0 -34.3 67.4 -29.7 30.1 -100.5 41.2 0 0 109.1 136.7 0 0 55.4 -136.7 0 0 277.2c0,0.22 0,0.48 0,0.71 0,8.21 0.72,16.39 2.1,24.47 2.93,16.41 8.97,29.79 18.1,40.12 10.55,11.87 25.05,19.58 40.8,21.69 4.77,0.72 9.61,1.1 14.44,1.1 0.08,0 0.17,0 0.26,0 0.02,0 0.13,0 0.16,0 11.41,0 22.86,-0.83 34.13,-2.49 0.73,-0.1 1.49,-0.23 2.2,-0.31 11.21,-1.79 20.21,-3.62 27.01,-5.49 0.29,-0.1 0.62,-0.22 0.91,-0.31l-0.01 0.01zm-1159.7 -609.7l0 668.6 -71.3 0 0 -668.6 71.3 0zm200.7 388l246.2 0c0.01,-0.34 0.01,-0.69 0.01,-1.02 0,-12.73 -1.01,-25.52 -3,-38.08 -4.27,-26.4 -13.31,-47.83 -27.11,-64.3 -14.99,-17.85 -35.9,-29.73 -58.89,-33.51 -8.7,-1.59 -17.56,-2.4 -26.42,-2.4 -0.18,0 -0.39,0 -0.57,0 -0.47,-0.01 -0.94,-0.01 -1.4,-0.01 -13.29,0 -26.55,1.91 -39.31,5.61 -19.16,5.68 -36.42,16.56 -49.8,31.4 -20.34,22.27 -33.11,52.31 -38.31,90.11 -0.51,4.01 -1.04,8.15 -1.4,12.2z" vector-effect="non-scaling-stroke"/>
  <polygon id="top_outsideCutPath" class="fil0 str0" points="1531.54,24211.92 1231.54,24211.92 1231.54,24811.92 1531.54,24811.92 1531.54,25411.92 1231.54,25411.92 1231.54,26011.92 1531.54,26011.92 1531.54,26611.92 1231.54,26611.92 1231.54,27211.92 1531.54,27211.92 1531.54,27811.92 1231.54,27811.92 1231.54,28411.92 1531.54,28411.92 1531.54,29011.92 1231.54,29011.92 1231.54,29611.92 1531.54,29611.92 1531.54,30211.92 1231.54,30211.92 1231.54,30811.92 1531.54,30811.92 1531.54,31411.92 1231.54,31411.92 1231.54,32011.92 1531.54,32011.92 1531.54,32611.92 1231.54,32611.92 1231.54,33211.92 1531.54,33211.92 1531.54,33811.92 1231.54,33811.92 1231.54,34411.92 1531.54,34411.92 1531.54,35011.92 1231.54,35011.92 1231.54,35611.92 1531.54,35611.92 1931.54,35611.92 1931.54,35911.92 2531.54,35911.92 2531.54,35611.92 3131.54,35611.92 3131.54,35911.92 3731.54,35911.92 3731.54,35611.92 4331.54,35611.92 4331.54,35911.92 4931.54,35911.92 4931.54,35611.92 5531.54,35611.92 5531.54,35911.92 6131.54,35911.92 6131.54,35611.92 6731.54,35611.92 6731.54,35911.92 7331.54,35911.92 7331.54,35611.92 7931.54,35611.92 7931.54,35911.92 8531.54,35911.92 8531.54,35611.92 9131.54,35611.92 9131.54,35911.92 9731.54,35911.92 9731.54,35611.92 10331.54,35611.92 10331.54,35911.92 10931.54,35911.92 10931.54,35611.92 11531.54,35611.92 11531.54,35911.92 12131.54,35911.92 12131.54,35611.92 12731.54,35611.92 12731.54,35911.92 13331.54,35911.92 13331.54,35611.92 13931.54,35611.92 13931.54,35911.92 14531.54,35911.92 14531.54,35611.92 15131.54,35611.92 15131.54,35911.92 15731.54,35911.92 15731.54,35611.92 16331.54,35611.92 16331.54,35911.92 16931.54,35911.92 16931.54,35611.92 17531.54,35611.92 17531.54,35911.92 18131.54,35911.92 18131.54,35611.92 18731.54,35611.92 18731.54,35911.92 19331.54,35911.92 19331.54,35611.92 19931.54,35611.92 19931.54,35911.92 20531.54,35911.92 20531.54,35611.92 21131.54,35611.92 21131.54,35911.92 21731.54,35911.92 21731.54,35611.92 22331.54,35611.92 22331.54,35911.92 22931.54,35911.92 22931.54,35611.92 23531.54,35611.92 23531.54,35911.92 24131.54,35911.92 24131.54,35611.92 24731.54,35611.92 24731.54,35911.92 25331.54,35911.92 25331.54,35611.92 25931.54,35611.92 25931.54,35911.92 26531.54,35911.92 26531.54,35611.92 27131.54,35611.92 27131.54,35911.92 27731.54,35911.92 27731.54,35611.92 28331.54,35611.92 28331.54,35911.92 28931.54,35911.92 28931.54,35611.92 29531.54,35611.92 29531.54,35911.92 30131.54,35911.92 30131.54,35611.92 30731.54,35611.92 30731.54,35911.92 31331.54,35911.92 31331.54,35611.92 31931.54,35611.92 31931.54,35911.92 32531.54,35911.92 32531.54,35611.92 33131.54,35611.92 33131.54,35911.92 33731.54,35911.92 33731.54,35611.92 34331.54,35611.92 34331.54,35911.92 34931.54,35911.92 34931.54,35611.92 35531.54,35611.92 35531.54,35911.92 36131.54,35911.92 36131.54,35611.92 36731.54,35611.92 36731.54,35911.92 37331.54,35911.92 37331.54,35611.92 37931.54,35611.92 37931.54,35911.92 38531.54,35911.92 38531.54,35611.92 39131.54,35611.92 39131.54,35911.92 39731.54,35911.92 39731.54,35611.92 40331.54,35611.92 40331.54,35911.92 40931.54,35911.92 40931.54,35611.92 41531.54,35611.92 41531.54,35911.92 42131.54,35911.92 42131.54,35611.92 42731.54,35611.92 42731.54,35911.92 43331.54,35911.92 43331.54,35611.92 43931.54,35611.92 43931.54,35911.92 44531.54,35911.92 44531.54,35611.92 45131.54,35611.92 44931.54,35611.92 45231.54,35611.92 45231.54,35011.92 44931.54,35011.92 44931.54,34411.92 45231.54,34411.92 45231.54,33811.92 44931.54,33811.92 44931.54,33211.92 45231.54,33211.92 45231.54,32611.92 44931.54,32611.92 44931.54,32011.92 45231.54,32011.92 45231.54,31411.92 44931.54,31411.92 44931.54,30811.92 45231.54,30811.92 45231.54,30211.92 44931.54,30211.92 44931.54,29611.92 45231.54,29611.92 45231.54,29011.92 44931.54,29011.92 44931.54,28411.92 45231.54,28411.92 45231.54,27811.92 44931.54,27811.92 44931.54,27211.92 45231.54,27211.92 45231.54,26611.92 44931.54,26611.92 44931.54,26011.92 45231.54,26011.92 45231.54,25411.92 44931.54,25411.92 44931.54,24811.92 45231.54,24811.92 45231.54,24211.92 44931.54,24211.92 44531.54,24211.92 44531.54,23911.92 43931.54,23911.92 43931.54,24211.92 43331.54,24211.92 43331.54,23911.92 42731.54,23911.92 42731.54,24211.92 42131.54,24211.92 42131.54,23911.92 41531.54,23911.92 41531.54,24211.92 40931.54,24211.92 40931.54,23911.92 40331.54,23911.92 40331.54,24211.92 39731.54,24211.92 39731.54,23911.92 39131.54,23911.92 39131.54,24211.92 38531.54,24211.92 38531.54,23911.92 37931.54,23911.92 37931.54,24211.92 37331.54,24211.92 37331.54,23911.92 36731.54,23911.92 36731.54,24211.92 36131.54,24211.92 36131.54,23911.92 35531.54,23911.92 35531.54,24211.92 34931.54,24211.92 34931.54,23911.92 34331.54,23911.92 34331.54,24211.92 33731.54,24211.92 33731.54,23911.92 33131.54,23911.92 33131.54,24211.92 32531.54,24211.92 32531.54,23911.92 31931.54,23911.92 31931.54,24211.92 31331.54,24211.92 31331.54,23911.92 30731.54,23911.92 30731.54,24211.92 30131.54,24211.92 30131.54,23911.92 29531.54,23911.92 29531.54,24211.92 28931.54,24211.92 28931.54,23911.92 28331.54,23911.92 28331.54,24211.92 27731.54,24211.92 27731.54,23911.92 27131.54,23911.92 27131.54,24211.92 26531.54,24211.92 26531.54,23911.92 25931.54,23911.92 25931.54,24211.92 25331.54,24211.92 25331.54,23911.92 24731.54,23911.92 24731.54,24211.92 24131.54,24211.92 24131.54,23911.92 23531.54,23911.92 23531.54,24211.92 22931.54,24211.92 22931.54,23911.92 22331.54,23911.92 22331.54,24211.92 21731.54,24211.92 21731.54,23911.92 21131.54,23911.92 21131.54,24211.92 20531.54,24211.92 20531.54,23911.92 19931.54,23911.92 19931.54,24211.92 19331.54,24211.92 19331.54,23911.92 18731.54,23911.92 18731.54,24211.92 18131.54,24211.92 18131.54,23911.92 17531.54,23911.92 17531.54,24211.92 16931.54,24211.92 16931.54,23911.92 16331.54,23911.92 16331.54,24211.92 15731.54,24211.92 15731.54,23911.92 15131.54,23911.92 15131.54,24211.92 14531.54,24211.92 14531.54,23911.92 13931.54,23911.92 13931.54,24211.92 13331.54,24211.92 13331.54,23911.92 12731.54,23911.92 12731.54,24211.92 12131.54,24211.92 12131.54,23911.92 11531.54,23911.92 11531.54,24211.92 10931.54,24211.92 10931.54,23911.92 10331.54,23911.92 10331.54,24211.92 9731.54,24211.92 9731.54,23911.92 9131.54,23911.92 9131.54,24211.92 8531.54,24211.92 8531.54,23911.92 7931.54,23911.92 7931.54,24211.92 7331.54,24211.92 7331.54,23911.92 6731.54,23911.92 6731.54,24211.92 6131.54,24211.92 6131.54,23911.92 5531.54,23911.92 5531.54,24211.92 4931.54,24211.92 4931.54,23911.92 4331.54,23911.92 4331.54,24211.92 3731.54,24211.92 3731.54,23911.92 3131.54,23911.92 3131.54,24211.92 2531.54,24211.92 2531.54,23911.92 1931.54,23911.92 1931.54,24211.92 1331.54,24211.92 " vector-effect="non-scaling-stroke"/>
  <path id="top_labelLayer" class="fil1 str1" d="M24094.04 30249.42l-14.1 0c9.4,75 14.1,146.1 14.1,213.3l0 528.5 -194.5 0 0 -1860.9 158.2 0 26.9 175.7 9.4 0c21.97,-31.34 47.47,-60.24 75.73,-86 29.42,-26.84 62.84,-49.23 98.87,-66.29 44.17,-20.48 91.33,-34.33 139.57,-40.82 28.95,-4.02 58.28,-6.1 87.53,-6.1 0.46,0 0.92,0 1.39,0 2.06,-0.03 4.1,-0.03 6.14,-0.03 54.89,0 109.56,7.64 162.34,22.57 89.48,25.54 168.62,78.86 225.92,152.08 75.67,95.19 120.41,221.66 134.21,379.39 2.9,35.66 4.6,72 4.6,107.88 0,0.77 0,1.86 0,2.63 0.02,2.19 0.02,4.55 0.02,6.78 0,61.97 -5.15,123.93 -15.18,185.06 -20.69,121.23 -62.71,221.15 -126.04,299.75 -80.23,100.5 -199.03,162.96 -327.32,172.07 -21.1,2.07 -42.6,3.12 -63.87,3.12 -0.24,0 -0.56,0 -0.8,0 -1.01,0.01 -2.23,0.01 -3.24,0.01 -48.92,0 -97.69,-6.12 -145.09,-18.08 -27.54,-7.09 -54.75,-16.61 -80.76,-28.21 -69.5,-31.21 -129.69,-80.45 -174.03,-142.42l0.01 0.01zm-1900.8 4.7l0 148.8c-19.07,9.2 -46.23,16.93 -81.5,23.2 -3.81,0.58 -7.9,1.38 -11.72,2 -38.25,6.2 -72.95,9.5 -104.08,9.9 -2.15,-0.01 -4.41,0.11 -6.6,0.11 -2.51,-0.02 -5.12,0.04 -7.66,0.04 -48.01,0 -95.96,-6.89 -142.05,-20.28 -109.73,-33.85 -178.96,-110.37 -207.69,-229.57 -10.19,-44.57 -15.34,-90.34 -15.34,-136.1 0,-2.16 0,-4.55 0,-6.72l0.04 -764.08 -183.9 0 0 -93.7 183.9 -80.9 82.1 -274.2 112.5 0 0 297.7 372.6 0 0 151.1 -372.6 0 0 755.9c0,54.33 9.07,99.8 27.2,136.4 7.39,15.05 16.79,29.1 27.9,41.68 28.71,32.4 68.11,53.41 111,59.21 12.79,1.92 25.8,2.9 38.75,2.9 0.45,0 0.92,0 1.37,0 0.36,0 0.9,0 1.29,0 30.81,0 61.86,-2.26 92.28,-6.71 1.93,-0.25 4.09,-0.6 6.03,-0.89 30.59,-4.86 55.11,-9.89 73.58,-15.09 0.86,-0.23 1.75,-0.52 2.61,-0.73l-0.01 0.03zm1207 7.6c24.46,-27.29 46.19,-57.11 64.67,-88.78 62.35,-106.75 93.53,-240.62 93.53,-401.62 0,-203.93 -52.9,-365.67 -158.7,-485.2 -105.87,-119.53 -248.67,-179.3 -428.4,-179.3 -1.01,-0.02 -2.2,-0.02 -3.22,-0.02 -44.36,0 -88.82,3.97 -132.45,11.71 -115.82,18.67 -221.78,76.46 -300.23,163.52 -69.53,77.59 -115.97,175.56 -139.3,293.89 -11.68,61.86 -17.72,125.24 -17.72,188.38 0,2.22 0,4.81 0,7.03 0.01,1.31 0.01,2.61 0.01,3.92 0,51.45 4.16,102.89 12.24,153.63 10.64,67.94 31.02,134.18 60.36,196.29 4.44,9.24 9.28,18.77 14.2,27.74 44.37,84.18 110.84,154.84 192.1,204.28 38.89,23.54 80.82,42.25 124.34,55.35 57.28,16.9 117.15,25.59 177.02,25.59 1.45,0 2.98,0 4.42,0 0.94,-0.01 1.96,-0.01 2.88,-0.01 43.25,0 86.41,-3.69 129.02,-11.07 117.68,-18.38 225.57,-76.88 305.22,-165.33l0.01 0zm-820.3 -490.4c-0.01,1.59 -0.01,3.28 -0.01,4.84 0,45.34 3.13,91.04 9.38,135.9 6.89,47.57 17.6,90.66 32.13,129.26 13.71,37.56 33,72.98 57.01,104.97 50.52,66.35 125.09,110.29 207.61,122.31 26.21,4.37 52.93,6.61 79.59,6.61 0.71,0 1.48,0 2.18,0 1.46,0.02 3.01,0.02 4.44,0.02 38.72,0 77.39,-5.02 114.79,-14.84 68.01,-17.65 128.21,-57.62 170.87,-113.49 49.07,-63.65 79.91,-149.21 92.51,-256.68 4.26,-38.11 6.51,-76.89 6.51,-115.3 0,-1.13 0,-2.5 0,-3.63 0,-1.55 0,-3.33 0,-4.87 0,-44.55 -3.2,-89.35 -9.24,-133.43 -6.78,-46.91 -17.3,-89.4 -31.57,-127.47 -13.84,-38.08 -33.54,-74.07 -58.19,-106.29 -49.17,-63.03 -120.23,-105.45 -199.03,-118.74 -29.75,-5.57 -60.11,-8.39 -90.42,-8.39 -0.96,0 -1.98,0 -2.93,0 -1.38,-0.01 -2.9,-0.01 -4.26,-0.01 -37.42,0 -74.78,4.58 -111.07,13.51 -68.68,16.44 -129.8,55.96 -173,111.82 -46.67,60.2 -76.53,141.63 -89.6,244.3 -5.07,41.55 -7.71,83.72 -7.71,125.64 0,1.26 0,2.64 0,3.89l0.01 0.07zm1514.1 -43.4l0 43.4c-0.01,1.36 -0.01,3.25 -0.01,4.66 0,42.71 2.2,85.89 6.44,128.29 9.25,89.37 28.8,161.28 58.67,215.75 7.31,13.47 15.76,26.4 25.11,38.58 36.44,46.36 86.54,80.19 143.18,96.63 42.54,13.33 91.31,19.99 146.31,19.99 110.93,0 197.83,-44.93 260.7,-134.8 49.67,-70.87 79.73,-162.9 90.2,-276.1 2.81,-30.87 4.2,-62.25 4.2,-93.25 0,-0.63 0,-1.52 0,-2.15 0.01,-1.45 0.01,-2.89 0.01,-4.33 0,-45.06 -3.23,-90.25 -9.35,-134.83 -13.44,-94.09 -41.79,-170.54 -85.06,-229.34 -51.6,-72.53 -132.62,-118.71 -221.32,-126.1 -14.19,-1.44 -28.54,-2.21 -42.85,-2.21 -0.41,0 -0.82,0 -1.22,0 -84.27,0.01 -153.54,14.94 -207.81,44.81 -29.61,16.08 -55.82,37.93 -77.01,64.11 -54.86,68.06 -84.72,173.76 -89.59,317.09 -0.34,9.73 -0.64,20.01 -0.64,29.83l0.04 -0.03z" vector-effect="non-scaling-stroke"/>
  <polygon id="back_outsideCutPath" class="fil0 str0" points="1146.24,697.55 1146.24,1397.55 1446.24,1397.55 1446.24,1997.55 1146.24,1997.55 1146.24,2597.55 1446.24,2597.55 1446.24,3197.55 1146.24,3197.55 1146.24,3797.55 1446.24,3797.55 1446.24,4397.55 1146.24,4397.55 1146.24,4997.55 1146.24,5097.55 1846.24,5097.55 1846.24,4797.55 2446.24,4797.55 2446.24,5097.55 3046.24,5097.55 3046.24,4797.55 3646.24,4797.55 3646.24,5097.55 4246.24,5097.55 4246.24,4797.55 4846.24,4797.55 4846.24,5097.55 5446.24,5097.55 5446.24,4797.55 6046.24,4797.55 6046.24,5097.55 6646.24,5097.55 6646.24,4797.55 7246.24,4797.55 7246.24,5097.55 7846.24,5097.55 7846.24,4797.55 8446.24,4797.55 8446.24,5097.55 9046.24,5097.55 9046.24,4797.55 9646.24,4797.55 9646.24,5097.55 10246.24,5097.55 10246.24,4797.55 10846.24,4797.55 10846.24,5097.55 11446.24,5097.55 11446.24,4797.55 12046.24,4797.55 12046.24,5097.55 12646.24,5097.55 12646.24,4797.55 13246.24,4797.55 13246.24,5097.55 13846.24,5097.55 13846.24,4797.55 14446.24,4797.55 14446.24,5097.55 15046.24,5097.55 15046.24,4797.55 15646.24,4797.55 15646.24,5097.55 16246.24,5097.55 16246.24,4797.55 16846.24,4797.55 16846.24,5097.55 17446.24,5097.55 17446.24,4797.55 18046.24,4797.55 18046.24,5097.55 18646.24,5097.55 18646.24,4797.55 19246.24,4797.55 19246.24,5097.55 19846.24,5097.55 19846.24,4797.55 20446.24,4797.55 20446.24,5097.55 21046.24,5097.55 21046.24,4797.55 21646.24,4797.55 21646.24,5097.55 22246.24,5097.55 22246.24,4797.55 22846.24,4797.55 22846.24,5097.55 23446.24,5097.55 23446.24,4797.55 24046.24,4797.55 24046.24,5097.55 24646.24,5097.55 24646.24,4797.55 25246.24,4797.55 25246.24,5097.55 25846.24,5097.55 25846.24,4797.55 26446.24,4797.55 26446.24,5097.55 27046.24,5097.55 27046.24,4797.55 27646.24,4797.55 27646.24,5097.55 28246.24,5097.55 28246.24,4797.55 28846.24,4797.55 28846.24,5097.55 29446.24,5097.55 29446.24,4797.55 30046.24,4797.55 30046.24,5097.55 30646.24,5097.55 30646.24,4797.55 31246.24,4797.55 31246.24,5097.55 31846.24,5097.55 31846.24,4797.55 32446.24,4797.55 32446.24,5097.55 33046.24,5097.55 33046.24,4797.55 33646.24,4797.55 33646.24,5097.55 34246.24,5097.55 34246.24,4797.55 34846.24,4797.55 34846.24,5097.55 35446.24,5097.55 35446.24,4797.55 36046.24,4797.55 36046.24,5097.55 36646.24,5097.55 36646.24,4797.55 37246.24,4797.55 37246.24,5097.55 37846.24,5097.55 37846.24,4797.55 38446.24,4797.55 38446.24,5097.55 39046.24,5097.55 39046.24,4797.55 39646.24,4797.55 39646.24,5097.55 40246.24,5097.55 40246.24,4797.55 40846.24,4797.55 40846.24,5097.55 41446.24,5097.55 41446.24,4797.55 42046.24,4797.55 42046.24,5097.55 42646.24,5097.55 42646.24,4797.55 43246.24,4797.55 43246.24,5097.55 43846.24,5097.55 43846.24,4797.55 44446.24,4797.55 44446.24,5097.55 45046.24,5097.55 45146.24,5097.55 45146.24,4397.55 44846.24,4397.55 44846.24,3797.55 45146.24,3797.55 45146.24,3197.55 44846.24,3197.55 44846.24,2597.55 45146.24,2597.55 45146.24,1997.55 44846.24,1997.55 44846.24,1397.55 45146.24,1397.55 45146.24,797.55 45146.24,697.55 44446.24,697.55 44446.24,997.55 43846.24,997.55 43846.24,697.55 43246.24,697.55 43246.24,997.55 42646.24,997.55 42646.24,697.55 42046.24,697.55 42046.24,997.55 41446.24,997.55 41446.24,697.55 40846.24,697.55 40846.24,997.55 40246.24,997.55 40246.24,697.55 39646.24,697.55 39646.24,997.55 39046.24,997.55 39046.24,697.55 38446.24,697.55 38446.24,997.55 37846.24,997.55 37846.24,697.55 37246.24,697.55 37246.24,997.55 36646.24,997.55 36646.24,697.55 36046.24,697.55 36046.24,997.55 35446.24,997.55 35446.24,697.55 34846.24,697.55 34846.24,997.55 34246.24,997.55 34246.24,697.55 33646.24,697.55 33646.24,997.55 33046.24,997.55 33046.24,697.55 32446.24,697.55 32446.24,997.55 31846.24,997.55 31846.24,697.55 31246.24,697.55 31246.24,997.55 30646.24,997.55 30646.24,697.55 30046.24,697.55 30046.24,997.55 29446.24,997.55 29446.24,697.55 28846.24,697.55 28846.24,997.55 28246.24,997.55 28246.24,697.55 27646.24,697.55 27646.24,997.55 27046.24,997.55 27046.24,697.55 26446.24,697.55 26446.24,997.55 25846.24,997.55 25846.24,697.55 25246.24,697.55 25246.24,997.55 24646.24,997.55 24646.24,697.55 24046.24,697.55 24046.24,997.55 23446.24,997.55 23446.24,697.55 22846.24,697.55 22846.24,997.55 22246.24,997.55 22246.24,697.55 21646.24,697.55 21646.24,997.55 21046.24,997.55 21046.24,697.55 20446.24,697.55 20446.24,997.55 19846.24,997.55 19846.24,697.55 19246.24,697.55 19246.24,997.55 18646.24,997.55 18646.24,697.55 18046.24,697.55 18046.24,997.55 17446.24,997.55 17446.24,697.55 16846.24,697.55 16846.24,997.55 16246.24,997.55 16246.24,697.55 15646.24,697.55 15646.24,997.55 15046.24,997.55 15046.24,697.55 14446.24,697.55 14446.24,997.55 13846.24,997.55 13846.24,697.55 13246.24,697.55 13246.24,997.55 12646.24,997.55 12646.24,697.55 12046.24,697.55 12046.24,997.55 11446.24,997.55 11446.24,697.55 10846.24,697.55 10846.24,997.55 10246.24,997.55 10246.24,697.55 9646.24,697.55 9646.24,997.55 9046.24,997.55 9046.24,697.55 8446.24,697.55 8446.24,997.55 7846.24,997.55 7846.24,697.55 7246.24,697.55 7246.24,997.55 6646.24,997.55 6646.24,697.55 6046.24,697.55 6046.24,997.55 5446.24,997.55 5446.24,697.55 4846.24,697.55 4846.24,997.55 4246.24,997.55 4246.24,697.55 3646.24,697.55 3646.24,997.55 3046.24,997.55 3046.24,697.55 2446.24,697.55 2446.24,997.55 1846.24,997.55 1846.24,697.55 1246.24,697.55 " vector-effect="non-scaling-stroke"/>
  <path id="back_labelLayer" class="fil1 str1" d="M23748.64 2986.45l3.5 0c9.4,-13.33 22.6,-29.9 39.6,-49.7 5.16,-6.14 11.15,-13.06 16.58,-19.05l152.22 -161.05 84.6 0 -190.8 200.6 204.1 270.3 -86.3 0 -166.3 -222.6 -53.7 46.4 0 176.2 -70.5 0 0 -668.6 70.5 0 0 354.5c0.03,4.41 -0.15,9.05 -0.26,13.4 -0.43,15.07 -1.51,34.93 -3.24,59.6zm-1443.3 180.5l-5.2 0 -15 60.6 -51.1 0 0 -668.6 71.3 0 0 162.4c0,36.4 -1.13,69.07 -3.4,98l3.4 0c27.38,-39.28 70.75,-64.49 118.42,-68.81 9.49,-1.11 19.15,-1.7 28.73,-1.7 0.21,0 0.44,0 0.65,0 61.87,0.01 109.93,21.14 144.2,63.41 27.4,33.87 43.83,78.97 49.3,135.3 1.28,14.14 2.01,28.51 2.01,42.76 0,0.39 0,0.95 0,1.34 0.01,0.84 0.01,1.86 0.01,2.73 0,22.62 -1.89,45.34 -5.52,67.65 -7.6,44.41 -23.03,81.05 -46.3,109.92 -29.41,36.84 -72.96,59.75 -119.99,63.09 -7.61,0.72 -15.37,1.1 -23.05,1.1 -0.21,0 -0.44,0 -0.65,0 -0.43,0 -0.93,0 -1.35,0 -17.89,0 -35.72,-2.25 -53.05,-6.6 -10.12,-2.62 -20.07,-6.12 -29.6,-10.39 -25.49,-11.45 -47.54,-29.48 -63.8,-52.21l-0.01 0.01zm810.4 60.6l-52.9 0 -14.1 -67 -3.5 0c-16.6,20.8 -33.13,36.87 -49.6,48.2 -6.49,4.5 -13.4,8.44 -20.59,11.69 -10.9,4.78 -22.33,8.4 -34,10.71 -11.01,2.27 -22.88,3.77 -35.61,4.5 -5.91,0.29 -11.94,0.49 -17.9,0.49 -0.42,0 -0.87,0 -1.3,0 -14.49,0 -29,-1.47 -43.19,-4.3 -26.14,-5.39 -47.91,-15.99 -65.31,-31.79 -17.88,-16.46 -30.23,-38.07 -35.29,-61.82 -2.92,-12.93 -4.41,-26.23 -4.41,-39.51 0,-0.44 0,-0.94 0,-1.38 -0.06,-1.69 -0.1,-3.41 -0.1,-5.11 0,-47.58 27.37,-90.93 70.31,-111.39 34.86,-18.53 82.69,-29.32 143.49,-32.39 4.68,-0.17 9.87,-0.51 14.55,-0.6l79.85 -2.6 0 -29.2c0,-37 -7.97,-64.3 -23.9,-81.9 -12.67,-14.07 -31.4,-22.5 -56.2,-25.3 -6.51,-0.74 -13.09,-1.11 -19.65,-1.11 -0.11,0 -0.24,0 -0.35,0 -18.01,0.13 -36.01,2.43 -53.5,6.71 -16.33,3.87 -33.4,9.4 -51.2,16.6 -9.57,3.88 -19.19,8.25 -28.47,12.8l-22.03 -54.6c23.27,-12.6 48.7,-22.47 76.3,-29.6 27.16,-7.1 55.15,-10.77 83.21,-10.81 35.06,0.01 64.46,4.88 88.19,14.61 13.45,5.34 25.88,13.07 36.61,22.78 13.16,12.44 23.16,27.9 29.11,45.01 7.65,20.74 11.48,45.71 11.48,74.91l0 321.4zm461 -455l-21.9 60.5c-11.24,-4.41 -22.75,-8.29 -34.41,-11.42 -5.58,-1.47 -11.41,-2.95 -17.11,-4.2 -7.34,-1.63 -14.89,-3.11 -22.37,-4.18 -7.34,-1.07 -14.24,-1.7 -20.71,-1.9 -2.06,-0.1 -4.22,-0.18 -6.29,-0.2 -1.14,-0.03 -2.37,-0.05 -3.53,-0.05 -20.86,0 -41.53,4.15 -60.78,12.15 -44.87,19.8 -70.7,63.9 -77.5,132.3 -1.17,12.47 -1.79,25.07 -1.79,37.63 0,0.34 0,0.72 0,1.06 0,0.4 0,0.86 0,1.24 0,16.4 1.18,32.81 3.5,49.04 2.46,17.02 6.32,32.43 11.59,46.23 4.88,13.1 11.65,25.47 20.01,36.68 17.81,23.62 44.17,39.36 73.4,43.81 9.81,1.72 19.86,2.6 29.85,2.6 0.15,0 0.29,0 0.44,0 27.91,-0.11 55.65,-4.19 82.41,-11.99 13.01,-3.73 25.88,-8.28 38.39,-13.41l0 63.21c-15.71,7.96 -32.45,13.93 -49.69,17.59 -15.27,3.34 -31.81,5.48 -49.61,6.41 -6.53,0.3 -13.17,0.49 -19.76,0.49 0,0 -0.05,0 -0.05,0 -0.77,0.01 -1.58,0.01 -2.36,0.01 -21.03,0 -41.99,-2.51 -62.43,-7.42 -36.11,-8.46 -68.8,-27.9 -93.5,-55.58 -19.86,-22.78 -34.55,-49.75 -42.88,-78.82 -6.35,-20.79 -10.39,-43.75 -12.12,-68.88 -0.67,-10.05 -1.09,-20.32 -1.09,-30.43 -0.01,-78.71 18.99,-139.57 56.99,-182.57 26.53,-29.74 62.05,-50.17 101.1,-58.11 19.39,-4.16 39.25,-6.31 59.11,-6.31 0.65,0 1.37,0 2.02,0 22.78,0.01 45.65,2.53 67.89,7.32 22.32,4.8 39.91,10.43 52.78,16.9 0.12,0.09 0.29,0.2 0.41,0.29l-0.01 0.01zm-1133.9 36c-0.3,-0.01 -0.64,-0.01 -0.96,-0.01 -12.67,0 -25.4,1.22 -37.83,3.6 -29.07,5.74 -51.24,18.51 -66.51,38.31 -7.6,10.21 -13.59,21.61 -17.69,33.69 -7.94,22.27 -12.61,50.34 -14.01,84.21 -0.29,7.67 -0.49,15.58 -0.49,23.3 0,0.68 0,1.43 0,2.12 0,15.55 0.8,31.15 2.3,46.58 3.46,32.8 10.66,59.17 21.59,79.1 2.69,4.96 5.77,9.7 9.2,14.18 19.73,25.55 50.2,39.65 91.4,42.32 4.87,0.29 9.8,0.49 14.7,0.49 0.51,0.01 1.07,0.01 1.57,0.01 13.12,0 26.23,-1.84 38.85,-5.42 23.64,-6.77 44.12,-21.88 57.59,-42.48 8.85,-13.54 15.69,-28.38 20.2,-43.91 4.26,-13.86 7.39,-29.19 9.39,-45.99 1.71,-15.28 2.61,-30.7 2.61,-46.07 0,-0.6 0,-1.25 0,-1.85 0.01,-0.67 0.01,-1.44 0.01,-2.11 0,-15.28 -0.88,-30.71 -2.52,-45.89 -4.07,-34.99 -12.87,-63.05 -26.4,-84.18 -1.04,-1.63 -2.17,-3.25 -3.29,-4.81 -15.74,-22.04 -39.52,-37.09 -66.2,-41.89 -10.8,-2.18 -21.82,-3.31 -32.84,-3.31 -0.2,0 -0.46,0 -0.67,0l0 0.01zm601.6 229.9l0 -42.5 -71.4 3c-13.86,0.37 -27.99,1.46 -41.8,2.99 -35.47,4.14 -62.4,11.94 -80.8,23.41 -19.86,11.89 -33.24,32.23 -36.29,55.19 -0.85,5.65 -1.3,11.37 -1.3,17.08 0,0.21 0,0.41 0,0.62 0,0.28 0,0.58 0,0.85 0,7.55 0.84,15.09 2.5,22.46 2.79,12 7.99,22.13 15.59,30.4 1.67,1.78 3.46,3.5 5.31,5.09 8.47,7.17 18.41,12.48 29.1,15.49 7.66,2.28 16.09,3.72 25.29,4.32 3.69,0.25 7.41,0.39 11.11,0.39 38.39,0.01 69.66,-9.09 93.79,-27.29 3.77,-2.84 7.41,-5.93 10.81,-9.21 16.7,-16.2 28.33,-36.98 33.39,-59.69 3.07,-12.8 4.63,-26.73 4.7,-41.8 0.01,-0.11 0.01,-0.3 0.01,-0.41 0,-0.11 0,-0.3 0,-0.41l-0.01 0.02z" vector-effect="non-scaling-stroke"/>
  <polygon id="right_outsideCutPath" class="fil0 str0" points="45746.24,697.55 45746.24,1397.55 45446.24,1397.55 45446.24,1997.55 45746.24,1997.55 45746.24,2597.55 45446.24,2597.55 45446.24,3197.55 45746.24,3197.55 45746.24,3797.55 45446.24,3797.55 45446.24,4397.55 45746.24,4397.55 45746.24,4997.55 45746.24,5097.55 45746.24,4797.55 46346.24,4797.55 46346.24,5097.55 46946.24,5097.55 46946.24,4797.55 47546.24,4797.55 47546.24,5097.55 48146.24,5097.55 48146.24,4797.55 48746.24,4797.55 48746.24,5097.55 49346.24,5097.55 49346.24,4797.55 49946.24,4797.55 49946.24,5097.55 50546.24,5097.55 50546.24,4797.55 51146.24,4797.55 51146.24,5097.55 51746.24,5097.55 51746.24,4797.55 52346.24,4797.55 52346.24,5097.55 52946.24,5097.55 52946.24,4797.55 53546.24,4797.55 53546.24,5097.55 54146.24,5097.55 54146.24,4797.55 54746.24,4797.55 54746.24,5097.55 55346.24,5097.55 55346.24,4797.55 55946.24,4797.55 55946.24,5097.55 56546.24,5097.55 56546.24,4797.55 57146.24,4797.55 57146.24,5097.55 57146.24,4397.55 57446.24,4397.55 57446.24,3797.55 57146.24,3797.55 57146.24,3197.55 57446.24,3197.55 57446.24,2597.55 57146.24,2597.55 57146.24,1997.55 57446.24,1997.55 57446.24,1397.55 57146.24,1397.55 57146.24,797.55 57146.24,697.55 57146.24,997.55 56546.24,997.55 56546.24,697.55 55946.24,697.55 55946.24,997.55 55346.24,997.55 55346.24,697.55 54746.24,697.55 54746.24,997.55 54146.24,997.55 54146.24,697.55 53546.24,697.55 53546.24,997.55 52946.24,997.55 52946.24,697.55 52346.24,697.55 52346.24,997.55 51746.24,997.55 51746.24,697.55 51146.24,697.55 51146.24,997.55 50546.24,997.55 50546.24,697.55 49946.24,697.55 49946.24,997.55 49346.24,997.55 49346.24,697.55 48746.24,697.55 48746.24,997.55 48146.24,997.55 48146.24,697.55 47546.24,697.55 47546.24,997.55 46946.24,997.55 46946.24,697.55 46346.24,697.55 46346.24,997.55 45746.24,997.55 " vector-effect="non-scaling-stroke"/>
  <path id="right_labelLayer" class="fil1 str1" d="M51993.44 3126.15l-71.3 0 0 -304.7c0,-0.41 0,-0.83 0,-1.22 0,-10.16 -0.79,-20.35 -2.31,-30.4 -3.66,-22.92 -11.62,-41.01 -23.89,-54.28 -9.11,-9.61 -20.45,-16.85 -33.01,-21.02 -8.66,-3.05 -18.29,-5.15 -28.89,-6.28 -6.7,-0.72 -13.47,-1.11 -20.21,-1.11 -0.35,0 -0.74,0 -1.11,0 -13.15,0 -26.36,1.24 -39.27,3.61 -14.87,2.8 -28.08,7.37 -39.61,13.7 -10.84,5.86 -20.51,13.71 -28.5,23.09 -8.71,10.64 -15.54,22.74 -20.1,35.69 -8.13,21.81 -12.73,48.92 -13.8,81.32 -0.19,5.03 -0.3,10.25 -0.3,15.37l0 246.23 -71.3 0 0 -668.6 71.3 0 0 202.4c0,0.53 0,1.31 0,1.86 0,7.52 -0.16,15.27 -0.39,22.72 -0.54,13.75 -1.54,25.75 -3.01,36.02l4.3 0c14.07,-22.67 34.03,-40.5 59.9,-53.5 25.93,-13.07 55.53,-19.6 88.8,-19.6 0.58,-0.02 1.22,-0.02 1.82,-0.02 15.65,0 31.34,1.31 46.78,3.82 33.93,5.8 60.9,18.23 80.9,37.3 13.82,13.41 24.35,29.9 30.7,48.08 8.33,22.75 12.5,50.19 12.5,82.32l0 307.2zm-653.1 -470.9l162.8 0 0 45.1 -87.2 10.3c3.71,4.68 7.07,9.68 10,14.89 2.93,5.14 5.73,10.78 8.4,16.91 1.06,2.44 2.14,4.99 3.1,7.49 4.03,10.53 6.78,21.59 8.1,32.79 0.87,7.08 1.3,14.24 1.3,21.38 0,0.19 0,0.43 0,0.62 0.01,0.57 0.01,1.17 0.01,1.73 0,16.61 -2.53,33.16 -7.5,48.98 -7.48,23.15 -21.24,43.85 -39.7,59.7 -31.54,27.54 -74.81,41.31 -129.81,41.31 -0.09,-0.01 -0.23,-0.01 -0.31,-0.01 -8.73,0 -17.54,-0.53 -26.19,-1.51 -4.32,-0.5 -8.72,-1.18 -13,-1.99 -7.21,3.74 -14.12,8.24 -20.49,13.3 -7.07,5.67 -12.64,11.78 -16.71,18.31 -5.47,8.61 -8.39,18.62 -8.39,28.83 0,0.05 0,0.11 0,0.16 -0.01,12.54 4.99,21.88 14.99,28.01 0.3,0.19 0.61,0.39 0.91,0.59 3.5,1.97 7.23,3.52 11.1,4.6 7.73,2.21 17.49,3.64 29.29,4.31 4.26,0.19 8.57,0.29 12.84,0.29 0.43,0 0.93,0 1.36,0l83.4 0.01c34,0 62.73,4.8 86.2,14.4 11.22,4.44 21.77,10.49 31.3,17.88 20.91,16.39 34.8,40.16 38.8,66.41 1.45,8.63 2.2,17.43 2.2,26.19 0,0.33 0,0.69 0,1.01 -0.01,0.64 0.01,1.32 0.01,1.98 0,17.51 -3,34.93 -8.82,51.42 -9.79,26.81 -27.76,48.78 -53.89,65.91 -41.87,27.33 -102.9,41 -183.1,41 -0.48,-0.01 -1.06,-0.01 -1.55,-0.01 -17.37,0 -34.88,-1.17 -52.05,-3.41 -36.27,-4.85 -65.87,-15.18 -88.8,-30.98 -31.2,-21.4 -47.83,-51.1 -49.9,-89.1 -0.12,-2.57 -0.19,-5.2 -0.19,-7.77 0,-0.07 0,-0.17 0,-0.24 -0.01,-28.66 9.16,-53.42 27.49,-74.29 11.84,-13.34 26.48,-24.03 42.8,-31.22 11.12,-4.98 22.71,-8.81 34.61,-11.4 -11.41,-5.16 -21.32,-13.16 -28.8,-23.19 -0.51,-0.69 -1.01,-1.4 -1.49,-2.1 -7.47,-10.48 -11.72,-22.94 -12.21,-35.8 -0.06,-1.34 -0.1,-2.7 -0.1,-4.05 0,-0.05 0,-0.1 0,-0.15 -0.01,-17.19 4.59,-32.22 13.79,-45.09 3.99,-5.52 8.53,-10.61 13.51,-15.21 8.06,-7.53 18.02,-14.92 29.89,-22.19 -21.83,-9.08 -40.67,-24.17 -54.29,-43.51 -1.8,-2.46 -3.56,-5.04 -5.21,-7.61 -13.52,-21.33 -21.35,-45.86 -22.68,-71.09 -0.2,-3.44 -0.31,-6.96 -0.31,-10.43 0,-0.31 0,-0.66 0,-0.97 -0.01,-0.59 -0.01,-1.22 -0.01,-1.8 0,-15.78 1.84,-31.55 5.41,-46.9 6.09,-27.14 20.41,-51.79 40.99,-70.51 16.75,-14.84 36.65,-25.83 58.12,-32.08 15.39,-4.73 32.35,-7.77 50.88,-9.1 6.97,-0.48 14.05,-0.71 21.05,-0.71 0.46,0 1,0 1.46,0 0.46,0 0.99,0 1.46,0 11.58,0 23.16,0.77 34.65,2.2 10.27,1.34 20.51,3.53 30.48,6.4l0 0.01zm1016.2 412l0 54.6c-2.68,1.26 -5.48,2.38 -8.3,3.3 -5.93,1.93 -13.13,3.67 -21.6,5.2 -1.4,0.23 -2.9,0.49 -4.3,0.68 -6.65,1.11 -13.37,2.02 -20.08,2.69 -7.28,0.69 -14.12,1.03 -20.52,1.03 -91.07,0 -136.6,-48 -136.6,-144l0 -280.1 -67.5 0 0 -34.4 67.5 -29.6 30.1 -100.6 41.2 0 0 109.2 136.7 0 0 55.4 -136.7 0 0 277.1c0,0.25 0,0.55 0,0.81 0,8.21 0.72,16.39 2.1,24.47 2.93,16.41 8.97,29.75 18.1,40.02 10.52,11.86 24.98,19.57 40.69,21.69 4.78,0.72 9.62,1.1 14.45,1.1 0.08,0 0.17,0 0.26,0 0.28,0 0.65,0 0.94,0 11.18,0 22.43,-0.83 33.47,-2.4 0.68,-0.12 1.47,-0.27 2.19,-0.41 11.2,-1.72 20.17,-3.55 26.9,-5.48 0.32,-0.1 0.69,-0.22 1,-0.31l0 0.01zm-1549.5 -415.5l-9.8 66.2c-7.44,-1.66 -15.08,-3.08 -22.6,-4.19 -10.47,-1.54 -20.13,-2.31 -29,-2.31 -0.21,-0.01 -0.48,-0.01 -0.71,-0.01 -34.36,0 -67.21,14.34 -90.58,39.51 -2.2,2.23 -4.41,4.55 -6.49,6.9 -22.33,25.63 -36.09,57.65 -39.31,91.5 -0.85,7.85 -1.3,15.78 -1.3,23.68 0,0.13 0,0.26 0,0.4l-0.01 252.72 -71.3 0 0 -470.9 58.9 0 8.1 87.2 3.5 0c7.68,-13.67 16.73,-26.61 26.91,-38.52 10.57,-12.33 22.77,-23.25 36.2,-32.39 23.64,-16.22 51.71,-24.9 80.39,-24.9 0.3,0 0.62,0 0.92,0 0.37,0 0.85,0 1.25,0 9.36,0 18.71,0.4 28.03,1.2 8.98,0.75 18.06,2.12 26.9,3.9l0 0.01zm159.5 3.5l0 470.9 -71.4 0 0 -470.9 71.4 0zm349.3 460.1l-85.5 0c-0.32,-0.01 -0.7,-0.01 -1.04,-0.01 -9.55,0 -19.16,0.84 -28.55,2.5 -11.14,2.07 -21.14,5.41 -30.01,10.01 -5.72,2.95 -11.1,6.58 -16,10.78 -18.07,15.48 -27.1,37.69 -27.1,66.62 0.01,0.3 0,0.65 0,0.96 0,8.72 1.6,17.39 4.7,25.53 4.53,11.47 12.3,21.04 23.3,28.71 1.37,0.96 2.79,1.91 4.21,2.79 21.46,13.14 52.26,19.71 92.39,19.71 0.59,-0.01 1.35,-0.01 1.94,-0.01 14.93,0 30.03,-0.76 44.84,-2.11 31.35,-3.05 56.82,-9.48 76.42,-19.28 3.34,-1.64 6.66,-3.48 9.81,-5.41 9,-5.46 17.14,-12.29 24.1,-20.2 12.32,-14.17 19.12,-32.36 19.12,-51.15 0,-0.51 -0.01,-1.04 -0.02,-1.54 -0.01,-25.47 -7.91,-43.13 -23.71,-53 -4.99,-3.01 -10.39,-5.38 -15.99,-7.01 -11.41,-3.53 -26.11,-5.86 -44.11,-6.99 -9.39,-0.58 -19.08,-0.91 -28.56,-0.91 -0.06,0 -0.17,0 -0.22,0l-0.02 0.01zm-149.5 -309.3c0,0.45 0,0.92 0,1.38 0,9.33 0.95,18.69 2.8,27.82 2.6,12.07 6.97,22.6 13.1,31.6 3.44,5.09 7.48,9.76 12.01,13.89 16.73,15.27 39.42,23.64 68.09,25.11 3.23,0.18 6.48,0.29 9.71,0.29 0.59,-0.01 1.23,0.01 1.84,0.01 13.07,0 26.11,-1.67 38.76,-4.91 31.06,-8.39 50.76,-27.82 59.09,-58.29 3.11,-11.94 4.72,-24.27 4.72,-36.6 0,-0.53 -0.02,-1.09 -0.02,-1.61 0,-56.13 -22.2,-89.99 -66.6,-101.59 -12.14,-3.01 -24.61,-4.52 -37.13,-4.52 -0.64,0 -1.34,0.02 -1.97,0.02 -25.73,0 -46.9,5.3 -63.5,15.9 -5,3.17 -9.68,6.91 -13.89,11.1 -15.27,15.33 -24.08,36.93 -26.41,64.8 -0.38,4.96 -0.59,10 -0.59,14.99 0,0.18 0,0.41 0,0.6l-0.01 0.01zm-265.2 -314.3c-3.06,2.96 -5.55,6.49 -7.29,10.39 -3.14,6.81 -4.71,15.28 -4.71,25.41 0.01,2.7 0.15,5.41 0.41,8.09 1.13,12.07 4.99,21.34 11.59,27.81 4.11,4.06 9.08,7.21 14.51,9.19 4.85,1.72 9.98,2.6 15.13,2.6 0.15,0 0.31,0 0.46,0 0.22,0.01 0.46,0.01 0.68,0.01 10.84,0 21.26,-4.24 29.03,-11.8 8.26,-7.87 12.39,-19.83 12.39,-35.9 0,-16 -4.13,-27.87 -12.4,-35.6 -7.8,-7.46 -18.19,-11.62 -28.98,-11.62 -0.24,0 -0.48,0.01 -0.71,0.01 -0.09,0 -0.2,0 -0.29,0 -1.1,0 -2.21,0.03 -3.31,0.1 -9.9,0.46 -19.32,4.47 -26.5,11.3l-0.01 0.01z" vector-effect="non-scaling-stroke"/>
  <polygon id="bottom_outsideCutPath" class="fil0 str0" points="1531.54,11911.92 1231.54,11911.92 1231.54,12511.92 1531.54,12511.92 1531.54,13111.92 1231.54,13111.92 1231.54,13711.92 1531.54,13711.92 1531.54,14311.92 1231.54,14311.92 1231.54,14911.92 1531.54,14911.92 1531.54,15511.92 1231.54,15511.92 1231.54,16111.92 1531.54,16111.92 1531.54,16711.92 1231.54,16711.92 1231.54,17311.92 1531.54,17311.92 1531.54,17911.92 1231.54,17911.92 1231.54,18511.92 1531.54,18511.92 1531.54,19111.92 1231.54,19111.92 1231.54,19711.92 1531.54,19711.92 1531.54,20311.92 1231.54,20311.92 1231.54,20911.92 1531.54,20911.92 1531.54,21511.92 1231.54,21511.92 1231.54,22111.92 1531.54,22111.92 1531.54,22711.92 1231.54,22711.92 1231.54,23311.92 1531.54,23311.92 1931.54,23311.92 1931.54,23611.92 2531.54,23611.92 2531.54,23311.92 3131.54,23311.92 3131.54,23611.92 3731.54,23611.92 3731.54,23311.92 4331.54,23311.92 4331.54,23611.92 4931.54,23611.92 4931.54,23311.92 5531.54,23311.92 5531.54,23611.92 6131.54,23611.92 6131.54,23311.92 6731.54,23311.92 6731.54,23611.92 7331.54,23611.92 7331.54,23311.92 7931.54,23311.92 7931.54,23611.92 8531.54,23611.92 8531.54,23311.92 9131.54,23311.92 9131.54,23611.92 9731.54,23611.92 9731.54,23311.92 10331.54,23311.92 10331.54,23611.92 10931.54,23611.92 10931.54,23311.92 11531.54,23311.92 11531.54,23611.92 12131.54,23611.92 12131.54,23311.92 12731.54,23311.92 12731.54,23611.92 13331.54,23611.92 13331.54,23311.92 13931.54,23311.92 13931.54,23611.92 14531.54,23611.92 14531.54,23311.92 15131.54,23311.92 15131.54,23611.92 15731.54,23611.92 15731.54,23311.92 16331.54,23311.92 16331.54,23611.92 16931.54,23611.92 16931.54,23311.92 17531.54,23311.92 17531.54,23611.92 18131.54,23611.92 18131.54,23311.92 18731.54,23311.92 18731.54,23611.92 19331.54,23611.92 19331.54,23311.92 19931.54,23311.92 19931.54,23611.92 20531.54,23611.92 20531.54,23311.92 21131.54,23311.92 21131.54,23611.92 21731.54,23611.92 21731.54,23311.92 22331.54,23311.92 22331.54,23611.92 22931.54,23611.92 22931.54,23311.92 23531.54,23311.92 23531.54,23611.92 24131.54,23611.92 24131.54,23311.92 24731.54,23311.92 24731.54,23611.92 25331.54,23611.92 25331.54,23311.92 25931.54,23311.92 25931.54,23611.92 26531.54,23611.92 26531.54,23311.92 27131.54,23311.92 27131.54,23611.92 27731.54,23611.92 27731.54,23311.92 28331.54,23311.92 28331.54,23611.92 28931.54,23611.92 28931.54,23311.92 29531.54,23311.92 29531.54,23611.92 30131.54,23611.92 30131.54,23311.92 30731.54,23311.92 30731.54,23611.92 31331.54,23611.92 31331.54,23311.92 31931.54,23311.92 31931.54,23611.92 32531.54,23611.92 32531.54,23311.92 33131.54,23311.92 33131.54,23611.92 33731.54,23611.92 33731.54,23311.92 34331.54,23311.92 34331.54,23611.92 34931.54,23611.92 34931.54,23311.92 35531.54,23311.92 35531.54,23611.92 36131.54,23611.92 36131.54,23311.92 36731.54,23311.92 36731.54,23611.92 37331.54,23611.92 37331.54,23311.92 37931.54,23311.92 37931.54,23611.92 38531.54,23611.92 38531.54,23311.92 39131.54,23311.92 39131.54,23611.92 39731.54,23611.92 39731.54,23311.92 40331.54,23311.92 40331.54,23611.92 40931.54,23611.92 40931.54,23311.92 41531.54,23311.92 41531.54,23611.92 42131.54,23611.92 42131.54,23311.92 42731.54,23311.92 42731.54,23611.92 43331.54,23611.92 43331.54,23311.92 43931.54,23311.92 43931.54,23611.92 44531.54,23611.92 44531.54,23311.92 45131.54,23311.92 44931.54,23311.92 45231.54,23311.92 45231.54,22711.92 44931.54,22711.92 44931.54,22111.92 45231.54,22111.92 45231.54,21511.92 44931.54,21511.92 44931.54,20911.92 45231.54,20911.92 45231.54,20311.92 44931.54,20311.92 44931.54,19711.92 45231.54,19711.92 45231.54,19111.92 44931.54,19111.92 44931.54,18511.92 45231.54,18511.92 45231.54,17911.92 44931.54,17911.92 44931.54,17311.92 45231.54,17311.92 45231.54,16711.92 44931.54,16711.92 44931.54,16111.92 45231.54,16111.92 45231.54,15511.92 44931.54,15511.92 44931.54,14911.92 45231.54,14911.92 45231.54,14311.92 44931.54,14311.92 44931.54,13711.92 45231.54,13711.92 45231.54,13111.92 44931.54,13111.92 44931.54,12511.92 45231.54,12511.92 45231.54,11911.92 44931.54,11911.92 44531.54,11911.92 44531.54,11611.92 43931.54,11611.92 43931.54,11911.92 43331.54,11911.92 43331.54,11611.92 42731.54,11611.92 42731.54,11911.92 42131.54,11911.92 42131.54,11611.92 41531.54,11611.92 41531.54,11911.92 40931.54,11911.92 40931.54,11611.92 40331.54,11611.92 40331.54,11911.92 39731.54,11911.92 39731.54,11611.92 39131.54,11611.92 39131.54,11911.92 38531.54,11911.92 38531.54,11611.92 37931.54,11611.92 37931.54,11911.92 37331.54,11911.92 37331.54,11611.92 36731.54,11611.92 36731.54,11911.92 36131.54,11911.92 36131.54,11611.92 35531.54,11611.92 35531.54,11911.92 34931.54,11911.92 34931.54,11611.92 34331.54,11611.92 34331.54,11911.92 33731.54,11911.92 33731.54,11611.92 33131.54,11611.92 33131.54,11911.92 32531.54,11911.92 32531.54,11611.92 31931.54,11611.92 31931.54,11911.92 31331.54,11911.92 31331.54,11611.92 30731.54,11611.92 30731.54,11911.92 30131.54,11911.92 30131.54,11611.92 29531.54,11611.92 29531.54,11911.92 28931.54,11911.92 28931.54,11611.92 28331.54,11611.92 28331.54,11911.92 27731.54,11911.92 27731.54,11611.92 27131.54,11611.92 27131.54,11911.92 26531.54,11911.92 26531.54,11611.92 25931.54,11611.92 25931.54,11911.92 25331.54,11911.92 25331.54,11611.92 24731.54,11611.92 24731.54,11911.92 24131.54,11911.92 24131.54,11611.92 23531.54,11611.92 23531.54,11911.92 22931.54,11911.92 22931.54,11611.92 22331.54,11611.92 22331.54,11911.92 21731.54,11911.92 21731.54,11611.92 21131.54,11611.92 21131.54,11911.92 20531.54,11911.92 20531.54,11611.92 19931.54,11611.92 19931.54,11911.92 19331.54,11911.92 19331.54,11611.92 18731.54,11611.92 18731.54,11911.92 18131.54,11911.92 18131.54,11611.92 17531.54,11611.92 17531.54,11911.92 16931.54,11911.92 16931.54,11611.92 16331.54,11611.92 16331.54,11911.92 15731.54,11911.92 15731.54,11611.92 15131.54,11611.92 15131.54,11911.92 14531.54,11911.92 14531.54,11611.92 13931.54,11611.92 13931.54,11911.92 13331.54,11911.92 13331.54,11611.92 12731.54,11611.92 12731.54,11911.92 12131.54,11911.92 12131.54,11611.92 11531.54,11611.92 11531.54,11911.92 10931.54,11911.92 10931.54,11611.92 10331.54,11611.92 10331.54,11911.92 9731.54,11911.92 9731.54,11611.92 9131.54,11611.92 9131.54,11911.92 8531.54,11911.92 8531.54,11611.92 7931.54,11611.92 7931.54,11911.92 7331.54,11911.92 7331.54,11611.92 6731.54,11611.92 6731.54,11911.92 6131.54,11911.92 6131.54,11611.92 5531.54,11611.92 5531.54,11911.92 4931.54,11911.92 4931.54,11611.92 4331.54,11611.92 4331.54,11911.92 3731.54,11911.92 3731.54,11611.92 3131.54,11611.92 3131.54,11911.92 2531.54,11911.92 2531.54,11611.92 1931.54,11611.92 1931.54,11911.92 1331.54,11911.92 " vector-effect="non-scaling-stroke"/>
  <path id="bottom_labelLayer" class="fil1 str1" d="M27179.54 18511.92l-194.5 0 0 -835.6c0,-102.33 -21.87,-179.1 -65.6,-230.3 -25.28,-29.02 -58.34,-50.39 -95.2,-61.51 -22.6,-7.26 -47.67,-11.92 -75.2,-13.99 -10.91,-0.76 -21.94,-1.2 -32.91,-1.2 -0.16,0 -0.44,0 -0.61,0 -84.92,0 -154.28,17.1 -208.08,51.3 -22.75,14.4 -43.1,32.29 -60.3,52.98 -57.53,69.21 -86.43,175.59 -86.7,319.12 0,0.21 0,0.74 0,1 0,0.26 0,0.79 0,1.06l0 717.14 -194.5 0 0 -835.6c0,-102.33 -21.9,-179.1 -65.7,-230.3 -24.96,-28.63 -57.48,-49.74 -93.79,-60.9 -32.01,-10.53 -69.08,-15.8 -111.21,-15.8 -1.37,-0.02 -2.72,-0.02 -4.08,-0.02 -32.21,0 -64.36,3.24 -95.92,9.62 -72.07,15.27 -128,48.6 -167.8,100 -20.92,27.8 -37.28,58.83 -48.39,91.8 -20.87,59.2 -32.81,133.13 -35.81,221.8 -0.47,14.81 -0.8,30.52 -0.8,45.57l0 673.83 -194.5 0 0 -1284.4 158.2 0 31.6 175.8 9.4 0c36.73,-62.53 88.5,-111.37 155.3,-146.5 56.56,-29.41 118.75,-47 182.4,-51.23 13.52,-0.93 27.27,-1.47 40.89,-1.47 0.34,0 0.75,0 1.09,0 2.12,-0.03 4.22,-0.03 6.32,-0.03 46.03,0 92.14,5.05 137.09,14.93 58.74,13.6 108.61,36.5 149.61,68.7 44.51,35.37 79.26,81.67 100.79,134.3l9.31 0c36.34,-63.44 89.3,-116.01 153.03,-151.91 4.3,-2.47 8.89,-5.09 13.36,-7.42 56.09,-29.78 117.52,-48.47 180.71,-54.97 21.96,-2.33 44.29,-3.6 66.4,-3.6 0.45,0 0.98,0 1.43,0 1.51,-0.02 3.32,-0.02 4.89,-0.02 39.38,0 78.92,3.55 117.64,10.32 45.49,8.4 85.97,21.9 121.44,40.5 30.47,15.75 58.34,36.46 82.3,61.08 72.27,74.61 108.4,193.95 108.4,358.02l0 837.9zm-7701.5 -165.3l-14.1 0 -41 165.3 -139.5 0 0 -1823.5 194.6 0 0 443c0,0.91 0,2.4 0,3.39 0,44.07 -0.99,90.12 -1.98,133.69 -1.61,43.15 -3.89,83.95 -6.82,122.42 -0.07,1.98 -0.67,5.54 -0.67,7.62l9.47 0.08c74.61,-107.02 192.87,-175.7 322.79,-187.47 26.11,-3.11 52.55,-4.73 78.91,-4.73 0.41,0 0.97,0 1.38,0 1.98,-0.03 3.94,-0.03 5.9,-0.03 54.52,0 109.03,7.62 161.45,22.36 89.12,25.42 168.13,78.07 225.89,150.56 74.72,92.27 119.51,215.21 134.38,368.81 3.62,39.03 5.6,78.81 5.6,118.14 0,0.61 0,1.68 0,2.29 0.02,2.17 0.02,4.54 0.02,6.77 0,61.97 -5.15,123.93 -15.18,185.06 -20.69,121.23 -62.71,221.14 -126.04,299.74 -80.23,100.51 -199.03,162.97 -327.32,172.08 -21.1,2.07 -42.6,3.12 -63.87,3.12 -0.24,0 -0.56,0 -0.8,0 -1.01,0.01 -2.23,0.01 -3.24,0.01 -48.92,0 -97.69,-6.12 -145.09,-18.08 -27.54,-7.09 -54.75,-16.61 -80.76,-28.21 -69.5,-31.21 -129.69,-80.45 -174.03,-142.42l0.01 0zm3316.4 4.7l0 148.9c-19.07,9.13 -46.27,16.87 -81.6,23.2 -3.83,0.59 -7.74,1.39 -11.56,1.92 -38.29,6.19 -73.01,9.51 -104.14,9.98 -1.11,0.01 -2.2,0.01 -3.3,0.01 -1.09,0 -2.19,0 -3.29,0 -2.63,-0.01 -5.42,0.05 -8.09,0.05 -47.95,0 -95.71,-6.82 -141.74,-20.16 -109.65,-33.87 -178.85,-110.4 -207.58,-229.6 -10.19,-44.57 -15.34,-90.34 -15.34,-136.1 0,-2.24 0.08,-4.63 0.08,-6.79l-0.04 -764.01 -184 0 0 -93.8 184 -80.8 82.1 -274.3 112.5 0 0 297.7 372.6 0 0 151.2 -372.6 0 0 755.8c0,54.33 9.03,99.8 27.1,136.4 7.36,15.09 16.79,29.19 27.89,41.79 28.73,32.34 68.22,53.36 111.11,59.1 13.01,1.96 26.22,3.01 39.39,3.01 0.22,0 0.48,0 0.7,0 0.39,0 0.93,0 1.32,0 30.81,0 61.86,-2.26 92.28,-6.71 1.96,-0.31 4.05,-0.74 5.99,-1.02 30.61,-4.78 55.15,-9.77 73.62,-14.97 0.81,-0.25 1.77,-0.53 2.59,-0.78l0.01 -0.02zm847.3 0l0 148.9c-19.07,9.13 -46.27,16.87 -81.6,23.2 -3.83,0.59 -7.74,1.39 -11.56,1.92 -38.36,6.19 -73.11,9.51 -104.24,9.98 -1.11,0.01 -2.2,0.01 -3.3,0.01 -1.09,0 -2.19,0 -3.29,0 -2.54,-0.01 -5.39,0.05 -8,0.05 -47.95,0 -95.71,-6.82 -141.74,-20.16 -109.71,-33.87 -178.9,-110.4 -207.57,-229.6 -10.19,-44.57 -15.34,-90.34 -15.34,-136.1 0,-2.24 0.08,-4.63 0.08,-6.79l-0.04 -764.01 -184 0 0 -93.8 184 -80.8 82 -274.3 112.5 0 0 297.7 372.7 0 0 151.2 -372.7 0 0 755.8c0,54.33 9.07,99.8 27.2,136.4 7.36,15.09 16.79,29.19 27.89,41.79 28.73,32.34 68.22,53.36 111.11,59.1 13.01,1.96 26.22,3.01 39.39,3.01 0.22,0 0.48,0 0.7,0 0.39,0 0.93,0 1.32,0 30.81,0 61.86,-2.26 92.28,-6.71 1.96,-0.31 4.05,-0.74 5.99,-1.02 30.55,-4.78 55.05,-9.77 73.52,-14.97 0.86,-0.24 1.86,-0.56 2.71,-0.81l-0.01 0.01zm-1937.2 7.6c24.43,-27.21 46.23,-57.09 64.71,-88.7 62.33,-106.73 93.49,-240.63 93.49,-401.7 0,-203.87 -52.9,-365.57 -158.7,-485.1 -105.87,-119.53 -248.67,-179.3 -428.4,-179.3 -1.18,-0.01 -2.56,-0.01 -3.76,-0.01 -44.18,0 -88.45,3.97 -131.9,11.62 -115.79,18.64 -221.82,76.49 -300.27,163.61 -69.51,77.52 -115.94,175.48 -139.27,293.88 -11.68,61.87 -17.72,125.25 -17.72,188.39 0,2.22 0,4.69 0,6.91 0.01,1.33 0.01,2.63 0.01,3.94 0,51.45 4.16,102.89 12.24,153.63 10.64,67.94 31.02,134.18 60.36,196.29 4.44,9.24 9.28,18.77 14.2,27.74 44.37,84.18 110.84,154.84 192.1,204.28 38.89,23.53 80.82,42.25 124.34,55.35 57.28,16.9 117.15,25.59 177.02,25.59 1.45,0 2.98,0 4.42,0 1.14,-0.01 2.33,-0.01 3.44,-0.01 42.98,0 86.14,-3.69 128.47,-10.97 117.63,-18.42 225.57,-76.92 305.22,-165.43l0 -0.01zm3144.2 0c24.47,-27.22 46.2,-57.1 64.62,-88.71 62.39,-106.73 93.58,-240.62 93.58,-401.69 0,-203.87 -52.93,-365.57 -158.8,-485.1 -105.87,-119.53 -248.63,-179.3 -428.3,-179.3 -1.18,-0.01 -2.56,-0.01 -3.76,-0.01 -44.18,0 -88.45,3.97 -131.9,11.62 -115.77,18.66 -221.86,76.45 -300.32,163.57 -69.48,77.55 -115.92,175.52 -139.32,293.92 -11.68,61.87 -17.72,125.25 -17.72,188.39 0,2.22 0,4.69 0,6.91 0.01,1.33 0.01,2.63 0.01,3.94 0,51.45 4.16,102.89 12.24,153.63 10.59,67.98 31.06,134.22 60.49,196.33 4.35,9.27 9.26,18.64 14.1,27.69 44.34,84.19 110.81,154.85 192.07,204.29 38.89,23.53 80.82,42.25 124.34,55.35 57.29,16.9 117.16,25.59 177.03,25.59 1.45,0 3.13,0 4.58,0 1.07,-0.01 2.26,-0.01 3.37,-0.01 42.98,0 86.14,-3.69 128.47,-10.97 117.63,-18.42 225.57,-76.92 305.22,-165.43l0 -0.01zm-3964.5 -490.4c-0.01,1.6 -0.01,3.29 -0.01,4.85 0,45.34 3.13,91.04 9.38,135.9 6.89,47.63 17.6,90.72 32.13,129.25 13.71,37.57 33,72.99 57.01,104.98 50.52,66.34 125.09,110.29 207.61,122.31 26.21,4.37 52.93,6.61 79.59,6.61 0.71,0 1.48,0 2.18,0 1.46,0.02 3.01,0.02 4.44,0.02 38.72,0 77.39,-5.02 114.79,-14.84 68.01,-17.65 128.21,-57.62 170.87,-113.49 49.07,-63.59 79.91,-149.12 92.51,-256.59 4.26,-38.1 6.51,-76.88 6.51,-115.29 0,-1.13 0,-2.63 0,-3.75 0,-1.53 0,-3.31 0,-4.85 0,-44.55 -3.2,-89.35 -9.24,-133.43 -6.78,-46.92 -17.3,-89.41 -31.57,-127.48 -13.84,-38.07 -33.54,-74.06 -58.19,-106.28 -49.17,-63.03 -120.23,-105.45 -199.03,-118.74 -29.75,-5.58 -60.11,-8.39 -90.42,-8.39 -0.96,0 -1.98,0 -2.93,0 -1.38,-0.01 -2.9,-0.01 -4.26,-0.01 -37.42,0 -74.78,4.58 -111.07,13.51 -68.71,16.44 -129.79,55.97 -172.98,111.9 -46.68,60.14 -76.55,141.58 -89.62,244.31 -5.07,41.55 -7.71,83.72 -7.71,125.64 0,1.25 0,2.64 0,3.89l0.01 -0.03zm3144.2 0c-0.02,1.82 -0.02,3.75 -0.02,5.55 0,45.1 3.13,90.56 9.26,135.18 6.97,47.65 17.69,90.74 32.16,129.27 13.71,37.57 33,72.99 57.01,104.98 50.51,66.32 125.2,110.34 207.71,122.33 26.21,4.35 52.93,6.59 79.59,6.59 0.71,0 1.48,0 2.18,0 1.46,0.02 3.01,0.02 4.44,0.02 38.72,0 77.39,-5.02 114.79,-14.84 67.96,-17.66 128.17,-57.67 170.79,-113.49 49.06,-63.59 79.89,-149.12 92.49,-256.59 4.26,-38.1 6.51,-76.88 6.51,-115.29 0,-1.13 0,-2.63 0,-3.75 0,-1.53 0,-3.31 0,-4.85 0,-44.55 -3.2,-89.35 -9.24,-133.43 -6.71,-46.92 -17.2,-89.41 -31.47,-127.48 -13.9,-38.12 -33.6,-74.06 -58.29,-106.28 -49.17,-63.03 -120.23,-105.45 -199.03,-118.74 -29.75,-5.58 -60.11,-8.39 -90.42,-8.39 -0.96,0 -1.98,0 -2.93,0 -1.4,-0.01 -2.81,-0.01 -4.17,-0.01 -37.42,0 -74.78,4.58 -111.07,13.51 -68.7,16.43 -129.9,55.96 -173.09,111.9 -46.67,60.14 -76.53,141.58 -89.6,244.31 -4.97,41.27 -7.61,83.19 -7.61,124.86 0,1.51 0,3.14 0,4.64l0.01 0zm-4387.4 -450.9c-29.06,16.87 -54.61,39.26 -75.11,65.89 -58.59,76.21 -87.89,204.54 -87.89,385.01 -0.01,1.7 -0.01,3.9 -0.01,5.63 0,42.4 2.2,85.26 6.28,127.35 9.35,89.41 28.96,161.32 58.83,215.72 7.31,13.48 15.76,26.41 25.11,38.59 36.44,46.36 86.54,80.19 143.18,96.63 42.54,13.32 91.31,19.98 146.31,19.98 1.37,0.02 2.89,0.02 4.26,0.02 35.75,0 71.49,-4.97 105.86,-14.72 64.52,-18.47 120.37,-59.7 157.09,-115.89 24.17,-36.86 42.87,-77.32 55.19,-119.63 11.53,-37.79 20.03,-79.58 25.5,-125.38 4.66,-41.61 7.11,-83.8 7.11,-125.71 0,-1.5 0,-3.4 0,-4.9 0,-1.63 0,-3.46 0,-5.14 0,-41.95 -2.38,-84.19 -6.87,-125.86 -11.89,-102.93 -38.87,-183.89 -80.94,-242.89 -43,-60.16 -107.91,-101.23 -180.71,-114.29 -28.93,-5.75 -58.54,-8.72 -88.09,-8.72 -0.99,0 -2.09,0 -3.07,0 -86.35,0.01 -157.03,16.11 -212.03,48.31z" vector-effect="non-scaling-stroke"/>
  <circle id="path1480" class="fil0 str2" cx="3136.96" cy="2896.4" r="440.12"/>
  <circle id="ellipse1502" class="fil0 str2" cx="4518.01" cy="2896.4" r="440.12"/>
  <circle id="ellipse1504" class="fil0 str2" cx="15849.1" cy="2896.4" r="440.12"/>
  <circle id="ellipse1506" class="fil0 str2" cx="17441.68" cy="2896.4" r="440.12"/>
  <circle id="ellipse1508" class="fil0 str2" cx="19053.21" cy="2896.4" r="440.12"/>
  <circle id="ellipse1510" class="fil0 str2" cx="21138.72" cy="2896.4" r="440.12"/>
  <circle id="ellipse1512" class="fil0 str2" cx="31651.6" cy="2896.4" r="591.11"/>
  <path id="path2996" class="fil0 str3" d="M4043.63 7608.15c0,-0.03 0,-0.15 0,-0.15 0,-261.95 212.43,-474.39 474.39,-474.39 261.95,0 474.39,212.44 474.39,474.39 0,0 0,0.12 0,0.12 0,0 0,0.12 0,0.12 0,261.95 -212.44,474.39 -474.39,474.39 -261.96,0 -474.39,-212.44 -474.39,-474.39 0,0 0,-0.12 0,-0.12" inkscape:connector-curvature="0" fpd:print_element="0" fpd:visible="front back"/>
  <path id="path3006" class="fil0 str3" d="M6837.63 7608.15c0,-261.96 212.43,-474.4 474.39,-474.4 261.95,0 474.39,212.44 474.39,474.39 0,261.95 -212.44,474.39 -474.39,474.39 -261.96,0 -474.39,-212.44 -474.39,-474.39" inkscape:connector-curvature="0" fpd:print_element="0" fpd:visible="front back"/>
  <path id="path3008" class="fil0 str3" d="M9631.62 7608.25c0.01,-0.08 0.01,-0.19 0.01,-0.25 0,-261.85 212.43,-474.2 474.39,-474.2 261.95,0 474.39,212.35 474.39,474.2 0,0.06 0,0.17 0,0.23 0,0.08 0,0.19 0,0.25 0,261.85 -212.44,474.2 -474.39,474.2 -261.96,0 -474.39,-212.35 -474.39,-474.2 0,-0.06 0,-0.17 0,-0.23" inkscape:connector-curvature="0" fpd:print_element="0" fpd:visible="front back"/>
  <path id="path3010" class="fil0 str3" d="M12425.63 7607.81c0,-0.14 0,-0.25 0,-0.37 0,-261.95 212.43,-474.39 474.39,-474.39 261.95,0 474.39,212.44 474.39,474.39 0,0.12 0,0.23 0,0.35 0,0.15 0,0.26 0,0.38 0,261.95 -212.44,474.39 -474.39,474.39 -261.96,0 -474.39,-212.44 -474.39,-474.39 0,-0.12 0,-0.23 0,-0.35" inkscape:connector-curvature="0" fpd:print_element="0" fpd:visible="front back"/>
  <path id="path3012" class="fil0 str3" d="M15219.95 7608.02c0,-0.14 0,-0.37 0,-0.49 0,-261.78 212.29,-474.07 474.07,-474.07 261.78,0 474.07,212.29 474.07,474.07 0,0.12 0,0.35 0,0.46 0,0.15 0,0.38 0,0.5 0,261.78 -212.29,474.07 -474.07,474.07 -261.78,0 -474.07,-212.29 -474.07,-474.07 0,-0.12 0,-0.35 0,-0.46" inkscape:connector-curvature="0" fpd:print_element="0" fpd:visible="front back"/>
  <path id="path3014" class="fil0 str3" d="M24617.63 7607.81c0,-0.14 0,-0.25 0,-0.37 0,-261.95 212.43,-474.39 474.39,-474.39 261.95,0 474.39,212.44 474.39,474.39 0,0.12 0,0.23 0,0.35 0,0.15 0,0.26 0,0.38 0,261.95 -212.44,474.39 -474.39,474.39 -261.96,0 -474.39,-212.44 -474.39,-474.39 0,-0.12 0,-0.23 0,-0.35" inkscape:connector-curvature="0" fpd:print_element="0" fpd:visible="front back"/>
  <path id="path3016" class="fil0 str3" d="M27411.63 7608.15c0,-0.14 0,-0.25 0,-0.37 0,-261.95 212.43,-474.39 474.39,-474.39 261.95,0 474.39,212.44 474.39,474.39 0,0.12 0,0.23 0,0.35 0,0.14 0,0.25 0,0.37 0,261.95 -212.44,474.39 -474.39,474.39 -261.96,0 -474.39,-212.44 -474.39,-474.39 0,-0.12 0,-0.23 0,-0.35" inkscape:connector-curvature="0" fpd:print_element="0" fpd:visible="front back"/>
  <path id="path3018" class="fil0 str3" d="M18013.63 7607.81c0,-0.14 0,-0.25 0,-0.37 0,-261.95 212.43,-474.39 474.39,-474.39 261.95,0 474.39,212.44 474.39,474.39 0,0.12 0,0.23 0,0.35 0,0.15 0,0.26 0,0.38 0,261.95 -212.44,474.39 -474.39,474.39 -261.96,0 -474.39,-212.44 -474.39,-474.39 0,-0.12 0,-0.23 0,-0.35" inkscape:connector-curvature="0" fpd:print_element="0" fpd:visible="front back"/>
  <path id="path3020" class="fil0 str3" d="M20807.63 7608.15c0,-0.14 0,-0.25 0,-0.37 0,-261.95 212.43,-474.39 474.39,-474.39 261.95,0 474.39,212.44 474.39,474.39 0,0.12 0,0.23 0,0.35 0,0.14 0,0.25 0,0.37 0,261.95 -212.44,474.39 -474.39,474.39 -261.96,0 -474.39,-212.44 -474.39,-474.39 0,-0.12 0,-0.23 0,-0.35" inkscape:connector-curvature="0" fpd:print_element="0" fpd:visible="front back"/>
  <path id="path3022" class="fil0 str3" d="M41635.63 7607.81c0,-0.27 0,-0.56 0,-0.79 0,-261.95 212.44,-474.39 474.39,-474.39 261.95,0 474.39,212.44 474.39,474.39 0,0.23 0,0.52 0,0.75 0,0.29 0,0.58 0,0.81 0,261.95 -212.44,474.39 -474.39,474.39 -261.95,0 -474.39,-212.44 -474.39,-474.39 0,-0.23 0,-0.52 0,-0.75" inkscape:connector-curvature="0" fpd:print_element="0" fpd:visible="front back"/>
  <path id="path3024" class="fil0 str3" d="M36809.63 7608.15c0,-0.27 0,-0.56 0,-0.79 0,-261.95 212.44,-474.39 474.39,-474.39 261.95,0 474.39,212.44 474.39,474.39 0,0.23 0,0.52 0,0.75 0,0.29 0,0.58 0,0.81 0,261.95 -212.44,474.39 -474.39,474.39 -261.95,0 -474.39,-212.44 -474.39,-474.39 0,-0.23 0,-0.52 0,-0.75" inkscape:connector-curvature="0" fpd:print_element="0" fpd:visible="front back"/>
  <path id="path3026" class="fil0 str3" d="M30205.63 7607.81c0,-0.14 0,-0.25 0,-0.37 0,-261.95 212.43,-474.39 474.39,-474.39 261.95,0 474.39,212.44 474.39,474.39 0,0.12 0,0.23 0,0.35 0,0.15 0,0.26 0,0.38 0,261.95 -212.44,474.39 -474.39,474.39 -261.96,0 -474.39,-212.44 -474.39,-474.39 0,-0.12 0,-0.23 0,-0.35" inkscape:connector-curvature="0" fpd:print_element="0" fpd:visible="front back"/>
  <path id="path3028" class="fil0 str3" d="M34015.63 7607.79c0,0.01 0,-0.11 0,-0.11 0,-261.95 212.44,-474.39 474.39,-474.39 261.95,0 474.39,212.44 474.39,474.39 0,0 0,0.12 0,0.12 0,-0.05 0,0.07 0,0.07 0,261.95 -212.44,474.39 -474.39,474.39 -261.95,0 -474.39,-212.44 -474.39,-474.39 0,0 0,-0.12 0,-0.12" inkscape:connector-curvature="0" fpd:print_element="0" fpd:visible="front back"/>
  <path id="path3030" class="fil0 str3" d="M5755.01 8878.15c0.01,-88.36 71.66,-160.01 160.01,-160.01 88.35,0 160,71.65 160,160 0,88.35 -71.65,160 -160,160 -88.35,0 -160,-71.65 -160,-160" fpd:print_element="0" fpd:visible="front back" inkscape:connector-curvature="0"/>
  <path id="path3032" class="fil0 str3" d="M22837.01 8243.15c0.01,0 0.01,-0.09 0.01,-0.09 0,-193.27 156.73,-350 350,-350 193.27,0 350,156.73 350,350 0,0 0,0.09 0,0.09 0,-0.01 0,0.07 0,0.07 0,193.27 -156.73,350 -350,350 -193.27,0 -350,-156.73 -350,-350 0,0 0,-0.08 0,-0.08" fpd:print_element="0" fpd:visible="front back" inkscape:connector-curvature="0"/>
  <path id="path3034" class="fil0 str3" d="M32235.01 8243.15c0.01,-0.05 0.01,-0.22 0.01,-0.26 0,-193.27 156.73,-350 350,-350 193.27,0 350,156.73 350,350 0,0.04 0,0.21 0,0.26 0,0.03 0,0.2 0,0.24 0,193.27 -156.73,350 -350,350 -193.27,0 -350,-156.73 -350,-350 0,-0.04 0,-0.21 0,-0.26" fpd:print_element="0" fpd:visible="front back" inkscape:connector-curvature="0"/>
  <path id="path3036" class="fil0 str3" d="M35727.01 8878.15c0.01,-0.06 0.01,-0.18 0.01,-0.24 0,-88.35 71.65,-160 160,-160 88.35,0 160,71.65 160,160 0,0.06 0,0.18 0,0.24 0,0.04 0,0.16 0,0.22 0,88.35 -71.65,160 -160,160 -88.35,0 -160,-71.65 -160,-160 0,-0.06 0,-0.18 0,-0.23" fpd:print_element="0" fpd:visible="front back" inkscape:connector-curvature="0"/>
  <path id="path3038" class="fil0 str3" d="M19725.01 8878.15c0.01,-0.03 0.01,-0.07 0.01,-0.09 0,-88.35 71.65,-160 160,-160 88.35,0 160,71.65 160,160 0,0.02 0,0.06 0,0.08 0,0.02 0,0.06 0,0.08 0,88.35 -71.65,160 -160,160 -88.35,0 -160,-71.65 -160,-160 0,-0.02 0,-0.06 0,-0.08" fpd:print_element="0" fpd:visible="front back" inkscape:connector-curvature="0"/>
  <path id="path3040" class="fil0 str3" d="M26329.01 8878.15c0.01,-0.03 0.01,-0.07 0.01,-0.09 0,-88.35 71.65,-160 160,-160 88.35,0 160,71.65 160,160 0,0.02 0,0.06 0,0.08 0,0.02 0,0.06 0,0.08 0,88.35 -71.65,160 -160,160 -88.35,0 -160,-71.65 -160,-160 0,-0.02 0,-0.06 0,-0.08" fpd:print_element="0" fpd:visible="front back" inkscape:connector-curvature="0"/>
  <path id="path3042" class="fil0 str3" d="M38839.01 8243.15c0.01,-0.05 0.01,-0.22 0.01,-0.26 0,-193.27 156.73,-350 350,-350 193.27,0 350,156.73 350,350 0,0.04 0,0.21 0,0.26 0,0.03 0,0.2 0,0.24 0,193.27 -156.73,350 -350,350 -193.27,0 -350,-156.73 -350,-350 0,-0.04 0,-0.21 0,-0.26" fpd:print_element="0" fpd:visible="front back" inkscape:connector-curvature="0"/>
  <path id="path3044" class="fil0 str3" d="M39855.01 8243.15c0.01,-0.05 0.01,-0.22 0.01,-0.26 0,-193.27 156.73,-350 350,-350 193.27,0 350,156.73 350,350 0,0.04 0,0.21 0,0.26 0,0.03 0,0.2 0,0.24 0,193.27 -156.73,350 -350,350 -193.27,0 -350,-156.73 -350,-350 0,-0.04 0,-0.21 0,-0.26" fpd:print_element="0" fpd:visible="front back" inkscape:connector-curvature="0"/>
 </g>
</svg>
