<?xml version="1.0" encoding="UTF-8" standalone="no"?>
<svg
   xmlns:fpd="http://www.schaeffer-ag.de"
   xmlns:dc="http://purl.org/dc/elements/1.1/"
   xmlns:cc="http://creativecommons.org/ns#"
   xmlns:rdf="http://www.w3.org/1999/02/22-rdf-syntax-ns#"
   xmlns:svg="http://www.w3.org/2000/svg"
   xmlns="http://www.w3.org/2000/svg"
   xmlns:sodipodi="http://sodipodi.sourceforge.net/DTD/sodipodi-0.dtd"
   xmlns:inkscape="http://www.inkscape.org/namespaces/inkscape"
   width="1006mm"
   height="243mm"
   viewBox="0 0 1006 243"
   version="1.1"
   preserveAspectRatio="xMidYMid meet"
   id="svg7017"
   sodipodi:docname="box.svg"
   inkscape:version="0.92.2 5c3e80d, 2017-08-06">
  <metadata
     id="metadata7023">
    <rdf:RDF>
      <cc:Work
         rdf:about="">
        <dc:format>image/svg+xml</dc:format>
        <dc:type
           rdf:resource="http://purl.org/dc/dcmitype/StillImage" />
        <dc:title />
      </cc:Work>
    </rdf:RDF>
  </metadata>
  <defs
     id="defs7021">
    <pattern
       patternUnits="userSpaceOnUse"
       height="4.826"
       width="4.826"
       y="1"
       x="1"
       id="revside-fill">
      <line
         id="line4477"
         style="stroke-width:0.483; stroke:black; stroke-dasharray:none;"
         y2="4.826"
         x2="4.826"
         y1="0"
         x1="0" />
      <line
         id="line4479"
         style="stroke-width:0.483; stroke:black; stroke-dasharray:none;"
         y2="0"
         x2="4.826"
         y1="4.826"
         x1="0" />
    </pattern>
    <pattern
       patternUnits="userSpaceOnUse"
       height="4.826"
       width="4.826"
       y="1"
       x="1"
       id="revside-fill-silver">
      <line
         id="line4482"
         style="stroke-width:0.483; stroke:#e0e0e0; stroke-dasharray:none;"
         y2="4.826"
         x2="4.826"
         y1="0"
         x1="0" />
      <line
         id="line4484"
         style="stroke-width:0.483; stroke:#e0e0e0; stroke-dasharray:none;"
         y2="0"
         x2="4.826"
         y1="4.826"
         x1="0" />
    </pattern>
    <pattern
       patternUnits="userSpaceOnUse"
       height="4.826"
       width="4.826"
       y="1"
       x="1"
       id="revside-fill-7">
      <line
         id="line4477-9"
         style="stroke-width:0.483; stroke:black; stroke-dasharray:none;"
         y2="4.826"
         x2="4.826"
         y1="0"
         x1="0" />
      <line
         id="line4479-3"
         style="stroke-width:0.483; stroke:black; stroke-dasharray:none;"
         y2="0"
         x2="4.826"
         y1="4.826"
         x1="0" />
    </pattern>
    <pattern
       patternUnits="userSpaceOnUse"
       height="4.826"
       width="4.826"
       y="1"
       x="1"
       id="revside-fill-silver-8">
      <line
         id="line4482-0"
         style="stroke-width:0.483; stroke:#e0e0e0; stroke-dasharray:none;"
         y2="4.826"
         x2="4.826"
         y1="0"
         x1="0" />
      <line
         id="line4484-2"
         style="stroke-width:0.483; stroke:#e0e0e0; stroke-dasharray:none;"
         y2="0"
         x2="4.826"
         y1="4.826"
         x1="0" />
    </pattern>
  </defs>
  <path
     inkscape:connector-curvature="0"
     style="vector-effect:non-scaling-stroke;fill:#ffffff;fill-rule:evenodd;stroke:#ff0000;stroke-width:0.25400001;stroke-linecap:round;stroke-linejoin:round;stroke-miterlimit:4;stroke-dasharray:none;stroke-opacity:1"
     id="path2996"
     fpd:print_element="0"
     fpd:visible="front back"
     d="m 28.973883,221.10212 a 4.743852,4.743852 0 1 1 9.487704,0 4.7438515,4.7438515 0 1 1 -9.487703,0" />
  <path
     inkscape:connector-curvature="0"
     style="vector-effect:non-scaling-stroke;fill:#ffffff;fill-rule:evenodd;stroke:#ff0000;stroke-width:0.25400001;stroke-linecap:round;stroke-linejoin:round;stroke-miterlimit:4;stroke-dasharray:none;stroke-opacity:1"
     id="path3006"
     fpd:print_element="0"
     fpd:visible="front back"
     d="m 56.913884,221.10212 a 4.7438515,4.7438515 0 1 1 9.487703,0 4.7438515,4.7438515 0 1 1 -9.487703,0" />
  <path
     inkscape:connector-curvature="0"
     style="vector-effect:non-scaling-stroke;fill:#ffffff;fill-rule:evenodd;stroke:#ff0000;stroke-width:0.25400001;stroke-linecap:round;stroke-linejoin:round;stroke-miterlimit:4;stroke-dasharray:none;stroke-opacity:1"
     id="path3008"
     fpd:print_element="0"
     fpd:visible="front back"
     d="m 84.853835,221.10311 a 4.7439001,4.7419569 0 1 1 9.4878,0 4.7439001,4.7419569 0 1 1 -9.4878,0" />
  <path
     inkscape:connector-curvature="0"
     style="vector-effect:non-scaling-stroke;fill:#ffffff;fill-rule:evenodd;stroke:#ff0000;stroke-width:0.25400001;stroke-linecap:round;stroke-linejoin:round;stroke-miterlimit:4;stroke-dasharray:none;stroke-opacity:1"
     id="path3010"
     fpd:print_element="0"
     fpd:visible="front back"
     d="m 112.79388,221.09876 a 4.7438512,4.7438512 0 1 1 9.4877,0 4.7438512,4.7438512 0 1 1 -9.4877,0" />
  <path
     inkscape:connector-curvature="0"
     style="vector-effect:non-scaling-stroke;fill:#ffffff;fill-rule:evenodd;stroke:#ff0000;stroke-width:0.25400001;stroke-linecap:round;stroke-linejoin:round;stroke-miterlimit:4;stroke-dasharray:none;stroke-opacity:1"
     id="path3012"
     fpd:print_element="0"
     fpd:visible="front back"
     d="m 140.73707,221.10083 a 4.7406673,4.7406673 0 1 1 9.48133,0 4.7406673,4.7406673 0 1 1 -9.48133,0" />
  <path
     inkscape:connector-curvature="0"
     style="vector-effect:non-scaling-stroke;fill:#ffffff;fill-rule:evenodd;stroke:#ff0000;stroke-width:0.25400001;stroke-linecap:round;stroke-linejoin:round;stroke-miterlimit:4;stroke-dasharray:none;stroke-opacity:1"
     id="path3014"
     fpd:print_element="0"
     fpd:visible="front back"
     d="m 234.71389,221.09876 a 4.7438512,4.7438512 0 1 1 9.4877,0 4.7438512,4.7438512 0 1 1 -9.4877,0" />
  <path
     inkscape:connector-curvature="0"
     style="vector-effect:non-scaling-stroke;fill:#ffffff;fill-rule:evenodd;stroke:#ff0000;stroke-width:0.25400001;stroke-linecap:round;stroke-linejoin:round;stroke-miterlimit:4;stroke-dasharray:none;stroke-opacity:1"
     id="path3016"
     fpd:print_element="0"
     fpd:visible="front back"
     d="m 262.65389,221.10212 a 4.7438512,4.7438512 0 1 1 9.4877,0 4.7438512,4.7438512 0 1 1 -9.4877,0" />
  <path
     inkscape:connector-curvature="0"
     style="vector-effect:non-scaling-stroke;fill:#ffffff;fill-rule:evenodd;stroke:#ff0000;stroke-width:0.25400001;stroke-linecap:round;stroke-linejoin:round;stroke-miterlimit:4;stroke-dasharray:none;stroke-opacity:1"
     id="path3018"
     fpd:print_element="0"
     fpd:visible="front back"
     d="m 168.67387,221.09876 a 4.7438512,4.7438512 0 1 1 9.4877,0 4.7438512,4.7438512 0 1 1 -9.4877,0" />
  <path
     inkscape:connector-curvature="0"
     style="vector-effect:non-scaling-stroke;fill:#ffffff;fill-rule:evenodd;stroke:#ff0000;stroke-width:0.25400001;stroke-linecap:round;stroke-linejoin:round;stroke-miterlimit:4;stroke-dasharray:none;stroke-opacity:1"
     id="path3020"
     fpd:print_element="0"
     fpd:visible="front back"
     d="m 196.61388,221.10212 a 4.7438512,4.7438512 0 1 1 9.4877,0 4.7438512,4.7438512 0 1 1 -9.4877,0" />
  <path
     inkscape:connector-curvature="0"
     style="vector-effect:non-scaling-stroke;fill:#ffffff;fill-rule:evenodd;stroke:#ff0000;stroke-width:0.13553859mm;stroke-linecap:round;stroke-linejoin:round;stroke-opacity:1"
     id="path3022"
     fpd:print_element="0"
     fpd:visible="front back"
     d="m 404.89389,221.09876 a 4.7438512,4.7438512 0 1 1 9.4877,0 4.7438512,4.7438512 0 1 1 -9.4877,0" />
  <path
     inkscape:connector-curvature="0"
     style="vector-effect:non-scaling-stroke;fill:#ffffff;fill-rule:evenodd;stroke:#ff0000;stroke-width:0.25400001;stroke-linecap:round;stroke-linejoin:round;stroke-miterlimit:4;stroke-dasharray:none;stroke-opacity:1"
     id="path3024"
     fpd:print_element="0"
     fpd:visible="front back"
     d="m 356.63388,221.10212 a 4.7438512,4.7438512 0 1 1 9.4877,0 4.7438512,4.7438512 0 1 1 -9.4877,0" />
  <path
     inkscape:connector-curvature="0"
     style="vector-effect:non-scaling-stroke;fill:#ffffff;fill-rule:evenodd;stroke:#ff0000;stroke-width:0.25400001;stroke-linecap:round;stroke-linejoin:round;stroke-miterlimit:4;stroke-dasharray:none;stroke-opacity:1"
     id="path3026"
     fpd:print_element="0"
     fpd:visible="front back"
     d="m 290.59389,221.09876 a 4.7438512,4.7438512 0 1 1 9.4877,0 4.7438512,4.7438512 0 1 1 -9.4877,0" />
  <path
     inkscape:connector-curvature="0"
     style="vector-effect:non-scaling-stroke;fill:#ffffff;fill-rule:evenodd;stroke:#ff0000;stroke-width:0.25400001;stroke-linecap:round;stroke-linejoin:round;stroke-miterlimit:4;stroke-dasharray:none;stroke-opacity:1"
     id="path3028"
     fpd:print_element="0"
     fpd:visible="front back"
     d="m 328.69388,221.09849 a 4.7438514,4.7438514 0 1 1 9.4877,0 4.7438514,4.7438514 0 1 1 -9.4877,0" />
  <path
     style="vector-effect:non-scaling-stroke;fill:#ffffff;fill-rule:evenodd;stroke:#ff0000;stroke-width:0.25400001;stroke-linecap:round;stroke-linejoin:round;stroke-miterlimit:4;stroke-dasharray:none;stroke-opacity:1"
     id="path3030"
     fpd:print_element="0"
     fpd:visible="front back"
     d="m 46.087735,233.80212 a 1.6,1.6 0 1 1 3.2,0 1.6,1.6 0 1 1 -3.2,0"
     inkscape:connector-curvature="0" />
  <path
     style="vector-effect:non-scaling-stroke;fill:#ffffff;fill-rule:evenodd;stroke:#ff0000;stroke-width:0.25400001;stroke-linecap:round;stroke-linejoin:round;stroke-miterlimit:4;stroke-dasharray:none;stroke-opacity:1"
     id="path3032"
     fpd:print_element="0"
     fpd:visible="front back"
     d="m 216.90773,227.45212 a 3.5,3.5 0 1 1 7,0 3.5,3.5 0 1 1 -7,0"
     inkscape:connector-curvature="0" />
  <path
     style="vector-effect:non-scaling-stroke;fill:#ffffff;fill-rule:evenodd;stroke:#ff0000;stroke-width:0.25400001;stroke-linecap:round;stroke-linejoin:round;stroke-miterlimit:4;stroke-dasharray:none;stroke-opacity:1"
     id="path3034"
     fpd:print_element="0"
     fpd:visible="front back"
     d="m 310.88773,227.45212 a 3.5,3.5 0 1 1 7,0 3.5,3.5 0 1 1 -7,0"
     inkscape:connector-curvature="0" />
  <path
     style="vector-effect:non-scaling-stroke;fill:#ffffff;fill-rule:evenodd;stroke:#ff0000;stroke-width:0.25400001;stroke-linecap:round;stroke-linejoin:round;stroke-miterlimit:4;stroke-dasharray:none;stroke-opacity:1"
     id="path3036"
     fpd:print_element="0"
     fpd:visible="front back"
     d="m 345.80773,233.80212 a 1.6,1.6 0 1 1 3.2,0 1.6,1.6 0 1 1 -3.2,0"
     inkscape:connector-curvature="0" />
  <path
     style="vector-effect:non-scaling-stroke;fill:#ffffff;fill-rule:evenodd;stroke:#ff0000;stroke-width:0.25400001;stroke-linecap:round;stroke-linejoin:round;stroke-miterlimit:4;stroke-dasharray:none;stroke-opacity:1"
     id="path3038"
     fpd:print_element="0"
     fpd:visible="front back"
     d="m 185.78773,233.80212 a 1.6,1.6 0 1 1 3.2,0 1.6,1.6 0 1 1 -3.2,0"
     inkscape:connector-curvature="0" />
  <path
     style="vector-effect:non-scaling-stroke;fill:#ffffff;fill-rule:evenodd;stroke:#ff0000;stroke-width:0.1mm;stroke-linecap:round;stroke-linejoin:round;stroke-opacity:1"
     id="path3040"
     fpd:print_element="0"
     fpd:visible="front back"
     d="m 251.82773,233.80212 a 1.6,1.6 0 1 1 3.2,0 1.6,1.6 0 1 1 -3.2,0"
     inkscape:connector-curvature="0" />
  <path
     style="vector-effect:non-scaling-stroke;fill:#ffffff;fill-rule:evenodd;stroke:#ff0000;stroke-width:0.1mm;stroke-linecap:round;stroke-linejoin:round;stroke-opacity:1"
     id="path3042"
     fpd:print_element="0"
     fpd:visible="front back"
     d="m 376.92773,227.45212 a 3.5,3.5 0 1 1 7,0 3.5,3.5 0 1 1 -7,0"
     inkscape:connector-curvature="0" />
  <path
     style="vector-effect:non-scaling-stroke;fill:#ffffff;fill-rule:evenodd;stroke:#ff0000;stroke-width:0.1mm;stroke-linecap:round;stroke-linejoin:round;stroke-opacity:1"
     id="path3044"
     fpd:print_element="0"
     fpd:visible="front back"
     d="m 387.08773,227.45212 a 3.5,3.5 0 1 1 7,0 3.5,3.5 0 1 1 -7,0"
     inkscape:connector-curvature="0" />
  <ellipse
     style="fill:none;stroke:#ff0000;stroke-width:0.25400001;stroke-miterlimit:4;stroke-dasharray:none;stroke-opacity:1"
     id="path1480"
     cx="19.907167"
     cy="173.98848"
     rx="4.4011822"
     ry="4.4011817" />
  <ellipse
     ry="4.4011817"
     rx="4.4011822"
     cy="173.98848"
     cx="33.717735"
     id="ellipse1502"
     style="fill:none;stroke:#ff0000;stroke-width:0.25400001;stroke-miterlimit:4;stroke-dasharray:none;stroke-opacity:1" />
  <ellipse
     style="fill:none;stroke:#ff0000;stroke-width:0.25400001;stroke-miterlimit:4;stroke-dasharray:none;stroke-opacity:1"
     id="ellipse1504"
     cx="147.02864"
     cy="173.98848"
     rx="4.4011822"
     ry="4.4011817" />
  <ellipse
     ry="4.4011817"
     rx="4.4011822"
     cy="173.98848"
     cx="162.95438"
     id="ellipse1506"
     style="fill:none;stroke:#ff0000;stroke-width:0.25400001;stroke-miterlimit:4;stroke-dasharray:none;stroke-opacity:1" />
  <ellipse
     style="fill:none;stroke:#ff0000;stroke-width:0.25400001;stroke-miterlimit:4;stroke-dasharray:none;stroke-opacity:1"
     id="ellipse1508"
     cx="179.0697"
     cy="173.98848"
     rx="4.4011822"
     ry="4.4011817" />
  <ellipse
     ry="4.4011817"
     rx="4.4011822"
     cy="173.98848"
     cx="199.92484"
     id="ellipse1510"
     style="fill:none;stroke:#ff0000;stroke-width:0.25400001;stroke-miterlimit:4;stroke-dasharray:none;stroke-opacity:1" />
  <circle
     style="fill:none;stroke:#ff0000;stroke-width:0.25400001;stroke-miterlimit:4;stroke-dasharray:none;stroke-opacity:1"
     id="ellipse1512"
     cx="305.05362"
     cy="173.98848"
     r="5.9111605" />
  <sodipodi:namedview
     pagecolor="#ffffff"
     bordercolor="#666666"
     borderopacity="1"
     objecttolerance="10"
     gridtolerance="10"
     guidetolerance="10"
     inkscape:pageopacity="0"
     inkscape:pageshadow="2"
     inkscape:window-width="1364"
     inkscape:window-height="694"
     id="namedview7019"
     showgrid="false"
     inkscape:zoom="0.73118044"
     inkscape:cx="244.74162"
     inkscape:cy="260.74968"
     inkscape:window-x="41"
     inkscape:window-y="75"
     inkscape:window-maximized="0"
     inkscape:current-layer="svg7017"
     inkscape:snap-bbox="true"
     inkscape:bbox-paths="true"
     showguides="true"
     inkscape:guide-bbox="true"
     inkscape:snap-object-midpoints="true"
     inkscape:snap-center="true"
     inkscape:bbox-nodes="true"
     inkscape:measure-start="26.4567,188.976"
     inkscape:measure-end="26.4567,332.598"
     inkscape:lockguides="false"
     inkscape:document-units="mm">
    <sodipodi:guide
       position="45.502095,44.050001"
       orientation="0,1"
       id="guide2121"
       inkscape:locked="false" />
    <sodipodi:guide
       position="33.717735,24.861081"
       orientation="1,0"
       id="guide2144"
       inkscape:locked="false" />
    <sodipodi:guide
       position="-19.811231,22.656451"
       orientation="1,0"
       id="guide2146"
       inkscape:locked="false" />
    <sodipodi:guide
       position="48.999999,-6.8254952e-08"
       orientation="0,1"
       inkscape:locked="false"
       id="guide3052" />
    <sodipodi:guide
       position="0.56877619,21.897884"
       orientation="0,1"
       id="guide1462"
       inkscape:locked="false" />
    <sodipodi:guide
       position="21.518699,46.950001"
       orientation="0,1"
       id="guide1464"
       inkscape:locked="false" />
    <sodipodi:guide
       position="6.9201103,69.011515"
       orientation="0,1"
       id="guide1466"
       inkscape:locked="false" />
    <sodipodi:guide
       position="19.907167,82.567348"
       orientation="1,0"
       id="guide1468"
       inkscape:locked="false" />
    <sodipodi:guide
       position="147.02864,90.340623"
       orientation="1,0"
       id="guide1470"
       inkscape:locked="false" />
    <sodipodi:guide
       position="162.95438,86.548781"
       orientation="1,0"
       id="guide1472"
       inkscape:locked="false" />
    <sodipodi:guide
       position="179.0697,82.093368"
       orientation="1,0"
       id="guide1474"
       inkscape:locked="false" />
    <sodipodi:guide
       position="199.92483,89.487459"
       orientation="1,0"
       id="guide1476"
       inkscape:locked="false" />
    <sodipodi:guide
       position="305.05363,90.151031"
       orientation="1,0"
       id="guide1478"
       inkscape:locked="false" />
  </sodipodi:namedview>
  <path
     inkscape:connector-curvature="0"
     style="font-size:medium;vector-effect:non-scaling-stroke;fill:none;fill-rule:evenodd;stroke:#ff0000;stroke-width:0.25400001;stroke-linecap:round;stroke-miterlimit:4;stroke-dasharray:none"
     id="front_outsideCutPath"
     d="m 0,199 v 7 h 3 v 6 H 0 v 6 h 3 v 6 H 0 v 6 h 3 v 6 H 0 v 6 1 h 7 v -3 h 6 v 3 h 6 v -3 h 6 v 3 h 6 v -3 h 6 v 3 h 6 v -3 h 6 v 3 h 6 v -3 h 6 v 3 h 6 v -3 h 6 v 3 h 6 v -3 h 6 v 3 h 6 v -3 h 6 v 3 h 6 v -3 h 6 v 3 h 6 v -3 h 6 v 3 h 6 v -3 h 6 v 3 h 6 v -3 h 6 v 3 h 6 v -3 h 6 v 3 h 6 v -3 h 6 v 3 h 6 v -3 h 6 v 3 h 6 v -3 h 6 v 3 h 6 v -3 h 6 v 3 h 6 v -3 h 6 v 3 h 6 v -3 h 6 v 3 h 6 v -3 h 6 v 3 h 6 v -3 h 6 v 3 h 6 v -3 h 6 v 3 h 6 v -3 h 6 v 3 h 6 v -3 h 6 v 3 h 6 v -3 h 6 v 3 h 6 v -3 h 6 v 3 h 6 v -3 h 6 v 3 h 6 v -3 h 6 v 3 h 6 v -3 h 6 v 3 h 6 v -3 h 6 v 3 h 6 v -3 h 6 v 3 h 6 v -3 h 6 v 3 h 6 v -3 h 6 v 3 h 6 v -3 h 6 v 3 h 6 v -3 h 6 v 3 h 6 v -3 h 6 v 3 h 6 1 v -7 h -3 v -6 h 3 v -6 h -3 v -6 h 3 v -6 h -3 v -6 h 3 v -6 -1 h -7 v 3 h -6 v -3 h -6 v 3 h -6 v -3 h -6 v 3 h -6 v -3 h -6 v 3 h -6 v -3 h -6 v 3 h -6 v -3 h -6 v 3 h -6 v -3 h -6 v 3 h -6 v -3 h -6 v 3 h -6 v -3 h -6 v 3 h -6 v -3 h -6 v 3 h -6 v -3 h -6 v 3 h -6 v -3 h -6 v 3 h -6 v -3 h -6 v 3 h -6 v -3 h -6 v 3 h -6 v -3 h -6 v 3 h -6 v -3 h -6 v 3 h -6 v -3 h -6 v 3 h -6 v -3 h -6 v 3 h -6 v -3 h -6 v 3 h -6 v -3 h -6 v 3 h -6 v -3 h -6 v 3 h -6 v -3 h -6 v 3 h -6 v -3 h -6 v 3 h -6 v -3 h -6 v 3 h -6 v -3 h -6 v 3 h -6 v -3 h -6 v 3 h -6 v -3 h -6 v 3 h -6 v -3 h -6 v 3 h -6 v -3 h -6 v 3 h -6 v -3 h -6 v 3 h -6 v -3 h -6 v 3 h -6 v -3 h -6 v 3 h -6 v -3 h -6 v 3 h -6 v -3 h -6 v 3 h -6 v -3 h -6 v 3 h -6 v -3 h -6 v 3 H 7 v -3 H 1 Z" />
  <path
     inkscape:connector-curvature="0"
     style="font-size:medium;vector-effect:non-scaling-stroke;fill:#777777;fill-rule:evenodd;stroke:#777777;stroke-width:0.25000001mm;stroke-linecap:round"
     id="front_labelLayer"
     d="M 226.413,224.324 H 225.7 v -3.047 a 2.016,2.016 0 0 0 -0.023,-0.316 q -0.055,-0.344 -0.239,-0.543 a 0.804,0.804 0 0 0 -0.33,-0.211 q -0.13,-0.045 -0.289,-0.063 a 1.891,1.891 0 0 0 -0.202,-0.01 2.159,2.159 0 0 0 -0.404,0.035 q -0.437,0.084 -0.679,0.365 a 1.166,1.166 0 0 0 -0.202,0.354 q -0.142,0.376 -0.142,0.965 v 2.471 h -0.713 v -4.71 h 0.58 l 0.116,0.645 h 0.035 a 1.444,1.444 0 0 1 0.565,-0.515 1.737,1.737 0 0 1 0.049,-0.025 1.931,1.931 0 0 1 0.687,-0.183 2.336,2.336 0 0 1 0.194,-0.008 2.816,2.816 0 0 1 0.479,0.038 q 0.503,0.087 0.801,0.373 a 1.236,1.236 0 0 1 0.302,0.472 q 0.072,0.195 0.103,0.437 a 3.113,3.113 0 0 1 0.025,0.403 z m -13.703,-4.71 v 0.554 h -1.198 v 4.156 h -0.714 v -4.156 h -0.842 v -0.322 l 0.842,-0.258 v -0.262 q 0,-1.498 1.131,-1.703 a 2.168,2.168 0 0 1 0.386,-0.033 2.297,2.297 0 0 1 0.325,0.025 q 0.158,0.023 0.334,0.066 a 4.617,4.617 0 0 1 0.218,0.06 l -0.185,0.571 q -0.293,-0.094 -0.525,-0.122 a 1.534,1.534 0 0 0 -0.18,-0.011 0.962,0.962 0 0 0 -0.232,0.026 0.618,0.618 0 0 0 -0.365,0.243 q -0.193,0.268 -0.193,0.861 v 0.305 z m 17.334,4.121 v 0.546 a 0.702,0.702 0 0 1 -0.083,0.033 q -0.089,0.029 -0.216,0.052 a 2.667,2.667 0 0 1 -0.043,0.007 3.092,3.092 0 0 1 -0.201,0.026 q -0.109,0.01 -0.205,0.01 -1.366,0 -1.366,-1.439 v -2.802 h -0.675 v -0.343 l 0.675,-0.297 0.301,-1.005 h 0.412 v 1.091 h 1.367 v 0.554 h -1.367 v 2.772 a 1.436,1.436 0 0 0 0.021,0.252 q 0.044,0.246 0.181,0.401 a 0.663,0.663 0 0 0 0.407,0.217 0.953,0.953 0 0 0 0.147,0.011 2.343,2.343 0 0 0 0.344,-0.025 2.157,2.157 0 0 0 0.022,-0.003 q 0.168,-0.027 0.269,-0.055 a 1.074,1.074 0 0 0 0.01,-0.003 z m -13.763,-4.155 -0.099,0.662 a 3.144,3.144 0 0 0 -0.226,-0.042 q -0.157,-0.023 -0.289,-0.023 a 1.236,1.236 0 0 0 -0.913,0.394 1.691,1.691 0 0 0 -0.065,0.07 1.629,1.629 0 0 0 -0.393,0.915 2.165,2.165 0 0 0 -0.013,0.241 v 2.527 h -0.713 v -4.71 h 0.588 l 0.082,0.872 h 0.034 a 2.409,2.409 0 0 1 0.27,-0.384 1.84,1.84 0 0 1 0.362,-0.325 1.422,1.422 0 0 1 0.812,-0.249 3.275,3.275 0 0 1 0.293,0.013 2.39,2.39 0 0 1 0.27,0.039 z m 4.88,3.101 a 3.684,3.684 0 0 0 0.066,-0.716 4.186,4.186 0 0 0 -0.002,-0.114 q -0.01,-0.392 -0.095,-0.725 a 2.221,2.221 0 0 0 -0.485,-0.94 q -0.583,-0.658 -1.571,-0.658 a 2.77,2.77 0 0 0 -0.498,0.043 1.887,1.887 0 0 0 -1.1,0.6 1.971,1.971 0 0 0 -0.242,0.335 q -0.334,0.582 -0.334,1.459 0,0.743 0.266,1.297 a 2.345,2.345 0 0 0 0.052,0.102 1.931,1.931 0 0 0 0.704,0.749 1.986,1.986 0 0 0 0.456,0.203 2.291,2.291 0 0 0 0.666,0.093 2.77,2.77 0 0 0 0.484,-0.04 1.902,1.902 0 0 0 1.119,-0.606 q 0.385,-0.43 0.514,-1.082 z m -3.522,-0.716 a 3.612,3.612 0 0 0 0.034,0.516 q 0.038,0.261 0.118,0.474 a 1.496,1.496 0 0 0 0.209,0.385 1.169,1.169 0 0 0 0.761,0.448 1.772,1.772 0 0 0 0.3,0.024 1.657,1.657 0 0 0 0.437,-0.054 1.153,1.153 0 0 0 0.627,-0.416 1.531,1.531 0 0 0 0.238,-0.465 q 0.07,-0.214 0.101,-0.476 a 3.757,3.757 0 0 0 0.024,-0.436 3.559,3.559 0 0 0 -0.034,-0.508 q -0.037,-0.258 -0.116,-0.467 a 1.469,1.469 0 0 0 -0.213,-0.39 1.173,1.173 0 0 0 -0.73,-0.435 1.799,1.799 0 0 0 -0.342,-0.031 1.698,1.698 0 0 0 -0.423,0.05 1.136,1.136 0 0 0 -0.634,0.41 1.475,1.475 0 0 0 -0.23,0.443 q -0.067,0.203 -0.099,0.453 a 3.769,3.769 0 0 0 -0.028,0.475 z" />
  <path
     inkscape:connector-curvature="0"
     style="font-size:medium;vector-effect:non-scaling-stroke;fill:none;fill-rule:evenodd;stroke:#ff0000;stroke-width:0.25400001;stroke-linecap:round;stroke-miterlimit:4;stroke-dasharray:none"
     id="left_outsideCutPath"
     d="m 446,199 v 7 h -3 v 6 h 3 v 6 h -3 v 6 h 3 v 6 h -3 v 6 h 3 v 6 1 -3 h 6 v 3 h 6 v -3 h 6 v 3 h 6 v -3 h 6 v 3 h 6 v -3 h 6 v 3 h 6 v -3 h 6 v 3 h 6 v -3 h 6 v 3 h 6 v -3 h 6 v 3 h 6 v -3 h 6 v 3 h 6 v -3 h 6 v 3 h 6 v -3 h 6 v 3 -7 h 3 v -6 h -3 v -6 h 3 v -6 h -3 v -6 h 3 v -6 h -3 v -6 -1 3 h -6 v -3 h -6 v 3 h -6 v -3 h -6 v 3 h -6 v -3 h -6 v 3 h -6 v -3 h -6 v 3 h -6 v -3 h -6 v 3 h -6 v -3 h -6 v 3 h -6 v -3 h -6 v 3 h -6 v -3 h -6 v 3 h -6 v -3 h -6 v 3 h -6 z" />
  <path
     inkscape:connector-curvature="0"
     style="font-size:medium;vector-effect:non-scaling-stroke;fill:#777777;fill-rule:evenodd;stroke:#777777;stroke-width:0.25000001mm;stroke-linecap:round"
     id="left_labelLayer"
     d="m 506.13,219.614 v 0.554 h -1.199 v 4.156 h -0.713 v -4.156 h -0.842 v -0.322 l 0.842,-0.258 v -0.262 q 0,-1.498 1.131,-1.703 a 2.168,2.168 0 0 1 0.386,-0.033 2.297,2.297 0 0 1 0.325,0.025 q 0.158,0.023 0.334,0.066 a 4.617,4.617 0 0 1 0.218,0.06 l -0.185,0.571 q -0.293,-0.094 -0.526,-0.122 a 1.534,1.534 0 0 0 -0.179,-0.011 0.962,0.962 0 0 0 -0.232,0.026 0.618,0.618 0 0 0 -0.365,0.243 q -0.194,0.268 -0.194,0.861 v 0.305 z m -3.338,2.033 v 0.451 h -3.245 q 0.015,0.566 0.205,0.946 a 1.339,1.339 0 0 0 0.214,0.313 1.296,1.296 0 0 0 0.681,0.383 1.964,1.964 0 0 0 0.439,0.046 3.767,3.767 0 0 0 1.411,-0.279 4.316,4.316 0 0 0 0.093,-0.039 v 0.636 a 4.282,4.282 0 0 1 -0.391,0.148 3.275,3.275 0 0 1 -0.325,0.087 2.994,2.994 0 0 1 -0.297,0.045 q -0.146,0.016 -0.312,0.022 a 5.811,5.811 0 0 1 -0.205,0.003 2.772,2.772 0 0 1 -0.694,-0.082 1.963,1.963 0 0 1 -0.954,-0.553 2.099,2.099 0 0 1 -0.502,-0.923 q -0.087,-0.326 -0.1,-0.715 a 4.074,4.074 0 0 1 -0.002,-0.128 q 0,-0.929 0.373,-1.546 a 2.112,2.112 0 0 1 0.188,-0.263 1.828,1.828 0 0 1 1.332,-0.665 2.521,2.521 0 0 1 0.174,-0.006 2.173,2.173 0 0 1 0.612,0.082 1.654,1.654 0 0 1 0.789,0.5 1.994,1.994 0 0 1 0.452,0.912 2.903,2.903 0 0 1 0.064,0.625 z m 6.363,2.088 v 0.546 a 0.702,0.702 0 0 1 -0.083,0.033 q -0.089,0.029 -0.216,0.052 a 2.667,2.667 0 0 1 -0.042,0.007 3.092,3.092 0 0 1 -0.202,0.026 q -0.109,0.01 -0.204,0.01 -1.367,0 -1.367,-1.439 v -2.802 h -0.674 v -0.343 l 0.674,-0.297 0.301,-1.005 h 0.412 v 1.091 h 1.367 v 0.554 h -1.367 v 2.772 a 1.436,1.436 0 0 0 0.021,0.252 q 0.044,0.246 0.181,0.401 a 0.663,0.663 0 0 0 0.408,0.217 0.953,0.953 0 0 0 0.147,0.011 2.343,2.343 0 0 0 0.343,-0.025 2.157,2.157 0 0 0 0.022,-0.003 q 0.168,-0.027 0.27,-0.055 a 1.074,1.074 0 0 0 0.009,-0.003 z m -11.597,-6.097 v 6.686 h -0.713 v -6.686 z m 2.007,3.88 h 2.462 a 2.431,2.431 0 0 0 -0.03,-0.391 q -0.064,-0.396 -0.271,-0.643 a 0.977,0.977 0 0 0 -0.589,-0.335 1.466,1.466 0 0 0 -0.27,-0.024 1.406,1.406 0 0 0 -0.407,0.056 1.086,1.086 0 0 0 -0.498,0.314 q -0.305,0.334 -0.383,0.901 a 2.695,2.695 0 0 0 -0.014,0.122 z" />
  <path
     inkscape:connector-curvature="0"
     style="font-size:medium;vector-effect:non-scaling-stroke;fill:none;fill-rule:evenodd;stroke:#ff0000;stroke-width:0.25400001;stroke-linecap:round;stroke-miterlimit:4;stroke-dasharray:none"
     id="top_outsideCutPath"
     d="m 3.05,-101.12499 h -3 v 5.999997 h 3 v 5.999994 h -3 v 6 h 3 v 6 h -3 v 6 h 3 v 6 h -3 v 6 h 3 v 6 h -3 v 6 h 3 v 6 h -3 v 6 h 3 v 6 h -3 v 6 h 3 v 6 h -3 v 6 h 3 v 5.9999997 h -3 v 5.99999937 h 3 V 6.8750001 h -3 V 12.875 h 3 4 v 3 h 6 v -3 h 6 v 3 h 6 v -3 h 6 v 3 h 6 v -3 h 6 v 3 h 6 v -3 h 6 v 3 h 6 v -3 h 6 v 3 h 6 v -3 h 6 v 3 h 6 v -3 h 6 v 3 h 6.000001 v -3 H 103.05 v 3 h 6 v -3 h 6 v 3 h 6 v -3 h 6 v 3 h 6 v -3 h 6 v 3 h 6 v -3 h 6 v 3 h 6 v -3 h 6 v 3 h 6 v -3 h 6 v 3 h 6 v -3 h 6 v 3 h 6 v -3 h 6 v 3 h 6 v -3 h 6 v 3 h 6 v -3 h 6 v 3 h 6 v -3 h 6 v 3 h 6 v -3 h 6 v 3 h 6 v -3 h 6 v 3 h 6 v -3 h 6 v 3 h 6 v -3 h 6 v 3 h 6 v -3 h 6 v 3 h 6 v -3 h 6 v 3 h 6 v -3 h 6 v 3 h 6 v -3 h 6 v 3 h 6 v -3 h 6 v 3 h 6 v -3 h 6 v 3 h 6 v -3 h 6 v 3 h 6 v -3 h 6 v 3 h 6 v -3 h 6 v 3 h 6 v -3 h 6 v 3 h 6 v -3 h 6 v 3 h 6 v -3 h 6 v 3 h 6 v -3 h 6 -2 3 V 6.8750001 h -3 V 0.87500007 h 3 V -5.1249993 h -3 v -5.9999997 h 3 v -6 h -3 v -6 h 3 v -6 h -3 v -6 h 3 v -6 h -3 v -6 h 3 v -6 h -3 v -6 h 3 v -6 h -3 v -6 h 3 v -6 h -3 v -6 h 3 v -6 h -3 v -5.999994 h 3 v -5.999997 h -3 -4 v -3 h -6 v 3 h -6 v -3 h -6 v 3 h -6 v -3 h -6 v 3 h -6 v -3 h -6 v 3 h -6 v -3 h -6 v 3 h -6 v -3 h -6 v 3 h -6 v -3 h -6 v 3 h -6 v -3 h -6 v 3 h -6 v -3 h -6 v 3 h -6 v -3 h -6 v 3 h -6 v -3 h -6 v 3 h -6 v -3 h -6 v 3 h -6 v -3 h -6 v 3 h -6 v -3 h -6 v 3 h -6 v -3 h -6 v 3 h -6 v -3 h -6 v 3 h -6 v -3 h -6 v 3 h -6 v -3 h -6 v 3 h -6 v -3 h -6 v 3 h -6 v -3 h -6 v 3 h -6 v -3 h -6 v 3 h -6 v -3 h -6 v 3 h -6 v -3 h -6 v 3 h -6 v -3 h -6 v 3 h -6 v -3 h -6 v 3 h -6 v -3 h -6 v 3 h -6 v -3 h -6 v 3 h -6 v -3 h -6 v 3 h -5.999999 v -3 H 91.05 v 3 h -6 v -3 h -6 v 3 h -6 v -3 h -6 v 3 h -6 v -3 h -6 v 3 h -6 v -3 h -6 v 3 h -6 v -3 h -6 v 3 h -6 v -3 h -6 v 3 h -6 v -3 h -6 v 3 h -6 z" />
  <path
     inkscape:connector-curvature="0"
     style="font-size:medium;vector-effect:non-scaling-stroke;fill:#777777;fill-rule:evenodd;stroke:#777777;stroke-width:0.25000001mm;stroke-linecap:round"
     id="top_labelLayer"
     d="m 794.625,186.375 h -0.141 q 0.141,1.125 0.141,2.133 v 5.285 h -1.945 v -18.609 h 1.582 l 0.269,1.757 h 0.094 a 5.236,5.236 0 0 1 0.757,-0.86 4.049,4.049 0 0 1 0.989,-0.663 4.872,4.872 0 0 1 1.396,-0.408 6.305,6.305 0 0 1 0.889,-0.061 5.963,5.963 0 0 1 1.685,0.225 4.407,4.407 0 0 1 2.259,1.521 q 1.135,1.428 1.342,3.794 a 12.667,12.667 0 0 1 0.046,1.105 11.406,11.406 0 0 1 -0.151,1.919 q -0.311,1.818 -1.261,2.997 a 4.605,4.605 0 0 1 -3.273,1.721 6.598,6.598 0 0 1 -0.647,0.031 5.901,5.901 0 0 1 -1.483,-0.181 5.134,5.134 0 0 1 -0.808,-0.282 4.309,4.309 0 0 1 -1.74,-1.424 z m -19.008,0.047 v 1.488 q -0.286,0.138 -0.815,0.232 a 7.276,7.276 0 0 1 -0.117,0.02 q -0.574,0.093 -1.041,0.099 a 4.987,4.987 0 0 1 -0.066,0.001 5.081,5.081 0 0 1 -1.497,-0.202 q -1.646,-0.508 -2.077,-2.296 a 6.115,6.115 0 0 1 -0.153,-1.428 v -7.641 h -1.839 v -0.937 l 1.839,-0.809 0.821,-2.742 h 1.125 v 2.977 h 3.726 v 1.511 h -3.726 v 7.559 q 0,0.815 0.272,1.364 a 1.887,1.887 0 0 0 0.279,0.417 1.807,1.807 0 0 0 1.11,0.592 2.6,2.6 0 0 0 0.401,0.029 6.389,6.389 0 0 0 0.936,-0.067 5.888,5.888 0 0 0 0.06,-0.009 q 0.459,-0.073 0.736,-0.151 a 2.926,2.926 0 0 0 0.026,-0.007 z m 12.07,0.076 a 5.427,5.427 0 0 0 0.647,-0.888 q 0.935,-1.601 0.935,-4.016 0,-3.059 -1.587,-4.852 -1.588,-1.793 -4.284,-1.793 a 7.555,7.555 0 0 0 -1.357,0.117 5.145,5.145 0 0 0 -3.002,1.635 q -1.043,1.164 -1.393,2.939 a 10.101,10.101 0 0 0 -0.177,1.954 9.732,9.732 0 0 0 0.122,1.576 7.196,7.196 0 0 0 0.604,1.963 6.394,6.394 0 0 0 0.142,0.277 5.266,5.266 0 0 0 1.921,2.043 5.417,5.417 0 0 0 1.243,0.553 6.247,6.247 0 0 0 1.815,0.256 7.554,7.554 0 0 0 1.319,-0.111 5.186,5.186 0 0 0 3.052,-1.653 z m -8.203,-4.904 a 9.851,9.851 0 0 0 0.094,1.407 q 0.103,0.714 0.321,1.293 a 4.081,4.081 0 0 0 0.57,1.05 3.188,3.188 0 0 0 2.076,1.223 4.831,4.831 0 0 0 0.818,0.066 4.518,4.518 0 0 0 1.192,-0.148 3.145,3.145 0 0 0 1.709,-1.135 q 0.736,-0.955 0.925,-2.567 a 10.247,10.247 0 0 0 0.065,-1.189 9.706,9.706 0 0 0 -0.092,-1.383 q -0.102,-0.704 -0.316,-1.275 a 4.005,4.005 0 0 0 -0.582,-1.063 3.2,3.2 0 0 0 -1.99,-1.187 4.906,4.906 0 0 0 -0.934,-0.084 4.63,4.63 0 0 0 -1.153,0.135 3.098,3.098 0 0 0 -1.73,1.118 q -0.7,0.903 -0.896,2.443 a 10.28,10.28 0 0 0 -0.077,1.296 z m 15.141,-0.434 v 0.434 a 12.862,12.862 0 0 0 0.064,1.329 q 0.139,1.341 0.587,2.158 a 2.934,2.934 0 0 0 0.251,0.386 2.822,2.822 0 0 0 1.432,0.966 q 0.638,0.2 1.463,0.2 1.664,0 2.607,-1.348 0.745,-1.063 0.902,-2.761 a 10.364,10.364 0 0 0 0.042,-0.954 9.817,9.817 0 0 0 -0.093,-1.392 q -0.202,-1.411 -0.851,-2.293 a 3.026,3.026 0 0 0 -2.213,-1.261 4.185,4.185 0 0 0 -0.441,-0.022 q -1.264,0 -2.078,0.448 a 2.571,2.571 0 0 0 -0.77,0.641 q -0.823,1.021 -0.896,3.171 a 12.38,12.38 0 0 0 -0.006,0.298 z" />
  <path
     inkscape:connector-curvature="0"
     style="font-size:medium;vector-effect:non-scaling-stroke;fill:none;fill-rule:evenodd;stroke:#ff0000;stroke-width:0.25400001;stroke-linecap:round;stroke-miterlimit:4;stroke-dasharray:none"
     id="back_outsideCutPath"
     d="m 0,152 v 7 h 3 v 6 H 0 v 6 h 3 v 6 H 0 v 6 h 3 v 6 H 0 v 6 1 h 7 v -3 h 6 v 3 h 6 v -3 h 6 v 3 h 6 v -3 h 6 v 3 h 6 v -3 h 6 v 3 h 6 v -3 h 6 v 3 h 6 v -3 h 6 v 3 h 6 v -3 h 6 v 3 h 6 v -3 h 6 v 3 h 6 v -3 h 6 v 3 h 6 v -3 h 6 v 3 h 6 v -3 h 6 v 3 h 6 v -3 h 6 v 3 h 6 v -3 h 6 v 3 h 6 v -3 h 6 v 3 h 6 v -3 h 6 v 3 h 6 v -3 h 6 v 3 h 6 v -3 h 6 v 3 h 6 v -3 h 6 v 3 h 6 v -3 h 6 v 3 h 6 v -3 h 6 v 3 h 6 v -3 h 6 v 3 h 6 v -3 h 6 v 3 h 6 v -3 h 6 v 3 h 6 v -3 h 6 v 3 h 6 v -3 h 6 v 3 h 6 v -3 h 6 v 3 h 6 v -3 h 6 v 3 h 6 v -3 h 6 v 3 h 6 v -3 h 6 v 3 h 6 v -3 h 6 v 3 h 6 v -3 h 6 v 3 h 6 v -3 h 6 v 3 h 6 v -3 h 6 v 3 h 6 v -3 h 6 v 3 h 6 v -3 h 6 v 3 h 6 v -3 h 6 v 3 h 6 1 v -7 h -3 v -6 h 3 v -6 h -3 v -6 h 3 v -6 h -3 v -6 h 3 v -6 -1 h -7 v 3 h -6 v -3 h -6 v 3 h -6 v -3 h -6 v 3 h -6 v -3 h -6 v 3 h -6 v -3 h -6 v 3 h -6 v -3 h -6 v 3 h -6 v -3 h -6 v 3 h -6 v -3 h -6 v 3 h -6 v -3 h -6 v 3 h -6 v -3 h -6 v 3 h -6 v -3 h -6 v 3 h -6 v -3 h -6 v 3 h -6 v -3 h -6 v 3 h -6 v -3 h -6 v 3 h -6 v -3 h -6 v 3 h -6 v -3 h -6 v 3 h -6 v -3 h -6 v 3 h -6 v -3 h -6 v 3 h -6 v -3 h -6 v 3 h -6 v -3 h -6 v 3 h -6 v -3 h -6 v 3 h -6 v -3 h -6 v 3 h -6 v -3 h -6 v 3 h -6 v -3 h -6 v 3 h -6 v -3 h -6 v 3 h -6 v -3 h -6 v 3 h -6 v -3 h -6 v 3 h -6 v -3 h -6 v 3 h -6 v -3 h -6 v 3 h -6 v -3 h -6 v 3 h -6 v -3 h -6 v 3 h -6 v -3 h -6 v 3 h -6 v -3 h -6 v 3 h -6 v -3 h -6 v 3 h -6 v -3 h -6 v 3 h -6 v -3 h -6 v 3 H 7 v -3 H 1 Z" />
  <path
     inkscape:connector-curvature="0"
     style="font-size:medium;vector-effect:non-scaling-stroke;fill:#777777;fill-rule:evenodd;stroke:#777777;stroke-width:0.25000001mm;stroke-linecap:round"
     id="back_labelLayer"
     d="m 226.024,174.889 h 0.035 q 0.141,-0.2 0.396,-0.497 a 15.325,15.325 0 0 1 0.166,-0.19 l 1.522,-1.611 h 0.846 l -1.908,2.006 2.041,2.703 h -0.863 l -1.663,-2.226 -0.537,0.464 v 1.762 h -0.705 v -6.686 h 0.705 v 3.545 a 4.753,4.753 0 0 1 -0.003,0.134 q -0.006,0.226 -0.032,0.596 z m -14.433,1.805 h -0.052 l -0.15,0.606 h -0.511 v -6.686 h 0.713 v 1.624 q 0,0.546 -0.034,0.98 h 0.034 a 1.622,1.622 0 0 1 1.184,-0.688 2.436,2.436 0 0 1 0.294,-0.017 q 0.928,0 1.442,0.634 0.411,0.508 0.493,1.353 a 4.578,4.578 0 0 1 0.02,0.441 4.182,4.182 0 0 1 -0.055,0.704 q -0.114,0.666 -0.463,1.099 a 1.689,1.689 0 0 1 -1.2,0.631 2.419,2.419 0 0 1 -0.237,0.011 2.164,2.164 0 0 1 -0.544,-0.066 1.882,1.882 0 0 1 -0.296,-0.104 1.58,1.58 0 0 1 -0.638,-0.522 z m 8.104,0.606 h -0.529 l -0.141,-0.67 h -0.035 q -0.249,0.312 -0.496,0.482 a 1.314,1.314 0 0 1 -0.206,0.117 1.645,1.645 0 0 1 -0.34,0.107 q -0.165,0.034 -0.356,0.045 a 3.21,3.21 0 0 1 -0.179,0.005 2.189,2.189 0 0 1 -0.445,-0.043 q -0.392,-0.081 -0.653,-0.318 a 1.172,1.172 0 0 1 -0.353,-0.618 1.795,1.795 0 0 1 -0.044,-0.409 1.234,1.234 0 0 1 0.702,-1.165 q 0.523,-0.278 1.435,-0.324 a 6.968,6.968 0 0 1 0.145,-0.006 l 0.799,-0.026 v -0.292 q 0,-0.555 -0.239,-0.819 -0.19,-0.211 -0.562,-0.253 a 1.762,1.762 0 0 0 -0.2,-0.011 2.322,2.322 0 0 0 -0.535,0.067 q -0.245,0.058 -0.512,0.166 a 4.777,4.777 0 0 0 -0.285,0.128 l -0.22,-0.546 q 0.349,-0.189 0.763,-0.296 a 3.303,3.303 0 0 1 0.832,-0.108 q 0.526,0 0.882,0.146 a 1.214,1.214 0 0 1 0.366,0.228 1.13,1.13 0 0 1 0.291,0.45 q 0.115,0.311 0.115,0.749 z m 4.61,-4.55 -0.219,0.605 a 3.173,3.173 0 0 0 -0.344,-0.114 3.79,3.79 0 0 0 -0.171,-0.042 2.946,2.946 0 0 0 -0.224,-0.042 q -0.11,-0.016 -0.207,-0.019 a 1.581,1.581 0 0 0 -0.063,-0.002 1.582,1.582 0 0 0 -0.643,0.121 q -0.673,0.297 -0.775,1.323 a 3.941,3.941 0 0 0 -0.018,0.387 3.454,3.454 0 0 0 0.035,0.503 q 0.037,0.255 0.116,0.462 a 1.479,1.479 0 0 0 0.2,0.367 1.133,1.133 0 0 0 0.734,0.438 1.726,1.726 0 0 0 0.303,0.026 2.986,2.986 0 0 0 0.824,-0.12 3.687,3.687 0 0 0 0.384,-0.134 v 0.632 a 2.029,2.029 0 0 1 -0.497,0.176 q -0.229,0.05 -0.496,0.064 a 3.912,3.912 0 0 1 -0.198,0.005 2.666,2.666 0 0 1 -0.648,-0.074 1.808,1.808 0 0 1 -0.935,-0.556 2.063,2.063 0 0 1 -0.429,-0.788 q -0.095,-0.312 -0.121,-0.689 a 4.313,4.313 0 0 1 -0.011,-0.304 q 0,-1.181 0.57,-1.826 a 1.847,1.847 0 0 1 1.011,-0.581 2.8,2.8 0 0 1 0.611,-0.063 3.219,3.219 0 0 1 0.679,0.073 q 0.335,0.072 0.528,0.169 a 1.058,1.058 0 0 1 0.004,0.003 z m -11.339,0.36 a 2.004,2.004 0 0 0 -0.388,0.036 q -0.436,0.086 -0.665,0.383 a 1.221,1.221 0 0 0 -0.177,0.337 q -0.119,0.334 -0.14,0.842 a 5.495,5.495 0 0 0 -0.005,0.233 4.716,4.716 0 0 0 0.023,0.487 q 0.052,0.492 0.216,0.791 a 1.076,1.076 0 0 0 0.092,0.142 q 0.296,0.383 0.914,0.423 a 2.294,2.294 0 0 0 0.147,0.005 1.422,1.422 0 0 0 0.404,-0.054 1.026,1.026 0 0 0 0.576,-0.425 1.637,1.637 0 0 0 0.202,-0.439 q 0.064,-0.208 0.094,-0.46 a 4.087,4.087 0 0 0 0.026,-0.479 4.214,4.214 0 0 0 -0.025,-0.48 q -0.061,-0.525 -0.264,-0.842 a 1.183,1.183 0 0 0 -0.033,-0.048 1.04,1.04 0 0 0 -0.662,-0.419 1.65,1.65 0 0 0 -0.335,-0.033 z m 6.016,2.299 v -0.425 l -0.714,0.03 a 5.237,5.237 0 0 0 -0.418,0.03 q -0.532,0.062 -0.808,0.234 a 0.761,0.761 0 0 0 -0.363,0.552 1.127,1.127 0 0 0 -0.013,0.177 1.019,1.019 0 0 0 0.025,0.233 q 0.042,0.18 0.156,0.304 a 0.635,0.635 0 0 0 0.053,0.051 0.776,0.776 0 0 0 0.291,0.155 q 0.115,0.034 0.253,0.043 a 1.604,1.604 0 0 0 0.111,0.004 q 0.576,0 0.938,-0.273 a 1.191,1.191 0 0 0 0.108,-0.092 1.195,1.195 0 0 0 0.334,-0.597 q 0.046,-0.192 0.047,-0.418 a 2.24,2.24 0 0 0 0,-0.008 z" />
  <path
     inkscape:connector-curvature="0"
     style="font-size:medium;vector-effect:non-scaling-stroke;fill:none;fill-rule:evenodd;stroke:#ff0000;stroke-width:0.25400001;stroke-linecap:round;stroke-miterlimit:4;stroke-dasharray:none"
     id="right_outsideCutPath"
     d="m 446,152 v 7 h -3 v 6 h 3 v 6 h -3 v 6 h 3 v 6 h -3 v 6 h 3 v 6 1 -3 h 6 v 3 h 6 v -3 h 6 v 3 h 6 v -3 h 6 v 3 h 6 v -3 h 6 v 3 h 6 v -3 h 6 v 3 h 6 v -3 h 6 v 3 h 6 v -3 h 6 v 3 h 6 v -3 h 6 v 3 h 6 v -3 h 6 v 3 h 6 v -3 h 6 v 3 -7 h 3 v -6 h -3 v -6 h 3 v -6 h -3 v -6 h 3 v -6 h -3 v -6 -1 3 h -6 v -3 h -6 v 3 h -6 v -3 h -6 v 3 h -6 v -3 h -6 v 3 h -6 v -3 h -6 v 3 h -6 v -3 h -6 v 3 h -6 v -3 h -6 v 3 h -6 v -3 h -6 v 3 h -6 v -3 h -6 v 3 h -6 v -3 h -6 v 3 h -6 z" />
  <path
     inkscape:connector-curvature="0"
     style="font-size:medium;vector-effect:non-scaling-stroke;fill:#777777;fill-rule:evenodd;stroke:#777777;stroke-width:0.25000001mm;stroke-linecap:round"
     id="right_labelLayer"
     d="m 508.472,176.286 h -0.713 v -3.047 a 2.016,2.016 0 0 0 -0.023,-0.316 q -0.055,-0.344 -0.239,-0.543 a 0.804,0.804 0 0 0 -0.33,-0.21 q -0.13,-0.046 -0.289,-0.063 a 1.891,1.891 0 0 0 -0.202,-0.011 2.159,2.159 0 0 0 -0.404,0.036 q -0.223,0.042 -0.396,0.137 a 0.999,0.999 0 0 0 -0.285,0.231 1.187,1.187 0 0 0 -0.201,0.357 q -0.122,0.327 -0.138,0.813 a 4.604,4.604 0 0 0 -0.003,0.154 v 2.462 h -0.713 V 169.6 h 0.713 v 2.024 a 6.416,6.416 0 0 1 -0.004,0.246 q -0.008,0.206 -0.03,0.36 h 0.043 q 0.211,-0.34 0.599,-0.535 0.389,-0.196 0.888,-0.196 a 2.894,2.894 0 0 1 0.486,0.038 q 0.509,0.087 0.809,0.373 a 1.242,1.242 0 0 1 0.307,0.481 q 0.125,0.341 0.125,0.823 z m -6.531,-4.709 h 1.628 v 0.451 l -0.872,0.103 a 1.159,1.159 0 0 1 0.1,0.149 q 0.044,0.077 0.084,0.169 a 2.199,2.199 0 0 1 0.031,0.075 1.372,1.372 0 0 1 0.081,0.328 1.762,1.762 0 0 1 0.013,0.22 1.635,1.635 0 0 1 -0.075,0.507 1.323,1.323 0 0 1 -0.397,0.597 q -0.473,0.413 -1.298,0.413 a 2.292,2.292 0 0 1 -0.265,-0.015 1.936,1.936 0 0 1 -0.13,-0.02 1.269,1.269 0 0 0 -0.205,0.133 q -0.106,0.085 -0.167,0.183 a 0.537,0.537 0 0 0 -0.084,0.29 q 0,0.188 0.15,0.28 a 0.396,0.396 0 0 0 0.009,0.006 0.5,0.5 0 0 0 0.111,0.046 q 0.116,0.033 0.293,0.043 a 2.713,2.713 0 0 0 0.142,0.003 h 0.834 q 0.51,0 0.862,0.144 a 1.289,1.289 0 0 1 0.313,0.179 1.044,1.044 0 0 1 0.388,0.664 1.567,1.567 0 0 1 0.022,0.272 1.544,1.544 0 0 1 -0.088,0.534 q -0.147,0.402 -0.539,0.659 -0.628,0.41 -1.831,0.41 a 3.996,3.996 0 0 1 -0.536,-0.034 q -0.544,-0.073 -0.888,-0.31 -0.468,-0.321 -0.499,-0.891 a 1.506,1.506 0 0 1 -0.002,-0.08 q 0,-0.43 0.275,-0.743 a 1.245,1.245 0 0 1 0.428,-0.312 1.765,1.765 0 0 1 0.346,-0.114 0.74,0.74 0 0 1 -0.288,-0.232 0.879,0.879 0 0 1 -0.015,-0.021 0.661,0.661 0 0 1 -0.122,-0.358 0.819,0.819 0 0 1 -10e-4,-0.042 q 0,-0.258 0.138,-0.451 a 1.021,1.021 0 0 1 0.135,-0.152 q 0.121,-0.113 0.299,-0.222 a 1.25,1.25 0 0 1 -0.543,-0.435 1.55,1.55 0 0 1 -0.052,-0.076 1.475,1.475 0 0 1 -0.227,-0.711 1.8,1.8 0 0 1 -0.003,-0.114 2.061,2.061 0 0 1 0.054,-0.487 1.356,1.356 0 0 1 0.41,-0.705 1.515,1.515 0 0 1 0.581,-0.321 q 0.231,-0.071 0.509,-0.091 a 3.15,3.15 0 0 1 0.225,-0.007 2.734,2.734 0 0 1 0.361,0.022 2.082,2.082 0 0 1 0.305,0.064 z m 10.162,4.12 v 0.546 a 0.702,0.702 0 0 1 -0.083,0.033 q -0.089,0.029 -0.216,0.052 a 2.667,2.667 0 0 1 -0.043,0.007 3.092,3.092 0 0 1 -0.201,0.027 q -0.109,0.01 -0.205,0.01 -1.366,0 -1.366,-1.44 v -2.801 h -0.675 v -0.344 l 0.675,-0.296 0.301,-1.006 h 0.412 v 1.092 h 1.367 v 0.554 h -1.367 v 2.771 a 1.436,1.436 0 0 0 0.021,0.253 q 0.044,0.246 0.181,0.4 a 0.663,0.663 0 0 0 0.407,0.217 0.953,0.953 0 0 0 0.147,0.011 2.343,2.343 0 0 0 0.344,-0.024 2.157,2.157 0 0 0 0.022,-0.004 q 0.168,-0.026 0.269,-0.055 a 1.074,1.074 0 0 0 0.01,-0.003 z m -15.495,-4.155 -0.098,0.662 a 3.144,3.144 0 0 0 -0.226,-0.042 q -0.157,-0.023 -0.29,-0.023 a 1.236,1.236 0 0 0 -0.913,0.395 1.691,1.691 0 0 0 -0.065,0.069 1.629,1.629 0 0 0 -0.393,0.915 2.165,2.165 0 0 0 -0.013,0.241 v 2.527 h -0.713 v -4.709 h 0.589 l 0.081,0.872 h 0.035 a 2.409,2.409 0 0 1 0.269,-0.385 1.84,1.84 0 0 1 0.362,-0.324 1.422,1.422 0 0 1 0.813,-0.249 3.275,3.275 0 0 1 0.293,0.012 2.39,2.39 0 0 1 0.269,0.039 z m 1.595,0.035 v 4.709 h -0.714 v -4.709 z m 3.493,4.601 h -0.855 a 1.64,1.64 0 0 0 -0.296,0.025 q -0.167,0.031 -0.3,0.1 a 0.835,0.835 0 0 0 -0.16,0.108 q -0.271,0.232 -0.271,0.666 a 0.716,0.716 0 0 0 0.047,0.265 q 0.068,0.172 0.233,0.287 a 0.837,0.837 0 0 0 0.042,0.028 q 0.322,0.197 0.924,0.197 a 4.795,4.795 0 0 0 0.468,-0.021 q 0.47,-0.046 0.764,-0.193 a 1.185,1.185 0 0 0 0.098,-0.054 1.04,1.04 0 0 0 0.241,-0.202 0.78,0.78 0 0 0 0.191,-0.527 q 0,-0.382 -0.237,-0.53 a 0.677,0.677 0 0 0 -0.16,-0.07 q -0.171,-0.053 -0.441,-0.07 a 4.539,4.539 0 0 0 -0.288,-0.009 z m -1.495,-3.093 a 1.392,1.392 0 0 0 0.028,0.292 q 0.039,0.181 0.131,0.316 a 0.763,0.763 0 0 0 0.12,0.139 q 0.251,0.229 0.681,0.251 a 1.837,1.837 0 0 0 0.097,0.003 1.554,1.554 0 0 0 0.406,-0.049 q 0.466,-0.126 0.591,-0.583 a 1.445,1.445 0 0 0 0.047,-0.382 q 0,-0.842 -0.666,-1.016 a 1.551,1.551 0 0 0 -0.391,-0.045 q -0.386,0 -0.635,0.159 a 0.821,0.821 0 0 0 -0.139,0.111 q -0.229,0.23 -0.264,0.648 a 1.876,1.876 0 0 0 -0.006,0.156 z m -2.652,-3.143 a 0.334,0.334 0 0 0 -0.073,0.104 q -0.047,0.102 -0.047,0.254 a 0.842,0.842 0 0 0 0.004,0.081 q 0.017,0.181 0.116,0.278 a 0.4,0.4 0 0 0 0.145,0.092 0.453,0.453 0 0 0 0.156,0.026 0.416,0.416 0 0 0 0.297,-0.118 q 0.124,-0.118 0.124,-0.359 0,-0.24 -0.124,-0.356 a 0.42,0.42 0 0 0 -0.297,-0.116 0.544,0.544 0 0 0 -0.036,0.001 0.412,0.412 0 0 0 -0.265,0.113 z" />
  <path
     inkscape:connector-curvature="0"
     style="font-size:medium;vector-effect:non-scaling-stroke;fill:none;fill-rule:evenodd;stroke:#ff0000;stroke-width:0.25400001;stroke-linecap:round;stroke-miterlimit:4;stroke-dasharray:none"
     id="bottom_outsideCutPath"
     d="m 3.05,24.166667 h -3 v 6.000001 h 3 v 6 h -3 v 6 h 3 v 6 h -3 v 6 h 3 v 6 h -3 v 6 h 3 v 6 h -3 v 6 h 3 v 6 h -3 v 6 h 3 v 6 h -3 v 6.000002 h 3 v 6 h -3 v 6 h 3 v 6.00001 h -3 v 6 h 3 v 6 h -3 v 6 h 3 3.9999967 v 3 h 5.9999973 v -3 h 5.999997 v 3 h 5.999997 v -3 h 5.999997 v 3 h 5.999994 v -3 h 5.999997 v 3 h 5.999997 v -3 h 5.999997 v 3 h 5.999997 v -3 h 5.999997 v 3 h 5.999997 v -3 h 5.999997 v 3 h 5.999994 v -3 h 5.999997 v 3 h 5.999997 v -3 h 6.000004 v 3 h 6 v -3 h 6 v 3 h 6 v -3 h 6 v 3 h 6 v -3 h 6 v 3 h 6 v -3 h 6 v 3 h 6 v -3 h 6 v 3 h 6 v -3 h 6 v 3 h 6 v -3 h 6 v 3 h 6 v -3 h 6 v 3 h 6 v -3 h 6 v 3 h 6 v -3 h 6 v 3 h 6 v -3 h 6 v 3 h 6 v -3 h 6 v 3 h 6 v -3 h 6 v 3 h 6 v -3 h 6 v 3 h 6 v -3 h 6 v 3 h 6 v -3 h 6 v 3 h 6 v -3 h 6 v 3 h 6 v -3 h 6 v 3 h 6 v -3 h 6 v 3 h 6 v -3 h 6 v 3 h 6 v -3 h 6 v 3 h 6 v -3 h 6 v 3 h 6 v -3 h 6 v 3 h 6 v -3 h 6 v 3 h 6 v -3 h 6 v 3 h 6 v -3 h 6 v 3 h 6 v -3 h 6 v 3 h 6 v -3 h 6 -2 2.99997 v -6 h -2.99997 v -6 h 2.99997 v -6 h -2.99997 v -6.00001 h 2.99997 v -6 h -2.99997 v -6 h 2.99997 v -6.000002 h -2.99997 v -6 h 2.99997 v -6 h -2.99997 v -6 h 2.99997 v -6 h -2.99997 v -6 h 2.99997 v -6 h -2.99997 v -6 h 2.99997 v -6 h -2.99997 v -6 h 2.99997 v -6 h -2.99997 v -6 h 2.99997 v -6.000001 h -2.99997 -4 v -3 h -6 v 3 h -6 v -3 h -6 v 3 h -6 v -3 h -6 v 3 h -6 v -3 h -6 v 3 h -6 v -3 h -6 v 3 h -6 v -3 h -6 v 3 h -6 v -3 h -6 v 3 h -6 v -3 h -6 v 3 h -6 v -3 h -6 v 3 h -6 v -3 h -6 v 3 h -6 v -3 h -6 v 3 h -6 v -3 h -6 v 3 h -6 v -3 h -6 v 3 h -6 v -3 h -6 v 3 h -6 v -3 h -6 v 3 h -6 v -3 h -6 v 3 h -6 v -3 h -6 v 3 h -6 v -3 h -6 v 3 h -6 v -3 h -6 v 3 h -6 v -3 h -6 v 3 h -6 v -3 h -6 v 3 h -6 v -3 h -6 v 3 h -6 v -3 h -6 v 3 h -6 v -3 h -6 v 3 h -6 v -3 h -6 v 3 h -6 v -3 h -6 v 3 h -6 v -3 h -6 v 3 h -6 v -3 h -6 v 3 h -6.000004 v -3 h -5.999997 v 3 h -5.999997 v -3 h -5.999994 v 3 h -5.999997 v -3 h -5.999997 v 3 h -5.999997 v -3 H 55.04997 v 3 h -5.999997 v -3 h -5.999997 v 3 h -5.999997 v -3 h -5.999994 v 3 h -5.999997 v -3 h -5.999997 v 3 h -5.999997 v -3 H 7.0499967 v 3 H 1.05 Z" />
  <path
     inkscape:connector-curvature="0"
     style="font-size:medium;vector-effect:non-scaling-stroke;fill:#777777;fill-rule:evenodd;stroke:#777777;stroke-width:0.25000001mm;stroke-linecap:round"
     id="bottom_labelLayer"
     d="m 825.48,69 h -1.945 v -8.356 q 0,-1.535 -0.656,-2.303 a 2.047,2.047 0 0 0 -0.952,-0.615 q -0.339,-0.109 -0.752,-0.14 a 4.516,4.516 0 0 0 -0.335,-0.012 q -1.274,0 -2.081,0.513 a 2.576,2.576 0 0 0 -0.603,0.53 q -0.863,1.038 -0.867,3.191 a 10.827,10.827 0 0 0 0,0.02 V 69 h -1.945 v -8.356 q 0,-1.535 -0.657,-2.303 a 2.041,2.041 0 0 0 -0.938,-0.609 q -0.48,-0.158 -1.112,-0.158 a 4.832,4.832 0 0 0 -1,0.096 q -1.081,0.229 -1.678,1 a 3.262,3.262 0 0 0 -0.484,0.918 q -0.313,0.888 -0.358,2.218 a 13.544,13.544 0 0 0 -0.008,0.455 V 69 h -1.945 V 56.156 h 1.582 l 0.316,1.758 h 0.094 q 0.551,-0.938 1.553,-1.465 a 4.618,4.618 0 0 1 1.824,-0.512 5.578,5.578 0 0 1 0.42,-0.015 6.369,6.369 0 0 1 1.434,0.149 q 0.881,0.204 1.496,0.687 a 3.321,3.321 0 0 1 1.008,1.343 h 0.093 a 4.062,4.062 0 0 1 1.53,-1.519 4.88,4.88 0 0 1 0.134,-0.074 4.924,4.924 0 0 1 1.807,-0.55 6.139,6.139 0 0 1 0.678,-0.036 6.762,6.762 0 0 1 1.226,0.103 q 0.682,0.126 1.214,0.405 a 3.206,3.206 0 0 1 0.823,0.611 q 1.084,1.119 1.084,3.58 z m -77.015,-1.653 h -0.141 L 747.914,69 h -1.395 V 50.765 h 1.946 v 4.43 a 40.558,40.558 0 0 1 -0.022,1.37 q -0.022,0.648 -0.066,1.225 a 24.315,24.315 0 0 1 -0.006,0.077 h 0.094 a 4.423,4.423 0 0 1 3.228,-1.875 6.644,6.644 0 0 1 0.803,-0.047 5.946,5.946 0 0 1 1.673,0.223 4.451,4.451 0 0 1 2.259,1.506 q 1.121,1.384 1.344,3.688 a 12.486,12.486 0 0 1 0.056,1.204 11.406,11.406 0 0 1 -0.151,1.919 q -0.311,1.818 -1.261,2.997 a 4.605,4.605 0 0 1 -3.273,1.721 6.598,6.598 0 0 1 -0.647,0.031 5.901,5.901 0 0 1 -1.483,-0.181 5.134,5.134 0 0 1 -0.808,-0.282 4.309,4.309 0 0 1 -1.74,-1.424 z m 33.164,0.047 v 1.489 q -0.286,0.137 -0.816,0.232 a 7.276,7.276 0 0 1 -0.116,0.019 q -0.574,0.093 -1.041,0.1 a 4.987,4.987 0 0 1 -0.066,0 5.081,5.081 0 0 1 -1.498,-0.201 q -1.645,-0.508 -2.076,-2.296 a 6.115,6.115 0 0 1 -0.153,-1.429 v -7.64 h -1.84 V 56.73 l 1.84,-0.808 0.821,-2.743 h 1.125 v 2.977 h 3.726 v 1.512 h -3.726 v 7.558 q 0,0.815 0.271,1.364 a 1.887,1.887 0 0 0 0.279,0.418 1.807,1.807 0 0 0 1.111,0.591 2.6,2.6 0 0 0 0.401,0.03 6.389,6.389 0 0 0 0.936,-0.067 5.888,5.888 0 0 0 0.06,-0.01 q 0.459,-0.072 0.736,-0.15 a 2.926,2.926 0 0 0 0.026,-0.008 z m 8.473,0 v 1.489 q -0.286,0.137 -0.816,0.232 a 7.276,7.276 0 0 1 -0.116,0.019 q -0.575,0.093 -1.042,0.1 a 4.987,4.987 0 0 1 -0.066,0 5.081,5.081 0 0 1 -1.497,-0.201 q -1.646,-0.508 -2.076,-2.296 a 6.115,6.115 0 0 1 -0.153,-1.429 v -7.64 h -1.84 V 56.73 l 1.84,-0.808 0.82,-2.743 h 1.125 v 2.977 h 3.727 v 1.512 h -3.727 v 7.558 q 0,0.815 0.272,1.364 a 1.887,1.887 0 0 0 0.279,0.418 1.807,1.807 0 0 0 1.111,0.591 2.6,2.6 0 0 0 0.401,0.03 6.389,6.389 0 0 0 0.936,-0.067 5.888,5.888 0 0 0 0.06,-0.01 q 0.458,-0.072 0.735,-0.15 a 2.926,2.926 0 0 0 0.027,-0.008 z M 770.73,67.47 a 5.427,5.427 0 0 0 0.647,-0.887 q 0.935,-1.601 0.935,-4.017 0,-3.058 -1.587,-4.851 -1.588,-1.793 -4.284,-1.793 a 7.555,7.555 0 0 0 -1.357,0.116 5.145,5.145 0 0 0 -3.002,1.636 q -1.043,1.163 -1.393,2.939 a 10.101,10.101 0 0 0 -0.177,1.953 9.732,9.732 0 0 0 0.122,1.576 7.196,7.196 0 0 0 0.604,1.963 6.394,6.394 0 0 0 0.142,0.277 5.266,5.266 0 0 0 1.921,2.043 5.417,5.417 0 0 0 1.243,0.553 6.247,6.247 0 0 0 1.815,0.256 7.554,7.554 0 0 0 1.319,-0.11 5.186,5.186 0 0 0 3.052,-1.654 z m 31.442,0 a 5.427,5.427 0 0 0 0.646,-0.887 q 0.936,-1.601 0.936,-4.017 0,-3.058 -1.588,-4.851 -1.588,-1.793 -4.283,-1.793 a 7.555,7.555 0 0 0 -1.357,0.116 5.145,5.145 0 0 0 -3.003,1.636 q -1.042,1.163 -1.393,2.939 a 10.101,10.101 0 0 0 -0.177,1.953 9.732,9.732 0 0 0 0.122,1.576 7.196,7.196 0 0 0 0.605,1.963 6.394,6.394 0 0 0 0.141,0.277 5.266,5.266 0 0 0 1.921,2.043 5.417,5.417 0 0 0 1.243,0.553 6.247,6.247 0 0 0 1.816,0.256 7.554,7.554 0 0 0 1.319,-0.11 5.186,5.186 0 0 0 3.052,-1.654 z m -39.645,-4.904 a 9.851,9.851 0 0 0 0.094,1.407 q 0.103,0.715 0.321,1.293 a 4.081,4.081 0 0 0 0.57,1.05 3.188,3.188 0 0 0 2.076,1.223 4.831,4.831 0 0 0 0.818,0.066 4.518,4.518 0 0 0 1.192,-0.148 3.145,3.145 0 0 0 1.709,-1.135 q 0.736,-0.954 0.925,-2.566 a 10.247,10.247 0 0 0 0.065,-1.19 9.706,9.706 0 0 0 -0.092,-1.383 q -0.102,-0.704 -0.316,-1.275 a 4.005,4.005 0 0 0 -0.582,-1.063 3.2,3.2 0 0 0 -1.99,-1.187 4.906,4.906 0 0 0 -0.934,-0.084 4.63,4.63 0 0 0 -1.153,0.135 3.098,3.098 0 0 0 -1.73,1.119 q -0.7,0.902 -0.896,2.443 a 10.28,10.28 0 0 0 -0.077,1.295 z m 31.442,0 a 9.851,9.851 0 0 0 0.093,1.407 q 0.104,0.715 0.321,1.293 a 4.081,4.081 0 0 0 0.57,1.05 3.188,3.188 0 0 0 2.077,1.223 4.831,4.831 0 0 0 0.818,0.066 4.518,4.518 0 0 0 1.192,-0.148 3.145,3.145 0 0 0 1.708,-1.135 q 0.736,-0.954 0.925,-2.566 a 10.247,10.247 0 0 0 0.065,-1.19 9.706,9.706 0 0 0 -0.092,-1.383 q -0.101,-0.704 -0.315,-1.275 a 4.005,4.005 0 0 0 -0.583,-1.063 3.2,3.2 0 0 0 -1.99,-1.187 4.906,4.906 0 0 0 -0.934,-0.084 4.63,4.63 0 0 0 -1.152,0.135 3.098,3.098 0 0 0 -1.731,1.119 q -0.7,0.902 -0.896,2.443 a 10.28,10.28 0 0 0 -0.076,1.295 z m -43.874,-4.509 a 2.587,2.587 0 0 0 -0.751,0.659 q -0.879,1.143 -0.879,3.85 a 12.862,12.862 0 0 0 0.063,1.329 q 0.14,1.342 0.588,2.158 a 2.934,2.934 0 0 0 0.251,0.386 2.822,2.822 0 0 0 1.432,0.966 q 0.638,0.2 1.463,0.2 a 3.878,3.878 0 0 0 1.101,-0.147 2.798,2.798 0 0 0 1.571,-1.159 4.466,4.466 0 0 0 0.552,-1.196 q 0.173,-0.567 0.255,-1.254 a 11.147,11.147 0 0 0 0.071,-1.306 11.493,11.493 0 0 0 -0.069,-1.31 q -0.178,-1.544 -0.809,-2.429 a 2.837,2.837 0 0 0 -1.807,-1.143 4.499,4.499 0 0 0 -0.912,-0.087 q -1.295,0 -2.12,0.483 z" />
</svg>
